{
.formatVersion = 3;
axes = (
{
name = Weight;
tag = wght;
}
);
classes = (
{
code = "zero one two three four five six seven eight nine zero.lf one.lf two.lf three.lf four.lf five.lf six.lf seven.lf eight.lf nine.lf";
name = case;
},
{
code = "zero.osf one.osf two.osf three.osf four.osf five.osf six.osf seven.osf eight.osf nine.osf zero.tosf one.tosf two.tosf three.tosf four.tosf five.tosf six.tosf seven.tosf eight.tosf nine.tosf";
name = case_onum;
},
{
code = "gravecomb acutecomb circumflexcomb tildecomb macroncomb brevecomb dotaccentcomb dieresiscomb ringcomb hungarumlautcomb caroncomb commaturnedabovecomb hookabovecomb dblgravecomb breveinvertedcomb";
name = ccmp;
},
{
code = "zero.dnom one.dnom two.dnom three.dnom four.dnom five.dnom six.dnom seven.dnom eight.dnom nine.dnom";
name = dnom_frac;
},
{
code = "zero one two three four five six seven eight nine";
name = dnom_frac_lnum_numr_ordn;
},
{
code = "zero.numr one.numr two.numr three.numr four.numr five.numr six.numr seven.numr eight.numr nine.numr";
name = frac_numr;
},
{
code = "zero.osf one.osf two.osf three.osf four.osf five.osf six.osf seven.osf eight.osf nine.osf";
name = lnum;
},
{
code = "commaaccentcomb cedillacomb dotbelowcomb dieresisbelowcomb macronbelowcomb palatalhookcomb";
name = mkmk;
},
{
code = "gravecomb acutecomb circumflexcomb tildecomb macroncomb brevecomb dotaccentcomb dieresiscomb ringcomb hungarumlautcomb caroncomb commaturnedabovecomb hookabovecomb dblgravecomb breveinvertedcomb brevebelowcomb brevecomb_acutecomb brevecomb_gravecomb brevecomb_hookabovecomb brevecomb_tildecomb circumflexcomb_acutecomb circumflexcomb_gravecomb circumflexcomb_hookabovecomb circumflexcomb_tildecomb";
name = mkmk2;
},
{
code = "horncomb caroncomb.alt";
name = mkmk3;
},
{
code = "zero one two three four five six seven eight nine zero.tf one.tf two.tf three.tf four.tf five.tf six.tf seven.tf eight.tf nine.tf";
name = onum;
},
{

glyphs = (
{
glyphname = .notdef;
layers = (
{
layerId = "147A3F7D-7F40-49EB-AD29-5B1295CBA645";
shapes = (
{
closed = 1;
nodes = (
(436,350,l),
(593,190,l),
(551,147,l),
(394,307,l),
(237,147,l),
(195,190,l),
(351,350,l),
(195,510,l),
(237,553,l),
(394,393,l),
(551,553,l),
(593,510,l)
);
},
{
closed = 1;
nodes = (
(748,700,l),
(748,0,l),
(39,0,l),
(39,700,l)
);
},
{
closed = 1;
nodes = (
(639,603,l),
(149,603,l),
(149,98,l),
(639,98,l)
);
}
);
width = 786;
},
{
layerId = "829015CF-4750-49AF-8B75-DA4E2F394C23";
shapes = (
{
closed = 1;
nodes = (
(428,350,l),
(585,190,l),
(551,155,l),
(394,315,l),
(237,155,l),
(203,190,l),
(359,350,l),
(203,510,l),
(237,545,l),
(394,385,l),
(551,545,l),
(585,510,l)
);
},
{
closed = 1;
nodes = (
(748,700,l),
(748,0,l),
(39,0,l),
(39,700,l)
);
},
{
closed = 1;
nodes = (
(677,634,l),
(111,634,l),
(111,59,l),
(677,59,l)
);
}
);
width = 786;
},
{
layerId = "803E4031-45E0-466E-BF99-85A631E5C1E1";
shapes = (
{
closed = 1;
nodes = (
(423,350,l),
(580,190,l),
(551,160,l),
(394,320,l),
(237,160,l),
(208,190,l),
(364,350,l),
(208,510,l),
(237,540,l),
(394,380,l),
(551,540,l),
(580,510,l)
);
},
{
closed = 1;
nodes = (
(748,700,l),
(748,0,l),
(39,0,l),
(39,700,l)
);
},
{
closed = 1;
nodes = (
(700,653,l),
(88,653,l),
(88,36,l),
(700,36,l)
);
}
);
width = 786;
}
);
},
{
glyphname = A;
layers = (
{
anchors = (
{
name = m.uni0321_3;
position = "{340, 20}";
},
{
name = t.uni0308_1_3;
position = "{453, 700}";
},
{
name = m.uni0328_3;
position = "{600, 0}";
}
);
layerId = "147A3F7D-7F40-49EB-AD29-5B1295CBA645";
shapes = (
{
closed = 1;
nodes = (
(594,283,l),
(570,141,l),
(157,141,l),
(181,283,l)
);
},
{
closed = 1;
nodes = (
(719,0,l),
(522,0,l),
(428,532,l),
(157,0,l),
(-40,0,l),
(353,700,l),
(560,700,l)
);
}
);
width = 775;
},
{
anchors = (
{
name = m.uni0321_3;
position = "{340, 20}";
},
{
name = t.uni0308_1_3;
position = "{453, 700}";
},
{
name = m.uni0328_3;
position = "{600, 0}";
}
);
layerId = "829015CF-4750-49AF-8B75-DA4E2F394C23";
shapes = (
{
closed = 1;
nodes = (
(582,260,l),
(567,172,l),
(139,172,l),
(154,260,l)
);
},
{
closed = 1;
nodes = (
(680,0,l),
(560,0,l),
(424,595,l),
(88,0,l),
(-31,0,l),
(378,700,l),
(505,700,l)
);
}
);
width = 744;
},
{
anchors = (
{
name = m.uni0321_3;
position = "{340, 20}";
},
{
name = t.uni0308_1_3;
position = "{453, 700}";
},
{
name = m.uni0328_3;
position = "{600, 0}";
}
);
layerId = "803E4031-45E0-466E-BF99-85A631E5C1E1";
shapes = (
{
closed = 1;
nodes = (
(575,246,l),
(565,191,l),
(128,191,l),
(138,246,l)
);
},
{
closed = 1;
nodes = (
(657,0,l),
(583,0,l),
(422,633,l),
(47,0,l),
(-26,0,l),
(393,700,l),
(472,700,l)
);
}
);
width = 725;
}
);
leftKerningGroup = A;
rightKerningGroup = A2;
unicode = 65;
},
{
glyphname = B;
layers = (
{
layerId = "147A3F7D-7F40-49EB-AD29-5B1295CBA645";
shapes = (
{
closed = 1;
nodes = (
(209,153,l),
(342,153,ls),
(404,153,o),
(440,177,o),
(447,219,cs),
(454,258,o),
(427,285,o),
(365,285,cs),
(231,285,l),
(255,427,l),
(369,427,ls),
(430,427,o),
(458,447,o),
(464,486,c),
(472,526,o),
(449,547,o),
(389,547,cs),
(275,547,l),
(300,700,l),
(414,700,ls),
(579,700,o),
(664,628,o),
(645,516,cs),
(632,439,o),
(554,372,o),
(477,368,c),
(478,383,l),
(583,364,o),
(637,302,o),
(619,198,cs),
(600,82,o),
(494,0,o),
(317,0,cs),
(183,0,l)
);
},
{
closed = 1;
nodes = (
(144,700,l),
(319,700,l),
(202,0,l),
(27,0,l)
);
}
);
width = 672;
},
{
layerId = "829015CF-4750-49AF-8B75-DA4E2F394C23";
shapes = (
{
closed = 1;
nodes = (
(145,91,l),
(332,91,ls),
(428,91,o),
(487,134,o),
(499,205,cs),
(510,272,o),
(466,316,o),
(371,316,cs),
(184,316,l),
(198,404,l),
(365,404,ls),
(448,404,o),
(504,445,o),
(514,508,cs),
(525,569,o),
(486,609,o),
(399,609,cs),
(232,609,l),
(247,700,l),
(414,700,ls),
(573,700,o),
(639,620,o),
(623,518,cs),
(609,437,o),
(530,374,o),
(451,369,c),
(449,379,l),
(557,372,o),
(622,304,o),
(604,198,cs),
(584,79,o),
(478,0,o),
(317,0,cs),
(130,0,l)
);
},
{
closed = 1;
nodes = (
(160,700,l),
(266,700,l),
(149,0,l),
(43,0,l)
);
}
);
width = 664;
},
{
layerId = "803E4031-45E0-466E-BF99-85A631E5C1E1";
shapes = (
{
closed = 1;
nodes = (
(107,53,l),
(326,53,ls),
(442,53,o),
(515,108,o),
(530,197,cs),
(544,281,o),
(489,335,o),
(374,335,cs),
(155,335,l),
(164,390,l),
(363,390,ls),
(458,390,o),
(531,443,o),
(544,521,cs),
(557,595,o),
(508,646,o),
(405,646,cs),
(206,646,l),
(215,700,l),
(414,700,ls),
(570,700,o),
(624,615,o),
(609,519,cs),
(595,435,o),
(515,375,o),
(435,369,c),
(432,376,l),
(541,377,o),
(613,305,o),
(595,198,cs),
(575,77,o),
(469,0,o),
(317,0,cs),
(98,0,l)
);
},
{
closed = 1;
nodes = (
(169,700,l),
(234,700,l),
(117,0,l),
(52,0,l)
);
}
);
width = 659;
}
);
leftKerningGroup = B;
unicode = 66;
},
{
glyphname = C;
layers = (
{
anchors = (
{
name = m.uni0321_3;
position = "{355, 0}";
},
{
name = t.uni0308_1_3;
position = "{474, 710}";
}
);
layerId = "147A3F7D-7F40-49EB-AD29-5B1295CBA645";
shapes = (
{
closed = 1;
nodes = (
(134,-10,o),
(12,135,o),
(48,350,cs),
(84,565,o),
(255,710,o),
(473,710,cs),
(619,710,o),
(724,633,o),
(752,507,c),
(599,423,l),
(582,511,o),
(527,557,o),
(447,557,cs),
(335,557,o),
(244,473,o),
(224,350,cs),
(203,227,o),
(267,143,o),
(379,143,cs),
(462,143,o),
(535,189,o),
(571,269,c),
(698,189,l),
(628,67,o),
(498,-10,o),
(352,-10,cs)
);
}
);
width = 754;
},
{
anchors = (
{
name = m.uni0321_3;
position = "{355, 0}";
},
{
name = t.uni0308_1_3;
position = "{474, 710}";
}
);
layerId = "829015CF-4750-49AF-8B75-DA4E2F394C23";
shapes = (
{
closed = 1;
nodes = (
(142,-10,o),
(20,135,o),
(56,350,cs),
(92,565,o),
(263,710,o),
(481,710,cs),
(625,710,o),
(730,639,o),
(766,520,c),
(672,469,l),
(645,564,o),
(570,620,o),
(466,620,cs),
(312,620,o),
(190,511,o),
(163,350,cs),
(136,190,o),
(221,81,o),
(376,81,cs),
(480,81,o),
(574,136,o),
(630,229,c),
(709,178,l),
(633,61,o),
(504,-10,o),
(360,-10,cs)
);
}
);
width = 773;
},
{
anchors = (
{
name = m.uni0321_3;
position = "{355, 0}";
},
{
name = t.uni0308_1_3;
position = "{474, 710}";
}
);
layerId = "803E4031-45E0-466E-BF99-85A631E5C1E1";
shapes = (
{
closed = 1;
nodes = (
(147,-10,o),
(25,135,o),
(61,350,cs),
(97,565,o),
(268,710,o),
(486,710,cs),
(628,710,o),
(733,643,o),
(775,528,c),
(715,496,l),
(682,596,o),
(595,657,o),
(477,657,cs),
(298,657,o),
(157,533,o),
(127,350,cs),
(96,167,o),
(194,43,o),
(374,43,cs),
(491,43,o),
(598,104,o),
(666,205,c),
(715,172,l),
(636,57,o),
(507,-10,o),
(365,-10,cs)
);
}
);
width = 784;
}
);
leftKerningGroup = C2;
rightKerningGroup = C;
unicode = 67;
},
{
glyphname = D;
layers = (
{
anchors = (
{
name = m.uni0321_3;
position = "{306, 0}";
},
{
name = t.uni0308_1_3;
position = "{423, 700}";
},
{
name = t.uni0335_2;
position = "{182, 350}";
}
);
layerId = "147A3F7D-7F40-49EB-AD29-5B1295CBA645";
shapes = (
{
closed = 1;
nodes = (
(144,700,l),
(424,700,ls),
(648,700,o),
(777,559,o),
(742,350,cs),
(707,141,o),
(531,0,o),
(307,0,cs),
(27,0,l)
);
},
{
closed = 1;
nodes = (
(335,165,ls),
(448,165,o),
(537,240,o),
(555,350,cs),
(573,460,o),
(510,535,o),
(397,535,cs),
(292,535,l),
(230,165,l)
);
}
);
width = 768;
},
{
anchors = (
{
name = m.uni0321_3;
position = "{306, 0}";
},
{
name = t.uni0308_1_3;
position = "{423, 700}";
},
{
name = t.uni0335_2;
position = "{182, 350}";
}
);
layerId = "829015CF-4750-49AF-8B75-DA4E2F394C23";
shapes = (
{
closed = 1;
nodes = (
(160,700,l),
(424,700,ls),
(644,700,o),
(769,559,o),
(734,350,cs),
(699,141,o),
(527,0,o),
(307,0,cs),
(43,0,l)
);
},
{
closed = 1;
nodes = (
(323,95,ls),
(477,95,o),
(598,197,o),
(624,350,cs),
(649,503,o),
(563,606,o),
(408,606,cs),
(251,606,l),
(165,95,l)
);
}
);
width = 768;
},
{
anchors = (
{
name = m.uni0321_3;
position = "{306, 0}";
},
{
name = t.uni0308_1_3;
position = "{423, 700}";
},
{
name = t.uni0335_2;
position = "{182, 350}";
}
);
layerId = "803E4031-45E0-466E-BF99-85A631E5C1E1";
shapes = (
{
closed = 1;
nodes = (
(169,700,l),
(424,700,ls),
(641,700,o),
(764,559,o),
(729,350,cs),
(694,141,o),
(524,0,o),
(307,0,cs),
(52,0,l)
);
},
{
closed = 1;
nodes = (
(316,53,ls),
(494,53,o),
(635,171,o),
(665,350,cs),
(695,529,o),
(594,648,o),
(415,648,cs),
(226,648,l),
(126,53,l)
);
}
);
width = 768;
}
);
leftKerningGroup = B;
rightKerningGroup = D;
unicode = 68;
},
{
glyphname = E;
layers = (
{
anchors = (
{
name = m.uni0321_3;
position = "{285, 0}";
},
{
name = t.uni0308_1_3;
position = "{378, 700}";
},
{
name = m.uni0328_3;
position = "{395, 0}";
}
);
layerId = "147A3F7D-7F40-49EB-AD29-5B1295CBA645";
shapes = (
{
closed = 1;
nodes = (
(605,700,l),
(580,547,l),
(247,547,l),
(302,595,l),
(220,105,l),
(181,153,l),
(513,153,l),
(488,0,l),
(27,0,l),
(144,700,l)
);
},
{
closed = 1;
nodes = (
(562,438,l),
(536,284,l),
(115,284,l),
(140,438,l)
);
}
);
width = 596;
},
{
anchors = (
{
name = m.uni0321_3;
position = "{285, 0}";
},
{
name = t.uni0308_1_3;
position = "{378, 700}";
},
{
name = m.uni0328_3;
position = "{395, 0}";
}
);
layerId = "829015CF-4750-49AF-8B75-DA4E2F394C23";
shapes = (
{
closed = 1;
nodes = (
(590,700,l),
(576,610,l),
(204,610,l),
(259,658,l),
(156,43,l),
(117,91,l),
(488,91,l),
(473,0,l),
(43,0,l),
(160,700,l)
);
},
{
closed = 1;
nodes = (
(541,402,l),
(525,312,l),
(134,312,l),
(149,402,l)
);
}
);
width = 593;
},
{
anchors = (
{
name = m.uni0321_3;
position = "{285, 0}";
},
{
name = t.uni0308_1_3;
position = "{378, 700}";
},
{
name = m.uni0328_3;
position = "{395, 0}";
}
);
layerId = "803E4031-45E0-466E-BF99-85A631E5C1E1";
shapes = (
{
closed = 1;
nodes = (
(581,700,l),
(573,647,l),
(178,647,l),
(233,695,l),
(118,5,l),
(79,53,l),
(473,53,l),
(464,0,l),
(52,0,l),
(169,700,l)
);
},
{
closed = 1;
nodes = (
(528,381,l),
(519,328,l),
(145,328,l),
(154,381,l)
);
}
);
width = 591;
}
);
leftKerningGroup = B;
rightKerningGroup = E;
unicode = 69;
},
{
glyphname = F;
layers = (
{
layerId = "147A3F7D-7F40-49EB-AD29-5B1295CBA645";
shapes = (
{
closed = 1;
nodes = (
(586,700,l),
(561,547,l),
(247,547,l),
(302,595,l),
(202,0,l),
(27,0,l),
(144,700,l)
);
},
{
closed = 1;
nodes = (
(543,438,l),
(518,284,l),
(115,284,l),
(140,438,l)
);
}
);
width = 564;
},
{
layerId = "829015CF-4750-49AF-8B75-DA4E2F394C23";
shapes = (
{
closed = 1;
nodes = (
(570,700,l),
(555,610,l),
(204,610,l),
(259,658,l),
(149,0,l),
(43,0,l),
(160,700,l)
);
},
{
closed = 1;
nodes = (
(521,402,l),
(506,312,l),
(134,312,l),
(149,402,l)
);
}
);
width = 558;
},
{
layerId = "803E4031-45E0-466E-BF99-85A631E5C1E1";
shapes = (
{
closed = 1;
nodes = (
(561,700,l),
(552,647,l),
(178,647,l),
(233,695,l),
(117,0,l),
(52,0,l),
(169,700,l)
);
},
{
closed = 1;
nodes = (
(508,381,l),
(499,328,l),
(145,328,l),
(154,381,l)
);
}
);
width = 555;
}
);
leftKerningGroup = B;
unicode = 70;
},
{
glyphname = G;
layers = (
{
anchors = (
{
name = m.uni0321_3;
position = "{355, 0}";
},
{
name = t.uni0308_1_3;
position = "{474, 710}";
}
);
layerId = "147A3F7D-7F40-49EB-AD29-5B1295CBA645";
shapes = (
{
closed = 1;
nodes = (
(419,406,l),
(770,406,l),
(758,336,ls),
(723,133,o),
(559,-10,o),
(352,-10,cs),
(134,-10,o),
(12,135,o),
(48,350,cs),
(84,565,o),
(255,710,o),
(473,710,cs),
(611,710,o),
(718,640,o),
(757,525,c),
(601,438,l),
(581,509,o),
(520,557,o),
(447,557,cs),
(335,557,o),
(244,473,o),
(224,350,cs),
(203,227,o),
(267,143,o),
(379,143,cs),
(474,143,o),
(556,192,o),
(573,294,c),
(590,252,l),
(393,252,l)
);
}
);
width = 786;
},
{
anchors = (
{
name = m.uni0321_3;
position = "{355, 0}";
},
{
name = t.uni0308_1_3;
position = "{474, 710}";
}
);
layerId = "829015CF-4750-49AF-8B75-DA4E2F394C23";
shapes = (
{
closed = 1;
nodes = (
(437,375,l),
(772,375,l),
(765,332,ls),
(732,134,o),
(566,-10,o),
(360,-10,cs),
(142,-10,o),
(20,135,o),
(56,350,cs),
(92,565,o),
(263,710,o),
(481,710,cs),
(619,710,o),
(722,640,o),
(762,526,c),
(665,477,l),
(638,565,o),
(563,620,o),
(466,620,cs),
(312,620,o),
(190,511,o),
(163,350,cs),
(136,190,o),
(221,81,o),
(376,81,cs),
(520,81,o),
(633,172,o),
(657,316,c),
(688,283,l),
(421,283,l)
);
}
);
width = 802;
},
{
anchors = (
{
name = m.uni0321_3;
position = "{355, 0}";
},
{
name = t.uni0308_1_3;
position = "{474, 710}";
}
);
layerId = "803E4031-45E0-466E-BF99-85A631E5C1E1";
shapes = (
{
closed = 1;
nodes = (
(447,356,l),
(773,356,l),
(769,329,ls),
(737,135,o),
(570,-10,o),
(365,-10,cs),
(147,-10,o),
(25,135,o),
(61,350,cs),
(97,565,o),
(268,710,o),
(486,710,cs),
(624,710,o),
(724,640,o),
(765,527,c),
(704,500,l),
(672,599,o),
(588,657,o),
(477,657,cs),
(298,657,o),
(157,533,o),
(127,350,cs),
(96,167,o),
(194,43,o),
(374,43,cs),
(548,43,o),
(679,160,o),
(708,329,c),
(746,302,l),
(438,302,l)
);
}
);
width = 811;
}
);
leftKerningGroup = C2;
rightKerningGroup = D;
unicode = 71;
},
{
glyphname = H;
layers = (
{
anchors = (
{
name = m.uni0321_3;
position = "{349, -3}";
},
{
name = t.uni0308_1_3;
position = "{461, 700}";
},
{
name = t.uni0335_2;
position = "{442, 560}";
}
);
layerId = "147A3F7D-7F40-49EB-AD29-5B1295CBA645";
shapes = (
{
closed = 1;
nodes = (
(782,700,l),
(665,0,l),
(490,0,l),
(607,700,l)
);
},
{
closed = 1;
nodes = (
(582,438,l),
(557,284,l),
(232,284,l),
(257,438,l)
);
},
{
closed = 1;
nodes = (
(27,0,l),
(144,700,l),
(319,700,l),
(202,0,l)
);
}
);
width = 787;
},
{
anchors = (
{
name = m.uni0321_3;
position = "{349, -3}";
},
{
name = t.uni0308_1_3;
position = "{461, 700}";
},
{
name = t.uni0335_2;
position = "{442, 560}";
}
);
layerId = "829015CF-4750-49AF-8B75-DA4E2F394C23";
shapes = (
{
closed = 1;
nodes = (
(766,700,l),
(649,0,l),
(543,0,l),
(660,700,l)
);
},
{
closed = 1;
nodes = (
(629,402,l),
(614,312,l),
(183,312,l),
(198,402,l)
);
},
{
closed = 1;
nodes = (
(43,0,l),
(160,700,l),
(266,700,l),
(149,0,l)
);
}
);
width = 787;
},
{
anchors = (
{
name = m.uni0321_3;
position = "{349, -3}";
},
{
name = t.uni0308_1_3;
position = "{461, 700}";
},
{
name = t.uni0335_2;
position = "{442, 560}";
}
);
layerId = "803E4031-45E0-466E-BF99-85A631E5C1E1";
shapes = (
{
closed = 1;
nodes = (
(757,700,l),
(640,0,l),
(575,0,l),
(692,700,l)
);
},
{
closed = 1;
nodes = (
(657,381,l),
(648,328,l),
(153,328,l),
(162,381,l)
);
},
{
closed = 1;
nodes = (
(52,0,l),
(169,700,l),
(234,700,l),
(117,0,l)
);
}
);
width = 787;
}
);
leftKerningGroup = B;
rightKerningGroup = H;
unicode = 72;
},
{
glyphname = I;
layers = (
{
anchors = (
{
name = m.uni0321_3;
position = "{111, 0}";
},
{
name = t.uni0308_1_3;
position = "{226, 700}";
},
{
name = m.uni0328_3;
position = "{119, 0}";
}
);
layerId = "147A3F7D-7F40-49EB-AD29-5B1295CBA645";
shapes = (
{
closed = 1;
nodes = (
(319,700,l),
(202,0,l),
(27,0,l),
(144,700,l)
);
}
);
width = 325;
},
{
anchors = (
{
name = m.uni0321_3;
position = "{111, 0}";
},
{
name = t.uni0308_1_3;
position = "{226, 700}";
},
{
name = m.uni0328_3;
position = "{119, 0}";
}
);
layerId = "829015CF-4750-49AF-8B75-DA4E2F394C23";
shapes = (
{
closed = 1;
nodes = (
(266,700,l),
(149,0,l),
(43,0,l),
(160,700,l)
);
}
);
width = 287;
},
{
anchors = (
{
name = m.uni0321_3;
position = "{111, 0}";
},
{
name = t.uni0308_1_3;
position = "{226, 700}";
},
{
name = m.uni0328_3;
position = "{119, 0}";
}
);
layerId = "803E4031-45E0-466E-BF99-85A631E5C1E1";
shapes = (
{
closed = 1;
nodes = (
(234,700,l),
(117,0,l),
(52,0,l),
(169,700,l)
);
}
);
width = 264;
}
);
leftKerningGroup = B;
rightKerningGroup = H;
unicode = 73;
},
{
glyphname = J;
layers = (
{
anchors = (
{
name = m.uni0321_3;
position = "{228, 0}";
},
{
name = t.uni0308_1_3;
position = "{539, 700}";
}
);
layerId = "147A3F7D-7F40-49EB-AD29-5B1295CBA645";
shapes = (
{
closed = 1;
nodes = (
(555,269,ls),
(527,101,o),
(415,-10,o),
(227,-10,cs),
(59,-10,o),
(-21,94,o),
(2,242,c),
(173,275,l),
(159,192,o),
(187,143,o),
(254,143,cs),
(324,143,o),
(365,188,o),
(379,269,cs),
(451,700,l),
(627,700,l)
);
}
);
width = 625;
},
{
anchors = (
{
name = m.uni0321_3;
position = "{228, 0}";
},
{
name = t.uni0308_1_3;
position = "{539, 700}";
}
);
layerId = "829015CF-4750-49AF-8B75-DA4E2F394C23";
shapes = (
{
closed = 1;
nodes = (
(533,269,ls),
(504,98,o),
(393,-10,o),
(221,-10,cs),
(59,-10,o),
(-17,88,o),
(1,235,c),
(109,253,l),
(97,145,o),
(143,81,o),
(237,81,cs),
(337,81,o),
(406,151,o),
(426,269,cs),
(498,700,l),
(605,700,l)
);
}
);
width = 616;
},
{
anchors = (
{
name = m.uni0321_3;
position = "{228, 0}";
},
{
name = t.uni0308_1_3;
position = "{539, 700}";
}
);
layerId = "803E4031-45E0-466E-BF99-85A631E5C1E1";
shapes = (
{
closed = 1;
nodes = (
(519,269,ls),
(490,96,o),
(380,-10,o),
(217,-10,cs),
(59,-10,o),
(-14,85,o),
(1,230,c),
(70,239,l),
(60,116,o),
(117,43,o),
(226,43,cs),
(344,43,o),
(430,128,o),
(454,269,cs),
(526,700,l),
(591,700,l)
);
}
);
width = 611;
}
);
leftKerningGroup = J;
rightKerningGroup = J1;
unicode = 74;
},
{
glyphname = K;
layers = (
{
anchors = (
{
name = m.uni0321_3;
position = "{301, 0}";
},
{
name = t.uni0308_1_3;
position = "{412, 700}";
}
);
layerId = "147A3F7D-7F40-49EB-AD29-5B1295CBA645";
shapes = (
{
closed = 1;
nodes = (
(416,360,l),
(378,340,l),
(151,152,l),
(181,328,l),
(554,700,l),
(770,700,l)
);
},
{
closed = 1;
nodes = (
(454,452,l),
(691,0,l),
(476,0,l),
(310,330,l)
);
},
{
closed = 1;
nodes = (
(319,700,l),
(202,0,l),
(27,0,l),
(144,700,l)
);
}
);
width = 748;
},
{
anchors = (
{
name = m.uni0321_3;
position = "{301, 0}";
},
{
name = t.uni0308_1_3;
position = "{412, 700}";
}
);
layerId = "829015CF-4750-49AF-8B75-DA4E2F394C23";
shapes = (
{
closed = 1;
nodes = (
(379,381,l),
(353,365,l),
(122,162,l),
(141,278,l),
(584,700,l),
(716,700,l)
);
},
{
closed = 1;
nodes = (
(398,435,l),
(638,0,l),
(506,0,l),
(314,364,l)
);
},
{
closed = 1;
nodes = (
(266,700,l),
(149,0,l),
(43,0,l),
(160,700,l)
);
}
);
width = 702;
},
{
anchors = (
{
name = m.uni0321_3;
position = "{301, 0}";
},
{
name = t.uni0308_1_3;
position = "{412, 700}";
}
);
layerId = "803E4031-45E0-466E-BF99-85A631E5C1E1";
shapes = (
{
closed = 1;
nodes = (
(356,393,l),
(338,380,l),
(104,168,l),
(117,248,l),
(602,700,l),
(683,700,l)
);
},
{
closed = 1;
nodes = (
(365,424,l),
(606,0,l),
(524,0,l),
(316,384,l)
);
},
{
closed = 1;
nodes = (
(234,700,l),
(117,0,l),
(52,0,l),
(169,700,l)
);
}
);
width = 674;
}
);
leftKerningGroup = B;
rightKerningGroup = K;
unicode = 75;
},
{
glyphname = L;
layers = (
{
anchors = (
{
name = m.uni0321_3;
position = "{250, 0}";
},
{
name = t.uni0308_1_3;
position = "{225, 700}";
},
{
name = t.uni0335_2;
position = "{182, 392}";
},
{
name = t.uni031B_3;
position = "{519, 760}";
}
);
layerId = "147A3F7D-7F40-49EB-AD29-5B1295CBA645";
shapes = (
{
closed = 1;
nodes = (
(144,700,l),
(319,700,l),
(220,105,l),
(181,153,l),
(513,153,l),
(488,0,l),
(27,0,l)
);
}
);
width = 544;
},
{
anchors = (
{
name = m.uni0321_3;
position = "{250, 0}";
},
{
name = t.uni0308_1_3;
position = "{225, 700}";
},
{
name = t.uni0335_2;
position = "{182, 392}";
},
{
name = t.uni031B_3;
position = "{519, 760}";
}
);
layerId = "829015CF-4750-49AF-8B75-DA4E2F394C23";
shapes = (
{
closed = 1;
nodes = (
(160,700,l),
(266,700,l),
(156,43,l),
(117,91,l),
(488,91,l),
(473,0,l),
(43,0,l)
);
}
);
width = 536;
},
{
anchors = (
{
name = m.uni0321_3;
position = "{250, 0}";
},
{
name = t.uni0308_1_3;
position = "{225, 700}";
},
{
name = t.uni0335_2;
position = "{182, 392}";
},
{
name = t.uni031B_3;
position = "{519, 760}";
}
);
layerId = "803E4031-45E0-466E-BF99-85A631E5C1E1";
shapes = (
{
closed = 1;
nodes = (
(169,700,l),
(234,700,l),
(118,5,l),
(79,53,l),
(473,53,l),
(464,0,l),
(52,0,l)
);
}
);
width = 531;
}
);
leftKerningGroup = B;
rightKerningGroup = L;
unicode = 76;
},
{
glyphname = M;
layers = (
{
layerId = "147A3F7D-7F40-49EB-AD29-5B1295CBA645";
shapes = (
{
closed = 1;
nodes = (
(945,700,l),
(828,0,l),
(653,0,l),
(729,452,l),
(483,0,l),
(371,0,l),
(278,452,l),
(202,0,l),
(27,0,l),
(144,700,l),
(350,700,l),
(467,240,l),
(740,700,l)
);
}
);
width = 951;
},
{
layerId = "829015CF-4750-49AF-8B75-DA4E2F394C23";
shapes = (
{
closed = 1;
nodes = (
(899,700,l),
(782,0,l),
(676,0,l),
(767,546,l),
(444,0,l),
(380,0,l),
(241,546,l),
(149,0,l),
(43,0,l),
(160,700,l),
(288,700,l),
(440,162,l),
(770,700,l)
);
}
);
width = 920;
},
{
layerId = "803E4031-45E0-466E-BF99-85A631E5C1E1";
shapes = (
{
closed = 1;
nodes = (
(872,700,l),
(755,0,l),
(689,0,l),
(790,603,l),
(421,0,l),
(385,0,l),
(218,603,l),
(117,0,l),
(52,0,l),
(169,700,l),
(251,700,l),
(423,115,l),
(788,700,l)
);
}
);
width = 902;
}
);
leftKerningGroup = B1;
rightKerningGroup = H;
unicode = 77;
},
{
glyphname = N;
layers = (
{
anchors = (
{
name = m.uni0321_3;
position = "{361, 0}";
},
{
name = t.uni0308_1_3;
position = "{481, 700}";
}
);
layerId = "147A3F7D-7F40-49EB-AD29-5B1295CBA645";
shapes = (
{
closed = 1;
nodes = (
(828,700,l),
(711,0,l),
(526,0,l),
(279,458,l),
(202,0,l),
(27,0,l),
(144,700,l),
(330,700,l),
(576,244,l),
(652,700,l)
);
}
);
width = 833;
},
{
anchors = (
{
name = m.uni0321_3;
position = "{361, 0}";
},
{
name = t.uni0308_1_3;
position = "{481, 700}";
}
);
layerId = "829015CF-4750-49AF-8B75-DA4E2F394C23";
shapes = (
{
closed = 1;
nodes = (
(782,700,l),
(665,0,l),
(550,0,l),
(240,544,l),
(149,0,l),
(43,0,l),
(160,700,l),
(269,700,l),
(583,150,l),
(675,700,l)
);
}
);
width = 802;
},
{
anchors = (
{
name = m.uni0321_3;
position = "{361, 0}";
},
{
name = t.uni0308_1_3;
position = "{481, 700}";
}
);
layerId = "803E4031-45E0-466E-BF99-85A631E5C1E1";
shapes = (
{
closed = 1;
nodes = (
(754,700,l),
(637,0,l),
(564,0,l),
(217,595,l),
(117,0,l),
(52,0,l),
(169,700,l),
(233,700,l),
(587,94,l),
(688,700,l)
);
}
);
width = 784;
}
);
leftKerningGroup = B;
rightKerningGroup = N;
unicode = 78;
},
{
glyphname = O;
layers = (
{
anchors = (
{
name = m.uni0321_3;
position = "{355, 0}";
},
{
name = t.uni0308_1_3;
position = "{474, 710}";
},
{
name = t.uni0335_2;
position = "{417, 350}";
},
{
name = m.uni0328_3;
position = "{353, -10}";
},
{
name = t.uni031B_3;
position = "{720, 589}";
}
);
layerId = "147A3F7D-7F40-49EB-AD29-5B1295CBA645";
shapes = (
{
closed = 1;
nodes = (
(134,-10,o),
(12,135,o),
(48,350,cs),
(84,565,o),
(255,710,o),
(473,710,cs),
(690,710,o),
(813,565,o),
(777,350,cs),
(741,135,o),
(569,-10,o),
(352,-10,cs)
);
},
{
closed = 1;
nodes = (
(492,143,o),
(582,227,o),
(603,350,cs),
(622,473,o),
(560,557,o),
(447,557,cs),
(335,557,o),
(244,473,o),
(224,350,cs),
(203,227,o),
(267,143,o),
(379,143,cs)
);
}
);
width = 804;
},
{
anchors = (
{
name = m.uni0321_3;
position = "{355, 0}";
},
{
name = t.uni0308_1_3;
position = "{474, 710}";
},
{
name = t.uni0335_2;
position = "{417, 350}";
},
{
name = m.uni0328_3;
position = "{353, -10}";
},
{
name = t.uni031B_3;
position = "{720, 589}";
}
);
layerId = "829015CF-4750-49AF-8B75-DA4E2F394C23";
shapes = (
{
closed = 1;
nodes = (
(142,-10,o),
(20,135,o),
(56,350,cs),
(92,565,o),
(263,710,o),
(481,710,cs),
(698,710,o),
(821,565,o),
(785,350,cs),
(749,135,o),
(577,-10,o),
(360,-10,cs)
);
},
{
closed = 1;
nodes = (
(530,81,o),
(653,190,o),
(679,350,cs),
(706,511,o),
(619,620,o),
(466,620,cs),
(312,620,o),
(190,511,o),
(163,350,cs),
(136,190,o),
(221,81,o),
(376,81,cs)
);
}
);
width = 819;
},
{
anchors = (
{
name = m.uni0321_3;
position = "{355, 0}";
},
{
name = t.uni0308_1_3;
position = "{474, 710}";
},
{
name = t.uni0335_2;
position = "{417, 350}";
},
{
name = m.uni0328_3;
position = "{353, -10}";
},
{
name = t.uni031B_3;
position = "{720, 589}";
}
);
layerId = "803E4031-45E0-466E-BF99-85A631E5C1E1";
shapes = (
{
closed = 1;
nodes = (
(147,-10,o),
(25,135,o),
(61,350,cs),
(97,565,o),
(268,710,o),
(486,710,cs),
(703,710,o),
(826,565,o),
(790,350,cs),
(754,135,o),
(582,-10,o),
(365,-10,cs)
);
},
{
closed = 1;
nodes = (
(552,43,o),
(695,167,o),
(725,350,cs),
(756,533,o),
(655,657,o),
(477,657,cs),
(298,657,o),
(157,533,o),
(127,350,cs),
(96,167,o),
(194,43,o),
(374,43,cs)
);
}
);
width = 828;
}
);
leftKerningGroup = C2;
rightKerningGroup = D;
unicode = 79;
},
{
glyphname = P;
layers = (
{
layerId = "147A3F7D-7F40-49EB-AD29-5B1295CBA645";
shapes = (
{
closed = 1;
nodes = (
(351,367,ls),
(409,367,o),
(452,403,o),
(461,457,cs),
(470,511,o),
(440,547,o),
(382,547,cs),
(294,547,l),
(202,0,l),
(27,0,l),
(144,700,l),
(407,700,ls),
(569,700,o),
(661,602,o),
(637,457,cs),
(613,312,o),
(488,213,o),
(326,213,cs),
(219,213,l),
(244,367,l)
);
}
);
width = 645;
},
{
layerId = "829015CF-4750-49AF-8B75-DA4E2F394C23";
shapes = (
{
closed = 1;
nodes = (
(332,336,ls),
(422,336,o),
(488,390,o),
(502,473,cs),
(516,555,o),
(468,610,o),
(378,610,cs),
(251,610,l),
(149,0,l),
(43,0,l),
(160,700,l),
(392,700,ls),
(547,700,o),
(632,609,o),
(609,473,cs),
(586,336,o),
(471,244,o),
(317,244,cs),
(172,244,l),
(187,336,l)
);
}
);
width = 623;
},
{
layerId = "803E4031-45E0-466E-BF99-85A631E5C1E1";
shapes = (
{
closed = 1;
nodes = (
(320,317,ls),
(430,317,o),
(510,382,o),
(526,482,cs),
(544,582,o),
(485,647,o),
(375,647,cs),
(225,647,l),
(117,0,l),
(52,0,l),
(169,700,l),
(383,700,ls),
(534,700,o),
(614,613,o),
(592,482,cs),
(570,351,o),
(461,263,o),
(311,263,cs),
(143,263,l),
(152,317,l)
);
}
);
width = 609;
}
);
leftKerningGroup = B;
unicode = 80;
},
{
glyphname = Q;
layers = (
{
layerId = "147A3F7D-7F40-49EB-AD29-5B1295CBA645";
shapes = (
{
closed = 1;
nodes = (
(618,-177,l),
(564,-174,o),
(528,-153,o),
(489,-118,c),
(470,-99,o),
(439,-64,o),
(396,-19,c),
(364,12,l),
(370,55,l),
(458,55,ls),
(505,55,o),
(529,48,o),
(578,23,c),
(666,-19,o),
(697,-27,o),
(730,-29,c)
);
},
{
closed = 1;
nodes = (
(134,-10,o),
(12,135,o),
(48,350,cs),
(84,565,o),
(255,710,o),
(473,710,cs),
(690,710,o),
(813,565,o),
(777,350,cs),
(741,135,o),
(569,-10,o),
(352,-10,cs)
);
},
{
closed = 1;
nodes = (
(492,143,o),
(582,227,o),
(603,350,cs),
(622,473,o),
(560,557,o),
(447,557,cs),
(335,557,o),
(244,473,o),
(224,350,cs),
(203,227,o),
(267,143,o),
(379,143,cs)
);
}
);
width = 819;
},
{
layerId = "829015CF-4750-49AF-8B75-DA4E2F394C23";
shapes = (
{
closed = 1;
nodes = (
(637,-201,l),
(590,-195,o),
(553,-171,o),
(499,-119,cs),
(477,-97,o),
(448,-64,o),
(411,-25,cs),
(378,11,l),
(381,32,l),
(431,32,ls),
(471,32,o),
(498,22,o),
(531,-5,cs),
(609,-70,o),
(663,-103,o),
(701,-110,c)
);
},
{
closed = 1;
nodes = (
(142,-10,o),
(20,135,o),
(56,350,cs),
(92,565,o),
(263,710,o),
(481,710,cs),
(698,710,o),
(821,565,o),
(785,350,cs),
(749,135,o),
(577,-10,o),
(360,-10,cs)
);
},
{
closed = 1;
nodes = (
(530,81,o),
(653,190,o),
(679,350,cs),
(706,511,o),
(619,620,o),
(466,620,cs),
(312,620,o),
(190,511,o),
(163,350,cs),
(136,190,o),
(221,81,o),
(376,81,cs)
);
}
);
width = 824;
},
{
layerId = "803E4031-45E0-466E-BF99-85A631E5C1E1";
shapes = (
{
closed = 1;
nodes = (
(648,-215,l),
(605,-207,o),
(568,-182,o),
(505,-119,cs),
(481,-95,o),
(453,-64,o),
(420,-28,c),
(387,10,l),
(387,18,l),
(415,18,ls),
(451,18,o),
(479,6,o),
(503,-21,cs),
(575,-100,o),
(643,-148,o),
(684,-159,c)
);
},
{
closed = 1;
nodes = (
(147,-10,o),
(25,135,o),
(61,350,cs),
(97,565,o),
(268,710,o),
(486,710,cs),
(703,710,o),
(826,565,o),
(790,350,cs),
(754,135,o),
(582,-10,o),
(365,-10,cs)
);
},
{
closed = 1;
nodes = (
(552,43,o),
(695,167,o),
(725,350,cs),
(756,533,o),
(655,657,o),
(477,657,cs),
(298,657,o),
(157,533,o),
(127,350,cs),
(96,167,o),
(194,43,o),
(374,43,cs)
);
}
);
width = 827;
}
);
leftKerningGroup = C2;
rightKerningGroup = D;
unicode = 81;
},
{
glyphname = R;
layers = (
{
anchors = (
{
name = m.uni0321_3;
position = "{290, 0}";
},
{
name = t.uni0308_1_3;
position = "{384, 699}";
}
);
layerId = "147A3F7D-7F40-49EB-AD29-5B1295CBA645";
shapes = (
{
closed = 1;
nodes = (
(384,316,l),
(514,316,o),
(537,296,o),
(574,204,cs),
(658,0,l),
(452,0,l),
(401,157,ls),
(385,209,o),
(354,233,o),
(283,233,c)
);
},
{
closed = 1;
nodes = (
(385,375,ls),
(439,375,o),
(484,410,o),
(493,460,cs),
(502,514,o),
(470,547,o),
(414,547,cs),
(294,547,l),
(202,0,l),
(27,0,l),
(144,700,l),
(439,700,ls),
(601,700,o),
(694,615,o),
(670,472,cs),
(650,347,o),
(522,278,o),
(403,278,cs),
(386,278,l),
(334,233,l),
(222,233,l),
(246,375,l)
);
}
);
width = 714;
},
{
anchors = (
{
name = m.uni0321_3;
position = "{290, 0}";
},
{
name = t.uni0308_1_3;
position = "{384, 699}";
}
);
layerId = "829015CF-4750-49AF-8B75-DA4E2F394C23";
shapes = (
{
closed = 1;
nodes = (
(348,319,l),
(453,319,o),
(493,297,o),
(525,227,cs),
(627,0,l),
(505,0,l),
(424,192,ls),
(401,247,o),
(377,264,o),
(291,264,c)
);
},
{
closed = 1;
nodes = (
(358,352,ls),
(448,352,o),
(514,406,o),
(528,484,cs),
(541,562,o),
(492,610,o),
(401,610,cs),
(251,610,l),
(149,0,l),
(43,0,l),
(160,700,l),
(416,700,ls),
(572,700,o),
(657,620,o),
(634,488,cs),
(614,362,o),
(499,286,o),
(358,286,cs),
(349,286,l),
(325,264,l),
(175,264,l),
(189,352,l)
);
}
);
width = 691;
},
{
anchors = (
{
name = m.uni0321_3;
position = "{290, 0}";
},
{
name = t.uni0308_1_3;
position = "{384, 699}";
}
);
layerId = "803E4031-45E0-466E-BF99-85A631E5C1E1";
shapes = (
{
closed = 1;
nodes = (
(326,321,l),
(417,321,o),
(467,297,o),
(495,240,cs),
(609,0,l),
(537,0,l),
(437,213,ls),
(410,269,o),
(390,283,o),
(296,283,c)
);
},
{
closed = 1;
nodes = (
(341,338,ls),
(453,338,o),
(532,403,o),
(549,498,cs),
(564,591,o),
(505,647,o),
(393,647,cs),
(225,647,l),
(117,0,l),
(52,0,l),
(169,700,l),
(402,700,ls),
(554,700,o),
(634,623,o),
(613,497,cs),
(592,371,o),
(485,291,o),
(331,291,cs),
(327,291,l),
(319,283,l),
(146,283,l),
(155,338,l)
);
}
);
width = 677;
}
);
leftKerningGroup = B;
rightKerningGroup = R;
unicode = 82;
},
{
glyphname = S;
layers = (
{
anchors = (
{
name = m.uni0321_3;
position = "{244, 0}";
},
{
name = t.uni0308_1_3;
position = "{363, 711}";
}
);
layerId = "147A3F7D-7F40-49EB-AD29-5B1295CBA645";
shapes = (
{
closed = 1;
nodes = (
(295,546,o),
(258,529,o),
(253,500,cs),
(250,480,o),
(280,460,o),
(360,434,cs),
(502,387,o),
(557,314,o),
(539,204,cs),
(520,90,o),
(409,-10,o),
(229,-10,cs),
(139,-10,o),
(53,25,o),
(2,70,c),
(72,237,l),
(128,181,o),
(194,155,o),
(257,155,cs),
(324,155,o),
(357,174,o),
(362,199,c),
(366,225,o),
(343,244,o),
(234,281,cs),
(107,324,o),
(60,396,o),
(76,492,cs),
(96,610,o),
(197,711,o),
(375,711,cs),
(463,711,o),
(538,682,o),
(589,640,c),
(509,491,l),
(461,528,o),
(399,546,o),
(348,546,cs)
);
}
);
width = 589;
},
{
anchors = (
{
name = m.uni0321_3;
position = "{244, 0}";
},
{
name = t.uni0308_1_3;
position = "{363, 711}";
}
);
layerId = "829015CF-4750-49AF-8B75-DA4E2F394C23";
shapes = (
{
closed = 1;
nodes = (
(271,617,o),
(213,577,o),
(203,518,cs),
(194,468,o),
(233,434,o),
(328,407,cs),
(478,363,o),
(539,297,o),
(521,188,cs),
(502,74,o),
(393,-10,o),
(242,-10,cs),
(142,-10,o),
(62,27,o),
(12,83,c),
(70,173,l),
(117,117,o),
(183,85,o),
(258,85,cs),
(344,85,o),
(404,126,o),
(415,187,c),
(423,240,o),
(382,277,o),
(259,315,cs),
(129,354,o),
(79,416,o),
(96,515,cs),
(115,628,o),
(216,711,o),
(364,711,cs),
(456,711,o),
(529,678,o),
(579,627,c),
(519,544,l),
(476,588,o),
(414,617,o),
(349,617,cs)
);
}
);
width = 582;
},
{
anchors = (
{
name = m.uni0321_3;
position = "{244, 0}";
},
{
name = t.uni0308_1_3;
position = "{363, 711}";
}
);
layerId = "803E4031-45E0-466E-BF99-85A631E5C1E1";
shapes = (
{
closed = 1;
nodes = (
(256,659,o),
(186,606,o),
(173,528,cs),
(161,461,o),
(205,418,o),
(309,390,cs),
(463,348,o),
(528,287,o),
(510,179,cs),
(491,65,o),
(384,-10,o),
(249,-10,cs),
(144,-10,o),
(68,28,o),
(18,90,c),
(68,135,l),
(111,79,o),
(177,43,o),
(258,43,cs),
(356,43,o),
(432,97,o),
(446,180,cs),
(457,249,o),
(406,297,o),
(274,335,cs),
(142,372,o),
(91,428,o),
(108,528,cs),
(127,639,o),
(228,711,o),
(358,711,cs),
(451,711,o),
(523,676,o),
(573,619,c),
(525,576,l),
(485,624,o),
(423,659,o),
(349,659,cs)
);
}
);
width = 577;
}
);
leftKerningGroup = S;
rightKerningGroup = S1;
unicode = 83;
},
{
glyphname = T;
layers = (
{
anchors = (
{
name = m.uni0321_3;
position = "{267, 0}";
},
{
name = t.uni0308_1_3;
position = "{386, 700}";
},
{
name = t.uni0335_2;
position = "{329, 360}";
}
);
layerId = "147A3F7D-7F40-49EB-AD29-5B1295CBA645";
shapes = (
{
closed = 1;
nodes = (
(461,623,l),
(357,0,l),
(181,0,l),
(285,623,l)
);
},
{
closed = 1;
nodes = (
(686,700,l),
(661,547,l),
(62,547,l),
(88,700,l)
);
}
);
width = 633;
},
{
anchors = (
{
name = m.uni0321_3;
position = "{267, 0}";
},
{
name = t.uni0308_1_3;
position = "{386, 700}";
},
{
name = t.uni0335_2;
position = "{329, 360}";
}
);
layerId = "829015CF-4750-49AF-8B75-DA4E2F394C23";
shapes = (
{
closed = 1;
nodes = (
(424,654,l),
(315,0,l),
(209,0,l),
(318,654,l)
);
},
{
closed = 1;
nodes = (
(663,700,l),
(648,610,l),
(80,610,l),
(95,700,l)
);
}
);
width = 618;
},
{
anchors = (
{
name = m.uni0321_3;
position = "{267, 0}";
},
{
name = t.uni0308_1_3;
position = "{386, 700}";
},
{
name = t.uni0335_2;
position = "{329, 360}";
}
);
layerId = "803E4031-45E0-466E-BF99-85A631E5C1E1";
shapes = (
{
closed = 1;
nodes = (
(402,673,l),
(290,0,l),
(225,0,l),
(338,673,l)
);
},
{
closed = 1;
nodes = (
(649,700,l),
(640,647,l),
(90,647,l),
(99,700,l)
);
}
);
width = 609;
}
);
leftKerningGroup = T;
rightKerningGroup = T2;
unicode = 84;
},
{
glyphname = U;
layers = (
{
anchors = (
{
name = m.uni0321_3;
position = "{338, 0}";
},
{
name = t.uni0308_1_3;
position = "{455, 700}";
},
{
name = m.uni0328_3;
position = "{336, -10}";
},
{
name = t.uni031B_3;
position = "{739, 700}";
}
);
layerId = "147A3F7D-7F40-49EB-AD29-5B1295CBA645";
shapes = (
{
closed = 1;
nodes = (
(714,312,ls),
(679,109,o),
(539,-10,o),
(338,-10,cs),
(137,-10,o),
(38,109,o),
(73,312,cs),
(137,700,l),
(312,700,l),
(247,312,ls),
(229,205,o),
(273,143,o),
(364,143,cs),
(456,143,o),
(520,205,o),
(538,312,cs),
(602,700,l),
(778,700,l)
);
}
);
width = 776;
},
{
anchors = (
{
name = m.uni0321_3;
position = "{338, 0}";
},
{
name = t.uni0308_1_3;
position = "{455, 700}";
},
{
name = m.uni0328_3;
position = "{336, -10}";
},
{
name = t.uni031B_3;
position = "{739, 700}";
}
);
layerId = "829015CF-4750-49AF-8B75-DA4E2F394C23";
shapes = (
{
closed = 1;
nodes = (
(678,296,ls),
(647,103,o),
(517,-10,o),
(329,-10,cs),
(142,-10,o),
(51,103,o),
(83,296,cs),
(150,700,l),
(257,700,l),
(190,296,ls),
(167,161,o),
(224,81,o),
(344,81,cs),
(465,81,o),
(549,161,o),
(572,296,cs),
(639,700,l),
(746,700,l)
);
}
);
width = 757;
},
{
anchors = (
{
name = m.uni0321_3;
position = "{338, 0}";
},
{
name = t.uni0308_1_3;
position = "{455, 700}";
},
{
name = m.uni0328_3;
position = "{336, -10}";
},
{
name = t.uni031B_3;
position = "{739, 700}";
}
);
layerId = "803E4031-45E0-466E-BF99-85A631E5C1E1";
shapes = (
{
closed = 1;
nodes = (
(657,287,ls),
(627,100,o),
(503,-10,o),
(323,-10,cs),
(145,-10,o),
(58,100,o),
(89,287,cs),
(158,700,l),
(224,700,l),
(155,287,ls),
(129,135,o),
(194,43,o),
(332,43,cs),
(471,43,o),
(566,135,o),
(592,287,cs),
(661,700,l),
(727,700,l)
);
}
);
width = 746;
}
);
leftKerningGroup = U2;
rightKerningGroup = U;
unicode = 85;
},
{
glyphname = V;
layers = (
{
layerId = "147A3F7D-7F40-49EB-AD29-5B1295CBA645";
shapes = (
{
closed = 1;
nodes = (
(821,700,l),
(430,0,l),
(234,0,l),
(77,700,l),
(285,700,l),
(364,194,l),
(613,700,l)
);
}
);
width = 760;
},
{
layerId = "829015CF-4750-49AF-8B75-DA4E2F394C23";
shapes = (
{
closed = 1;
nodes = (
(760,700,l),
(368,0,l),
(242,0,l),
(85,700,l),
(209,700,l),
(323,107,l),
(636,700,l)
);
}
);
width = 706;
},
{
layerId = "803E4031-45E0-466E-BF99-85A631E5C1E1";
shapes = (
{
closed = 1;
nodes = (
(724,700,l),
(331,0,l),
(247,0,l),
(90,700,l),
(163,700,l),
(299,55,l),
(649,700,l)
);
}
);
width = 673;
}
);
leftKerningGroup = V;
rightKerningGroup = V2;
unicode = 86;
},
{
glyphname = W;
layers = (
{
anchors = (
{
name = m.uni0321_3;
position = "{520, 0}";
},
{
name = t.uni0308_1_3;
position = "{640, 700}";
}
);
layerId = "147A3F7D-7F40-49EB-AD29-5B1295CBA645";
shapes = (
{
closed = 1;
nodes = (
(1212,700,l),
(867,0,l),
(649,0,l),
(610,498,l),
(406,0,l),
(188,0,l),
(77,700,l),
(285,700,l),
(335,194,l),
(546,700,l),
(743,700,l),
(784,194,l),
(1004,700,l)
);
}
);
width = 1150;
},
{
anchors = (
{
name = m.uni0321_3;
position = "{520, 0}";
},
{
name = t.uni0308_1_3;
position = "{640, 700}";
}
);
layerId = "829015CF-4750-49AF-8B75-DA4E2F394C23";
shapes = (
{
closed = 1;
nodes = (
(1158,700,l),
(801,0,l),
(668,0,l),
(600,574,l),
(341,0,l),
(207,0,l),
(85,700,l),
(209,700,l),
(294,111,l),
(562,700,l),
(681,700,l),
(753,111,l),
(1034,700,l)
);
}
);
width = 1104;
},
{
anchors = (
{
name = m.uni0321_3;
position = "{520, 0}";
},
{
name = t.uni0308_1_3;
position = "{640, 700}";
}
);
layerId = "803E4031-45E0-466E-BF99-85A631E5C1E1";
shapes = (
{
closed = 1;
nodes = (
(1125,700,l),
(762,0,l),
(679,0,l),
(594,619,l),
(302,0,l),
(219,0,l),
(90,700,l),
(163,700,l),
(269,61,l),
(571,700,l),
(644,700,l),
(734,61,l),
(1052,700,l)
);
}
);
width = 1076;
}
);
leftKerningGroup = V;
rightKerningGroup = V2;
unicode = 87;
},
{
glyphname = X;
layers = (
{
layerId = "147A3F7D-7F40-49EB-AD29-5B1295CBA645";
shapes = (
{
closed = 1;
nodes = (
(533,360,l),
(747,0,l),
(531,0,l),
(396,248,l),
(177,0,l),
(-39,0,l),
(295,360,l),
(97,700,l),
(313,700,l),
(433,472,l),
(629,700,l),
(845,700,l)
);
}
);
width = 803;
},
{
layerId = "829015CF-4750-49AF-8B75-DA4E2F394C23";
shapes = (
{
closed = 1;
nodes = (
(449,360,l),
(663,0,l),
(531,0,l),
(365,295,l),
(101,0,l),
(-31,0,l),
(303,360,l),
(105,700,l),
(237,700,l),
(387,425,l),
(629,700,l),
(761,700,l)
);
}
);
width = 727;
},
{
layerId = "803E4031-45E0-466E-BF99-85A631E5C1E1";
shapes = (
{
closed = 1;
nodes = (
(398,360,l),
(612,0,l),
(531,0,l),
(347,323,l),
(55,0,l),
(-26,0,l),
(308,360,l),
(110,700,l),
(191,700,l),
(359,396,l),
(629,700,l),
(710,700,l)
);
}
);
width = 681;
}
);
unicode = 88;
},
{
glyphname = Y;
layers = (
{
anchors = (
{
name = m.uni0321_3;
position = "{298, 0}";
},
{
name = t.uni0308_1_3;
position = "{415, 700}";
}
);
layerId = "147A3F7D-7F40-49EB-AD29-5B1295CBA645";
shapes = (
{
closed = 1;
nodes = (
(444,318,l),
(271,318,l),
(78,700,l),
(294,700,l),
(385,485,l),
(547,700,l),
(763,700,l)
);
},
{
closed = 1;
nodes = (
(445,318,l),
(391,0,l),
(216,0,l),
(270,318,l)
);
}
);
width = 702;
},
{
anchors = (
{
name = m.uni0321_3;
position = "{298, 0}";
},
{
name = t.uni0308_1_3;
position = "{415, 700}";
}
);
layerId = "829015CF-4750-49AF-8B75-DA4E2F394C23";
shapes = (
{
closed = 1;
nodes = (
(380,326,l),
(276,326,l),
(86,700,l),
(218,700,l),
(345,429,l),
(563,700,l),
(694,700,l)
);
},
{
closed = 1;
nodes = (
(381,326,l),
(326,0,l),
(220,0,l),
(275,326,l)
);
}
);
width = 641;
},
{
anchors = (
{
name = m.uni0321_3;
position = "{298, 0}";
},
{
name = t.uni0308_1_3;
position = "{415, 700}";
}
);
layerId = "803E4031-45E0-466E-BF99-85A631E5C1E1";
shapes = (
{
closed = 1;
nodes = (
(341,331,l),
(279,331,l),
(91,700,l),
(172,700,l),
(321,396,l),
(572,700,l),
(653,700,l)
);
},
{
closed = 1;
nodes = (
(342,331,l),
(287,0,l),
(222,0,l),
(278,331,l)
);
}
);
width = 605;
}
);
leftKerningGroup = Y;
rightKerningGroup = Y2;
unicode = 89;
},
{
glyphname = Z;
layers = (
{
anchors = (
{
name = m.uni0321_3;
position = "{290, 0}";
},
{
name = t.uni0308_1_3;
position = "{387, 700}";
}
);
layerId = "147A3F7D-7F40-49EB-AD29-5B1295CBA645";
shapes = (
{
closed = 1;
nodes = (
(569,153,l),
(544,0,l),
(-9,0,l),
(13,132,l),
(396,547,l),
(93,547,l),
(118,700,l),
(641,700,l),
(619,568,l),
(238,153,l)
);
}
);
width = 630;
},
{
anchors = (
{
name = m.uni0321_3;
position = "{290, 0}";
},
{
name = t.uni0308_1_3;
position = "{387, 700}";
}
);
layerId = "829015CF-4750-49AF-8B75-DA4E2F394C23";
shapes = (
{
closed = 1;
nodes = (
(559,91,l),
(544,0,l),
(-9,0,l),
(4,77,l),
(492,610,l),
(103,610,l),
(118,700,l),
(641,700,l),
(628,623,l),
(141,91,l)
);
}
);
width = 630;
},
{
anchors = (
{
name = m.uni0321_3;
position = "{290, 0}";
},
{
name = t.uni0308_1_3;
position = "{387, 700}";
}
);
layerId = "803E4031-45E0-466E-BF99-85A631E5C1E1";
shapes = (
{
closed = 1;
nodes = (
(553,53,l),
(544,0,l),
(-9,0,l),
(-2,44,l),
(549,647,l),
(109,647,l),
(118,700,l),
(641,700,l),
(634,656,l),
(83,53,l)
);
}
);
width = 630;
}
);
leftKerningGroup = Z;
rightKerningGroup = Z1;
unicode = 90;
},
{
glyphname = a;
layers = (
{
anchors = (
{
name = t.uni0308_1_3;
position = "{342, 500}";
},
{
name = b.uni0321;
position = "{166, 0}";
},
{
name = m.uni0328_2;
position = "{422, -3}";
}
);
layerId = "147A3F7D-7F40-49EB-AD29-5B1295CBA645";
shapes = (
{
closed = 1;
nodes = (
(271,101,l),
(303,295,ls),
(311,343,o),
(289,368,o),
(237,368,cs),
(194,368,o),
(141,356,o),
(88,332,c),
(73,462,l),
(142,493,o),
(224,510,o),
(302,510,cs),
(429,510,o),
(491,435,o),
(469,305,cs),
(418,0,l),
(265,0,l)
);
},
{
closed = 1;
nodes = (
(203,226,o),
(173,201,o),
(167,166,cs),
(161,131,o),
(184,107,o),
(222,107,cs),
(254,107,o),
(277,137,o),
(285,186,c),
(317,186,l),
(296,59,o),
(234,-11,o),
(137,-11,cs),
(39,-11,o),
(-15,55,o),
(3,155,c),
(17,247,o),
(103,310,o),
(213,310,cs),
(253,310,o),
(288,304,o),
(315,294,c),
(300,210,l),
(280,222,o),
(266,226,o),
(241,226,cs)
);
}
);
width = 511;
},
{
anchors = (
{
name = t.uni0308_1_3;
position = "{297, 500}";
},
{
name = b.uni0321;
position = "{163, 0}";
},
{
name = m.uni0328_2;
position = "{363, 13}";
}
);
layerId = "829015CF-4750-49AF-8B75-DA4E2F394C23";
shapes = (
{
closed = 1;
nodes = (
(305,97,l),
(341,319,l),
(354,389,o),
(323,423,o),
(248,423,cs),
(201,423,o),
(144,404,o),
(97,373,c),
(75,453,l),
(139,490,o),
(215,510,o),
(290,510,cs),
(407,510,o),
(465,443,o),
(446,329,cs),
(391,0,l),
(292,0,l)
);
},
{
closed = 1;
nodes = (
(160,242,o),
(117,209,o),
(108,155,cs),
(99,104,o),
(134,69,o),
(194,69,cs),
(261,69,o),
(306,108,o),
(317,175,c),
(350,175,l),
(331,58,o),
(259,-10,o),
(153,-10,cs),
(48,-10,o),
(-12,54,o),
(5,152,cs),
(20,247,o),
(103,307,o),
(220,307,cs),
(277,307,o),
(304,300,o),
(347,275,c),
(336,210,l),
(305,233,o),
(272,242,o),
(223,242,cs)
);
}
);
width = 499;
},
{
anchors = (
{
name = t.uni0308_1_3;
position = "{270, 500}";
},
{
name = b.uni0321;
position = "{161, 0}";
},
{
name = m.uni0328_2;
position = "{328, 22}";
}
);
layerId = "803E4031-45E0-466E-BF99-85A631E5C1E1";
shapes = (
{
closed = 1;
nodes = (
(325,94,l),
(364,333,ls),
(379,416,o),
(343,456,o),
(255,456,cs),
(205,456,o),
(146,433,o),
(102,398,c),
(76,448,l),
(137,488,o),
(210,510,o),
(283,510,cs),
(394,510,o),
(449,448,o),
(432,343,cs),
(374,0,l),
(308,0,l)
);
},
{
closed = 1;
nodes = (
(134,252,o),
(84,214,o),
(73,149,cs),
(62,87,o),
(104,46,o),
(177,46,cs),
(265,46,o),
(324,91,o),
(336,169,c),
(370,169,l),
(352,57,o),
(274,-10,o),
(162,-10,cs),
(53,-10,o),
(-10,54,o),
(6,150,cs),
(22,247,o),
(103,305,o),
(224,305,cs),
(291,305,o),
(314,298,o),
(366,263,c),
(358,210,l),
(320,239,o),
(276,252,o),
(212,252,cs)
);
}
);
width = 492;
}
);
leftKerningGroup = a2;
rightKerningGroup = a;
unicode = 97;
},
{
glyphname = b;
layers = (
{
layerId = "147A3F7D-7F40-49EB-AD29-5B1295CBA645";
shapes = (
{
closed = 1;
nodes = (
(243,425,l),
(184,250,l),
(184,74,l),
(160,0,l),
(8,0,l),
(135,760,l),
(299,760,l)
);
},
{
closed = 1;
nodes = (
(518,510,o),
(599,405,o),
(573,250,cs),
(547,95,o),
(431,-10,o),
(295,-10,cs),
(177,-10,o),
(123,94,o),
(149,250,cs),
(175,406,o),
(264,510,o),
(382,510,cs)
);
},
{
closed = 1;
nodes = (
(348,132,o),
(397,180,o),
(409,250,cs),
(421,322,o),
(388,368,o),
(327,368,cs),
(265,368,o),
(216,322,o),
(204,250,cs),
(192,180,o),
(225,132,o),
(287,132,cs)
);
}
);
width = 605;
},
{
layerId = "829015CF-4750-49AF-8B75-DA4E2F394C23";
shapes = (
{
closed = 1;
nodes = (
(193,402,l),
(138,250,l),
(142,98,l),
(122,0,l),
(23,0,l),
(150,760,l),
(253,760,l)
);
},
{
closed = 1;
nodes = (
(529,510,o),
(615,405,o),
(589,250,cs),
(563,95,o),
(442,-10,o),
(295,-10,cs),
(158,-10,o),
(85,95,o),
(111,250,cs),
(137,405,o),
(245,510,o),
(382,510,cs)
);
},
{
closed = 1;
nodes = (
(391,77,o),
(468,146,o),
(485,250,cs),
(503,354,o),
(449,423,o),
(351,423,cs),
(253,423,o),
(175,354,o),
(158,250,cs),
(141,146,o),
(194,77,o),
(293,77,cs)
);
}
);
width = 635;
},
{
layerId = "803E4031-45E0-466E-BF99-85A631E5C1E1";
shapes = (
{
closed = 1;
nodes = (
(163,388,l),
(110,250,l),
(117,112,l),
(99,0,l),
(32,0,l),
(159,760,l),
(225,760,l)
);
},
{
closed = 1;
nodes = (
(536,510,o),
(624,405,o),
(598,250,cs),
(572,95,o),
(449,-10,o),
(295,-10,cs),
(146,-10,o),
(62,95,o),
(88,250,cs),
(114,405,o),
(233,510,o),
(382,510,cs)
);
},
{
closed = 1;
nodes = (
(417,44,o),
(511,126,o),
(531,250,cs),
(552,373,o),
(486,456,o),
(365,456,cs),
(245,456,o),
(151,373,o),
(130,250,cs),
(110,126,o),
(176,44,o),
(296,44,cs)
);
}
);
width = 653;
}
);
rightKerningGroup = b;
unicode = 98;
},
{
glyphname = c;
layers = (
{
anchors = (
{
name = m.uni0321_3;
position = "{248, 0}";
},
{
name = t.uni0308_1_3;
position = "{330, 500}";
}
);
layerId = "147A3F7D-7F40-49EB-AD29-5B1295CBA645";
shapes = (
{
closed = 1;
nodes = (
(455,74,l),
(403,23,o),
(332,-10,o),
(243,-10,cs),
(84,-10,o),
(-6,95,o),
(20,250,cs),
(46,405,o),
(171,510,o),
(330,510,cs),
(417,510,o),
(473,484,o),
(513,446,c),
(412,331,l),
(391,353,o),
(356,368,o),
(319,368,cs),
(251,368,o),
(196,322,o),
(184,250,cs),
(172,180,o),
(210,132,o),
(278,132,cs),
(320,132,o),
(370,153,o),
(399,183,c)
);
}
);
width = 510;
},
{
anchors = (
{
name = m.uni0321_3;
position = "{248, 0}";
},
{
name = t.uni0308_1_3;
position = "{330, 500}";
}
);
layerId = "829015CF-4750-49AF-8B75-DA4E2F394C23";
shapes = (
{
closed = 1;
nodes = (
(477,81,l),
(423,24,o),
(345,-10,o),
(259,-10,cs),
(100,-10,o),
(10,95,o),
(36,250,cs),
(62,405,o),
(187,510,o),
(346,510,cs),
(431,510,o),
(499,473,o),
(537,415,c),
(468,351,l),
(442,396,o),
(393,423,o),
(335,423,cs),
(234,423,o),
(156,354,o),
(138,250,cs),
(121,146,o),
(176,77,o),
(277,77,cs),
(333,77,o),
(394,103,o),
(434,146,c)
);
}
);
width = 549;
},
{
anchors = (
{
name = m.uni0321_3;
position = "{248, 0}";
},
{
name = t.uni0308_1_3;
position = "{330, 500}";
}
);
layerId = "803E4031-45E0-466E-BF99-85A631E5C1E1";
shapes = (
{
closed = 1;
nodes = (
(490,85,l),
(435,24,o),
(352,-10,o),
(268,-10,cs),
(109,-10,o),
(19,95,o),
(45,250,cs),
(71,405,o),
(196,510,o),
(355,510,cs),
(440,510,o),
(514,467,o),
(551,396,c),
(502,363,l),
(472,421,o),
(415,456,o),
(345,456,cs),
(224,456,o),
(132,373,o),
(111,250,cs),
(91,126,o),
(155,44,o),
(276,44,cs),
(341,44,o),
(408,73,o),
(455,123,c)
);
}
);
width = 572;
}
);
leftKerningGroup = a2;
rightKerningGroup = c;
unicode = 99;
},
{
glyphname = d;
layers = (
{
anchors = (
{
name = m.uni0321_3;
position = "{267, 0}";
},
{
name = t.uni0308_1_3;
position = "{306, 552}";
},
{
name = t.uni0335_2;
position = "{531, 617}";
},
{
name = t.uni031B_3;
position = "{772, 760}";
}
);
layerId = "147A3F7D-7F40-49EB-AD29-5B1295CBA645";
shapes = (
{
closed = 1;
nodes = (
(350,74,l),
(409,250,l),
(409,425,l),
(465,760,l),
(629,760,l),
(502,0,l),
(349,0,l)
);
},
{
closed = 1;
nodes = (
(414,510,o),
(470,406,o),
(444,250,cs),
(418,94,o),
(327,-10,o),
(205,-10,cs),
(72,-10,o),
(-6,95,o),
(20,250,cs),
(46,405,o),
(159,510,o),
(292,510,cs)
);
},
{
closed = 1;
nodes = (
(329,132,o),
(378,180,o),
(390,250,cs),
(402,322,o),
(369,368,o),
(307,368,cs),
(245,368,o),
(196,322,o),
(184,250,cs),
(172,180,o),
(205,132,o),
(267,132,cs)
);
}
);
width = 605;
},
{
anchors = (
{
name = m.uni0321_3;
position = "{267, 0}";
},
{
name = t.uni0308_1_3;
position = "{306, 552}";
},
{
name = t.uni0335_2;
position = "{531, 617}";
},
{
name = t.uni031B_3;
position = "{772, 760}";
}
);
layerId = "829015CF-4750-49AF-8B75-DA4E2F394C23";
shapes = (
{
closed = 1;
nodes = (
(431,98,l),
(486,250,l),
(482,402,l),
(541,760,l),
(644,760,l),
(517,0,l),
(418,0,l)
);
},
{
closed = 1;
nodes = (
(465,510,o),
(539,405,o),
(513,250,cs),
(487,95,o),
(378,-10,o),
(239,-10,cs),
(93,-10,o),
(10,95,o),
(36,250,cs),
(62,405,o),
(180,510,o),
(326,510,cs)
);
},
{
closed = 1;
nodes = (
(372,77,o),
(449,146,o),
(466,250,cs),
(484,354,o),
(429,423,o),
(331,423,cs),
(233,423,o),
(156,354,o),
(138,250,cs),
(121,146,o),
(174,77,o),
(273,77,cs)
);
}
);
width = 635;
},
{
anchors = (
{
name = m.uni0321_3;
position = "{267, 0}";
},
{
name = t.uni0308_1_3;
position = "{306, 552}";
},
{
name = t.uni0335_2;
position = "{531, 617}";
},
{
name = t.uni031B_3;
position = "{772, 760}";
}
);
layerId = "803E4031-45E0-466E-BF99-85A631E5C1E1";
shapes = (
{
closed = 1;
nodes = (
(479,112,l),
(532,250,l),
(525,388,l),
(587,760,l),
(653,760,l),
(526,0,l),
(459,0,l)
);
},
{
closed = 1;
nodes = (
(495,510,o),
(580,405,o),
(554,250,cs),
(528,95,o),
(408,-10,o),
(260,-10,cs),
(105,-10,o),
(19,95,o),
(45,250,cs),
(71,405,o),
(192,510,o),
(347,510,cs)
);
},
{
closed = 1;
nodes = (
(397,44,o),
(492,126,o),
(512,250,cs),
(533,373,o),
(465,456,o),
(346,456,cs),
(225,456,o),
(132,373,o),
(111,250,cs),
(91,126,o),
(156,44,o),
(277,44,cs)
);
}
);
width = 653;
}
);
leftKerningGroup = a2;
rightKerningGroup = d1;
unicode = 100;
},
{
glyphname = e;
layers = (
{
anchors = (
{
name = m.uni0321_3;
position = "{257, 0}";
},
{
name = t.uni0308_1_3;
position = "{332, 500}";
},
{
name = m.uni0328_3;
position = "{255, -10}";
}
);
layerId = "147A3F7D-7F40-49EB-AD29-5B1295CBA645";
shapes = (
{
closed = 1;
nodes = (
(425,303,l),
(383,257,l),
(386,267,o),
(388,274,o),
(389,280,cs),
(398,336,o),
(365,368,o),
(309,368,cs),
(247,368,o),
(198,325,o),
(186,258,cs),
(183,240,ls),
(172,177,o),
(218,131,o),
(299,132,c),
(354,131,o),
(401,148,o),
(446,177,c),
(478,62,l),
(419,16,o),
(344,-10,o),
(254,-10,cs),
(88,-10,o),
(-6,95,o),
(20,250,cs),
(46,405,o),
(171,510,o),
(331,510,cs),
(478,510,o),
(566,401,o),
(541,248,cs),
(536,219,l),
(147,219,l),
(161,303,l)
);
}
);
width = 572;
},
{
anchors = (
{
name = m.uni0321_3;
position = "{257, 0}";
},
{
name = t.uni0308_1_3;
position = "{332, 500}";
},
{
name = m.uni0328_3;
position = "{255, -10}";
}
);
layerId = "829015CF-4750-49AF-8B75-DA4E2F394C23";
shapes = (
{
closed = 1;
nodes = (
(491,287,l),
(445,258,l),
(447,265,o),
(448,271,o),
(449,276,cs),
(464,365,o),
(415,423,o),
(325,423,cs),
(230,423,o),
(157,359,o),
(140,262,cs),
(136,237,ls),
(121,141,o),
(184,78,o),
(290,77,c),
(352,78,o),
(412,102,o),
(457,141,c),
(487,73,l),
(433,22,o),
(351,-10,o),
(262,-10,cs),
(101,-10,o),
(10,95,o),
(36,250,cs),
(62,405,o),
(184,510,o),
(339,510,cs),
(486,510,o),
(572,407,o),
(547,256,cs),
(541,223,l),
(99,223,l),
(110,287,l)
);
}
);
width = 591;
},
{
anchors = (
{
name = m.uni0321_3;
position = "{257, 0}";
},
{
name = t.uni0308_1_3;
position = "{332, 500}";
},
{
name = m.uni0328_3;
position = "{255, -10}";
}
);
layerId = "803E4031-45E0-466E-BF99-85A631E5C1E1";
shapes = (
{
closed = 1;
nodes = (
(531,278,l),
(482,258,l),
(484,263,o),
(484,269,o),
(485,274,cs),
(504,383,o),
(445,456,o),
(335,456,cs),
(219,456,o),
(133,380,o),
(113,264,cs),
(108,235,ls),
(90,120,o),
(163,46,o),
(284,44,c),
(350,46,o),
(418,74,o),
(464,119,c),
(493,80,l),
(442,25,o),
(355,-10,o),
(267,-10,cs),
(108,-10,o),
(19,95,o),
(45,250,cs),
(71,405,o),
(191,510,o),
(344,510,cs),
(491,510,o),
(575,411,o),
(550,261,cs),
(544,225,l),
(70,225,l),
(79,278,l)
);
}
);
width = 603;
}
);
leftKerningGroup = a2;
rightKerningGroup = e;
unicode = 101;
},
{
glyphname = f;
layers = (
{
layerId = "147A3F7D-7F40-49EB-AD29-5B1295CBA645";
shapes = (
{
closed = 1;
nodes = (
(151,553,ls),
(174,689,o),
(260,760,o),
(400,760,cs),
(432,760,o),
(458,755,o),
(481,750,c),
(457,607,l),
(435,615,o),
(416,618,o),
(398,618,cs),
(349,618,o),
(322,592,o),
(313,542,cs),
(223,0,l),
(58,0,l)
);
},
{
closed = 1;
nodes = (
(44,500,l),
(429,500,l),
(405,358,l),
(20,358,l)
);
}
);
width = 410;
},
{
layerId = "829015CF-4750-49AF-8B75-DA4E2F394C23";
shapes = (
{
closed = 1;
nodes = (
(164,584,ls),
(183,700,o),
(256,760,o),
(377,760,cs),
(403,760,o),
(431,755,o),
(450,750,c),
(435,662,l),
(416,669,o),
(389,673,o),
(369,673,cs),
(310,673,o),
(276,642,o),
(266,581,cs),
(169,0,l),
(66,0,l)
);
},
{
closed = 1;
nodes = (
(52,500,l),
(398,500,l),
(384,413,l),
(38,413,l)
);
}
);
width = 387;
},
{
layerId = "803E4031-45E0-466E-BF99-85A631E5C1E1";
shapes = (
{
closed = 1;
nodes = (
(171,603,ls),
(189,706,o),
(254,760,o),
(363,760,cs),
(385,760,o),
(414,755,o),
(432,750,c),
(422,695,l),
(404,701,o),
(373,706,o),
(352,706,cs),
(287,706,o),
(249,672,o),
(237,604,cs),
(136,0,l),
(71,0,l)
);
},
{
closed = 1;
nodes = (
(57,500,l),
(380,500,l),
(371,446,l),
(48,446,l)
);
}
);
width = 373;
}
);
leftKerningGroup = f2;
rightKerningGroup = f;
unicode = 102;
},
{
glyphname = g;
layers = (
{
layerId = "147A3F7D-7F40-49EB-AD29-5B1295CBA645";
shapes = (
{
closed = 1;
nodes = (
(265,-133,o),
(295,-118,o),
(300,-85,cs),
(306,-52,o),
(280,-37,o),
(215,-37,cs),
(149,-37,o),
(116,-52,o),
(111,-85,cs),
(105,-118,o),
(133,-133,o),
(199,-133,cs)
);
},
{
closed = 1;
nodes = (
(402,510,o),
(499,447,o),
(479,330,cs),
(461,223,o),
(373,160,o),
(238,160,cs),
(103,160,o),
(33,223,o),
(51,330,cs),
(69,437,o),
(163,510,o),
(296,510,cs)
);
},
{
closed = 1;
nodes = (
(292,268,o),
(314,288,o),
(320,318,c),
(325,349,o),
(308,368,o),
(273,368,cs),
(238,368,o),
(213,349,o),
(208,318,c),
(202,288,o),
(221,268,o),
(256,268,cs)
);
},
{
closed = 1;
nodes = (
(557,358,l),
(502,358,o),
(455,354,o),
(413,342,c),
(398,407,l),
(459,485,o),
(488,500,o),
(581,500,c)
);
},
{
closed = 1;
nodes = (
(239,105,ls),
(416,105,o),
(498,48,o),
(481,-56,cs),
(461,-172,o),
(356,-240,o),
(181,-240,cs),
(3,-240,o),
(-70,-177,o),
(-55,-90,cs),
(-43,-18,o),
(15,20,o),
(80,32,c),
(29,41,o),
(6,74,o),
(14,121,cs),
(22,171,o),
(79,209,o),
(146,222,c),
(210,179,l),
(191,166,o),
(178,153,o),
(175,136,cs),
(172,119,o),
(187,105,o),
(213,105,cs)
);
}
);
width = 544;
},
{
layerId = "829015CF-4750-49AF-8B75-DA4E2F394C23";
shapes = (
{
closed = 1;
nodes = (
(281,-164,o),
(338,-136,o),
(346,-85,cs),
(355,-34,o),
(308,-6,o),
(213,-6,cs),
(121,-6,o),
(65,-34,o),
(57,-85,cs),
(48,-136,o),
(94,-164,o),
(186,-164,cs)
);
},
{
closed = 1;
nodes = (
(395,510,o),
(484,448,o),
(464,330,cs),
(446,223,o),
(360,160,o),
(230,160,cs),
(101,160,o),
(33,223,o),
(51,330,cs),
(70,441,o),
(159,510,o),
(288,510,cs)
);
},
{
closed = 1;
nodes = (
(308,229,o),
(353,266,o),
(363,326,cs),
(373,387,o),
(340,423,o),
(274,423,cs),
(207,423,o),
(162,387,o),
(152,326,cs),
(142,266,o),
(175,229,o),
(241,229,cs)
);
},
{
closed = 1;
nodes = (
(558,413,l),
(498,413,o),
(460,404,o),
(414,376,c),
(394,420,l),
(452,482,o),
(488,500,o),
(573,500,c)
);
},
{
closed = 1;
nodes = (
(227,82,ls),
(389,82,o),
(471,24,o),
(455,-75,cs),
(438,-179,o),
(335,-240,o),
(173,-240,cs),
(14,-240,o),
(-63,-183,o),
(-47,-90,cs),
(-36,-23,o),
(25,22,o),
(104,33,c),
(45,41,o),
(17,70,o),
(25,117,cs),
(32,162,o),
(79,199,o),
(137,211,c),
(174,181,l),
(149,170,o),
(131,152,o),
(128,130,cs),
(123,100,o),
(140,82,o),
(179,82,cs)
);
}
);
width = 543;
},
{
layerId = "803E4031-45E0-466E-BF99-85A631E5C1E1";
shapes = (
{
closed = 1;
nodes = (
(291,-183,o),
(364,-147,o),
(374,-85,cs),
(384,-23,o),
(324,13,o),
(211,13,cs),
(104,13,o),
(35,-23,o),
(24,-85,cs),
(14,-147,o),
(71,-183,o),
(178,-183,cs)
);
},
{
closed = 1;
nodes = (
(390,510,o),
(475,448,o),
(455,330,cs),
(437,223,o),
(352,160,o),
(225,160,cs),
(99,160,o),
(33,223,o),
(51,330,cs),
(70,443,o),
(157,510,o),
(283,510,cs)
);
},
{
closed = 1;
nodes = (
(318,206,o),
(376,253,o),
(389,331,cs),
(402,409,o),
(359,456,o),
(274,456,cs),
(189,456,o),
(132,409,o),
(118,331,cs),
(106,253,o),
(147,206,o),
(232,206,cs)
);
},
{
closed = 1;
nodes = (
(559,446,l),
(495,446,o),
(463,434,o),
(414,396,c),
(391,428,l),
(447,480,o),
(488,500,o),
(568,500,c)
);
},
{
closed = 1;
nodes = (
(220,68,ls),
(373,68,o),
(455,9,o),
(439,-87,cs),
(424,-183,o),
(322,-240,o),
(168,-240,cs),
(21,-240,o),
(-58,-186,o),
(-42,-90,cs),
(-31,-26,o),
(31,23,o),
(118,34,c),
(55,41,o),
(23,68,o),
(31,115,cs),
(38,156,o),
(79,193,o),
(131,205,c),
(152,182,l),
(124,172,o),
(103,151,o),
(99,126,cs),
(93,89,o),
(112,68,o),
(158,68,cs)
);
}
);
width = 542;
}
);
leftKerningGroup = a2;
rightKerningGroup = g;
unicode = 103;
},
{
glyphname = h;
layers = (
{
anchors = (
{
name = m.uni0321_3;
position = "{257, 0}";
},
{
name = t.uni0308_1_3;
position = "{213, 760}";
},
{
name = t.uni0335_2;
position = "{199, 617}";
}
);
layerId = "147A3F7D-7F40-49EB-AD29-5B1295CBA645";
shapes = (
{
closed = 1;
nodes = (
(135,760,l),
(299,760,l),
(172,0,l),
(8,0,l)
);
},
{
closed = 1;
nodes = (
(384,278,ls),
(393,331,o),
(374,368,o),
(320,368,cs),
(265,368,o),
(227,328,o),
(217,268,c),
(172,268,l),
(198,423,o),
(298,510,o),
(410,510,cs),
(517,510,o),
(573,428,o),
(554,313,cs),
(502,0,l),
(338,0,l)
);
}
);
width = 594;
},
{
anchors = (
{
name = m.uni0321_3;
position = "{257, 0}";
},
{
name = t.uni0308_1_3;
position = "{213, 760}";
},
{
name = t.uni0335_2;
position = "{199, 617}";
}
);
layerId = "829015CF-4750-49AF-8B75-DA4E2F394C23";
shapes = (
{
closed = 1;
nodes = (
(150,760,l),
(253,760,l),
(126,0,l),
(23,0,l)
);
},
{
closed = 1;
nodes = (
(416,286,ls),
(431,379,o),
(396,423,o),
(329,423,cs),
(261,423,o),
(190,379,o),
(172,276,c),
(135,276,l),
(162,437,o),
(264,510,o),
(372,510,cs),
(480,510,o),
(544,437,o),
(522,297,cs),
(471,0,l),
(368,0,l)
);
}
);
width = 578;
},
{
anchors = (
{
name = m.uni0321_3;
position = "{257, 0}";
},
{
name = t.uni0308_1_3;
position = "{213, 760}";
},
{
name = t.uni0335_2;
position = "{199, 617}";
}
);
layerId = "803E4031-45E0-466E-BF99-85A631E5C1E1";
shapes = (
{
closed = 1;
nodes = (
(159,760,l),
(225,760,l),
(98,0,l),
(32,0,l)
);
},
{
closed = 1;
nodes = (
(435,291,ls),
(454,407,o),
(409,456,o),
(334,456,cs),
(258,456,o),
(167,409,o),
(145,281,c),
(113,281,l),
(140,446,o),
(244,510,o),
(349,510,cs),
(458,510,o),
(527,442,o),
(502,288,cs),
(453,0,l),
(386,0,l)
);
}
);
width = 569;
}
);
leftKerningGroup = h;
rightKerningGroup = a;
unicode = 104;
},
{
glyphname = i;
layers = (
{
anchors = (
{
name = m.uni0321_3;
position = "{90, 0}";
}
);
layerId = "147A3F7D-7F40-49EB-AD29-5B1295CBA645";
shapes = (
{
closed = 1;
nodes = (
(259,500,l),
(175,0,l),
(11,0,l),
(95,500,l)
);
},
{
closed = 1;
nodes = (
(272,760,o),
(305,725,o),
(297,675,cs),
(288,625,o),
(243,590,o),
(191,590,cs),
(139,590,o),
(107,625,o),
(115,675,cs),
(124,725,o),
(168,760,o),
(220,760,cs)
);
}
);
width = 281;
},
{
anchors = (
{
name = m.uni0321_3;
position = "{90, 0}";
}
);
layerId = "829015CF-4750-49AF-8B75-DA4E2F394C23";
shapes = (
{
closed = 1;
nodes = (
(215,500,l),
(131,0,l),
(29,0,l),
(113,500,l)
);
},
{
closed = 1;
nodes = (
(244,760,o),
(268,734,o),
(261,699,c),
(256,663,o),
(223,637,o),
(187,637,cs),
(149,637,o),
(127,663,o),
(133,699,c),
(140,734,o),
(170,760,o),
(208,760,cs)
);
}
);
width = 255;
},
{
anchors = (
{
name = m.uni0321_3;
position = "{90, 0}";
}
);
layerId = "803E4031-45E0-466E-BF99-85A631E5C1E1";
shapes = (
{
closed = 1;
nodes = (
(189,500,l),
(105,0,l),
(39,0,l),
(123,500,l)
);
},
{
closed = 1;
nodes = (
(227,760,o),
(245,740,o),
(240,713,c),
(236,685,o),
(211,665,o),
(184,665,cs),
(155,665,o),
(139,685,o),
(144,713,cs),
(149,740,o),
(171,760,o),
(200,760,cs)
);
}
);
width = 239;
}
);
leftKerningGroup = i2;
rightKerningGroup = i;
unicode = 105;
},
{
glyphname = j;
layers = (
{
layerId = "147A3F7D-7F40-49EB-AD29-5B1295CBA645";
shapes = (
{
closed = 1;
nodes = (
(176,590,o),
(143,625,o),
(152,675,cs),
(160,725,o),
(205,760,o),
(257,760,cs),
(310,760,o),
(343,725,o),
(334,675,cs),
(326,625,o),
(281,590,o),
(229,590,cs)
);
},
{
closed = 1;
nodes = (
(-57,-113,l),
(3,-100,o),
(40,-55,o),
(51,12,cs),
(133,500,l),
(297,500,l),
(215,12,ls),
(193,-116,o),
(120,-207,o),
(-14,-238,c)
);
}
);
width = 318;
},
{
layerId = "829015CF-4750-49AF-8B75-DA4E2F394C23";
shapes = (
{
closed = 1;
nodes = (
(165,637,o),
(142,663,o),
(149,699,c),
(154,734,o),
(186,760,o),
(223,760,cs),
(261,760,o),
(284,734,o),
(277,699,c),
(271,663,o),
(240,637,o),
(202,637,cs)
);
},
{
closed = 1;
nodes = (
(-64,-159,l),
(-6,-148,o),
(28,-108,o),
(38,-42,cs),
(129,500,l),
(232,500,l),
(141,-42,ls),
(122,-155,o),
(63,-221,o),
(-45,-240,c)
);
}
);
width = 271;
},
{
layerId = "803E4031-45E0-466E-BF99-85A631E5C1E1";
shapes = (
{
closed = 1;
nodes = (
(159,665,o),
(142,685,o),
(147,713,cs),
(151,740,o),
(175,760,o),
(202,760,cs),
(231,760,o),
(248,740,o),
(243,713,cs),
(238,685,o),
(215,665,o),
(186,665,cs)
);
},
{
closed = 1;
nodes = (
(-68,-186,l),
(-12,-176,o),
(20,-140,o),
(30,-75,cs),
(127,500,l),
(193,500,l),
(96,-75,ls),
(79,-178,o),
(28,-230,o),
(-64,-241,c)
);
}
);
width = 243;
}
);
unicode = 106;
},
{
glyphname = k;
layers = (
{
anchors = (
{
name = m.uni0321_3;
position = "{250, 0}";
},
{
name = t.uni0308_1_3;
position = "{331, 500}";
}
);
layerId = "147A3F7D-7F40-49EB-AD29-5B1295CBA645";
shapes = (
{
closed = 1;
nodes = (
(366,269,l),
(338,250,l),
(149,118,l),
(175,271,l),
(416,500,l),
(618,500,l)
);
},
{
closed = 1;
nodes = (
(299,760,l),
(172,0,l),
(8,0,l),
(135,760,l)
);
},
{
closed = 1;
nodes = (
(544,0,l),
(340,0,l),
(268,242,l),
(415,341,l)
);
}
);
width = 603;
},
{
anchors = (
{
name = m.uni0321_3;
position = "{250, 0}";
},
{
name = t.uni0308_1_3;
position = "{331, 500}";
}
);
layerId = "829015CF-4750-49AF-8B75-DA4E2F394C23";
shapes = (
{
closed = 1;
nodes = (
(309,277,l),
(285,261,l),
(103,118,l),
(120,223,l),
(432,500,l),
(565,500,l)
);
},
{
closed = 1;
nodes = (
(253,760,l),
(126,0,l),
(23,0,l),
(150,760,l)
);
},
{
closed = 1;
nodes = (
(491,0,l),
(363,0,l),
(242,263,l),
(329,329,l)
);
}
);
width = 549;
},
{
anchors = (
{
name = m.uni0321_3;
position = "{250, 0}";
},
{
name = t.uni0308_1_3;
position = "{331, 500}";
}
);
layerId = "803E4031-45E0-466E-BF99-85A631E5C1E1";
shapes = (
{
closed = 1;
nodes = (
(275,282,l),
(253,268,l),
(75,118,l),
(87,194,l),
(441,500,l),
(533,500,l)
);
},
{
closed = 1;
nodes = (
(225,760,l),
(98,0,l),
(32,0,l),
(159,760,l)
);
},
{
closed = 1;
nodes = (
(459,0,l),
(376,0,l),
(226,275,l),
(278,322,l)
);
}
);
width = 516;
}
);
leftKerningGroup = h;
rightKerningGroup = k;
unicode = 107;
},
{
glyphname = l;
layers = (
{
anchors = (
{
name = m.uni0321_3;
position = "{91, 0}";
},
{
name = t.uni0308_1_3;
position = "{218, 760}";
},
{
name = t.uni0335_2;
position = "{155, 382}";
},
{
name = t.uni031B_3;
position = "{421, 760}";
}
);
layerId = "147A3F7D-7F40-49EB-AD29-5B1295CBA645";
shapes = (
{
closed = 1;
nodes = (
(303,760,l),
(176,0,l),
(12,0,l),
(139,760,l)
);
}
);
width = 281;
},
{
anchors = (
{
name = m.uni0321_3;
position = "{91, 0}";
},
{
name = t.uni0308_1_3;
position = "{218, 760}";
},
{
name = t.uni0335_2;
position = "{155, 382}";
},
{
name = t.uni031B_3;
position = "{421, 760}";
}
);
layerId = "829015CF-4750-49AF-8B75-DA4E2F394C23";
shapes = (
{
closed = 1;
nodes = (
(257,760,l),
(130,0,l),
(28,0,l),
(155,760,l)
);
}
);
width = 252;
},
{
anchors = (
{
name = m.uni0321_3;
position = "{91, 0}";
},
{
name = t.uni0308_1_3;
position = "{218, 760}";
},
{
name = t.uni0335_2;
position = "{155, 382}";
},
{
name = t.uni031B_3;
position = "{421, 760}";
}
);
layerId = "803E4031-45E0-466E-BF99-85A631E5C1E1";
shapes = (
{
closed = 1;
nodes = (
(230,760,l),
(103,0,l),
(37,0,l),
(164,760,l)
);
}
);
width = 235;
}
);
leftKerningGroup = h;
rightKerningGroup = l;
unicode = 108;
},
{
glyphname = m;
layers = (
{
layerId = "147A3F7D-7F40-49EB-AD29-5B1295CBA645";
shapes = (
{
closed = 1;
nodes = (
(384,278,ls),
(393,331,o),
(374,368,o),
(320,368,cs),
(265,368,o),
(227,328,o),
(217,268,c),
(172,268,l),
(198,423,o),
(298,510,o),
(410,510,cs),
(517,510,o),
(573,428,o),
(554,313,cs),
(502,0,l),
(338,0,l)
);
},
{
closed = 1;
nodes = (
(92,500,l),
(256,500,l),
(172,0,l),
(8,0,l)
);
},
{
closed = 1;
nodes = (
(714,278,ls),
(723,331,o),
(704,368,o),
(650,368,cs),
(595,368,o),
(557,328,o),
(546,268,c),
(502,268,l),
(528,423,o),
(628,510,o),
(740,510,cs),
(848,510,o),
(903,428,o),
(884,313,cs),
(831,0,l),
(667,0,l)
);
}
);
width = 924;
},
{
layerId = "829015CF-4750-49AF-8B75-DA4E2F394C23";
shapes = (
{
closed = 1;
nodes = (
(416,286,ls),
(431,379,o),
(396,423,o),
(329,423,cs),
(261,423,o),
(190,379,o),
(172,276,c),
(135,276,l),
(162,437,o),
(264,510,o),
(372,510,cs),
(480,510,o),
(544,437,o),
(522,297,cs),
(471,0,l),
(368,0,l)
);
},
{
closed = 1;
nodes = (
(107,500,l),
(210,500,l),
(126,0,l),
(23,0,l)
);
},
{
closed = 1;
nodes = (
(762,286,ls),
(777,379,o),
(742,423,o),
(674,423,cs),
(606,423,o),
(535,379,o),
(517,276,c),
(480,276,l),
(507,437,o),
(610,510,o),
(717,510,cs),
(826,510,o),
(890,437,o),
(867,297,cs),
(816,0,l),
(713,0,l)
);
}
);
width = 924;
},
{
layerId = "803E4031-45E0-466E-BF99-85A631E5C1E1";
shapes = (
{
closed = 1;
nodes = (
(435,291,ls),
(454,407,o),
(409,456,o),
(334,456,cs),
(258,456,o),
(167,409,o),
(145,281,c),
(113,281,l),
(140,446,o),
(244,510,o),
(349,510,cs),
(458,510,o),
(527,442,o),
(502,288,cs),
(453,0,l),
(386,0,l)
);
},
{
closed = 1;
nodes = (
(116,500,l),
(182,500,l),
(98,0,l),
(32,0,l)
);
},
{
closed = 1;
nodes = (
(790,291,ls),
(809,407,o),
(764,456,o),
(689,456,cs),
(612,456,o),
(522,409,o),
(500,281,c),
(467,281,l),
(494,446,o),
(599,510,o),
(703,510,cs),
(813,510,o),
(882,442,o),
(856,288,cs),
(807,0,l),
(741,0,l)
);
}
);
width = 924;
}
);
leftKerningGroup = m;
rightKerningGroup = a;
unicode = 109;
},
{
glyphname = n;
layers = (
{
anchors = (
{
name = m.uni0321_3;
position = "{257, 0}";
},
{
name = t.uni0308_1_3;
position = "{337, 500}";
}
);
layerId = "147A3F7D-7F40-49EB-AD29-5B1295CBA645";
shapes = (
{
closed = 1;
nodes = (
(384,278,ls),
(393,331,o),
(374,368,o),
(320,368,cs),
(265,368,o),
(227,328,o),
(217,268,c),
(172,268,l),
(198,423,o),
(298,510,o),
(410,510,cs),
(517,510,o),
(573,428,o),
(554,313,cs),
(502,0,l),
(338,0,l)
);
},
{
closed = 1;
nodes = (
(92,500,l),
(256,500,l),
(172,0,l),
(8,0,l)
);
}
);
width = 594;
},
{
anchors = (
{
name = m.uni0321_3;
position = "{257, 0}";
},
{
name = t.uni0308_1_3;
position = "{337, 500}";
}
);
layerId = "829015CF-4750-49AF-8B75-DA4E2F394C23";
shapes = (
{
closed = 1;
nodes = (
(416,286,ls),
(431,379,o),
(396,423,o),
(329,423,cs),
(261,423,o),
(190,379,o),
(172,276,c),
(135,276,l),
(162,437,o),
(264,510,o),
(372,510,cs),
(480,510,o),
(544,437,o),
(522,297,cs),
(471,0,l),
(368,0,l)
);
},
{
closed = 1;
nodes = (
(107,500,l),
(210,500,l),
(126,0,l),
(23,0,l)
);
}
);
width = 578;
},
{
anchors = (
{
name = m.uni0321_3;
position = "{257, 0}";
},
{
name = t.uni0308_1_3;
position = "{337, 500}";
}
);
layerId = "803E4031-45E0-466E-BF99-85A631E5C1E1";
shapes = (
{
closed = 1;
nodes = (
(435,291,ls),
(454,407,o),
(409,456,o),
(334,456,cs),
(258,456,o),
(167,409,o),
(145,281,c),
(113,281,l),
(140,446,o),
(244,510,o),
(349,510,cs),
(458,510,o),
(527,442,o),
(502,288,cs),
(453,0,l),
(386,0,l)
);
},
{
closed = 1;
nodes = (
(116,500,l),
(182,500,l),
(98,0,l),
(32,0,l)
);
}
);
width = 569;
}
);
leftKerningGroup = m;
rightKerningGroup = a;
unicode = 110;
},
{
glyphname = o;
layers = (
{
anchors = (
{
name = m.uni0321_3;
position = "{248, 0}";
},
{
name = t.uni0308_1_3;
position = "{332, 500}";
},
{
name = t.uni0335_2;
position = "{290, 250}";
},
{
name = m.uni0328_3;
position = "{246, -10}";
},
{
name = t.uni031B_3;
position = "{503, 438}";
}
);
layerId = "147A3F7D-7F40-49EB-AD29-5B1295CBA645";
shapes = (
{
closed = 1;
nodes = (
(489,510,o),
(580,405,o),
(554,250,cs),
(528,95,o),
(402,-10,o),
(243,-10,cs),
(84,-10,o),
(-6,95,o),
(20,250,cs),
(46,405,o),
(171,510,o),
(330,510,cs)
);
},
{
closed = 1;
nodes = (
(329,132,o),
(378,180,o),
(390,250,cs),
(402,322,o),
(369,368,o),
(307,368,cs),
(245,368,o),
(196,322,o),
(184,250,cs),
(172,180,o),
(205,132,o),
(267,132,cs)
);
}
);
width = 585;
},
{
anchors = (
{
name = m.uni0321_3;
position = "{248, 0}";
},
{
name = t.uni0308_1_3;
position = "{332, 500}";
},
{
name = t.uni0335_2;
position = "{290, 250}";
},
{
name = m.uni0328_3;
position = "{246, -10}";
},
{
name = t.uni031B_3;
position = "{503, 438}";
}
);
layerId = "829015CF-4750-49AF-8B75-DA4E2F394C23";
shapes = (
{
closed = 1;
nodes = (
(504,510,o),
(595,405,o),
(569,250,cs),
(543,95,o),
(417,-10,o),
(259,-10,cs),
(100,-10,o),
(10,95,o),
(36,250,cs),
(62,405,o),
(187,510,o),
(346,510,cs)
);
},
{
closed = 1;
nodes = (
(372,77,o),
(449,146,o),
(466,250,cs),
(484,354,o),
(429,423,o),
(331,423,cs),
(233,423,o),
(156,354,o),
(138,250,cs),
(121,146,o),
(174,77,o),
(273,77,cs)
);
}
);
width = 615;
},
{
anchors = (
{
name = m.uni0321_3;
position = "{248, 0}";
},
{
name = t.uni0308_1_3;
position = "{332, 500}";
},
{
name = t.uni0335_2;
position = "{290, 250}";
},
{
name = m.uni0328_3;
position = "{246, -10}";
},
{
name = t.uni031B_3;
position = "{503, 438}";
}
);
layerId = "803E4031-45E0-466E-BF99-85A631E5C1E1";
shapes = (
{
closed = 1;
nodes = (
(513,510,o),
(604,405,o),
(578,250,cs),
(552,95,o),
(426,-10,o),
(268,-10,cs),
(109,-10,o),
(19,95,o),
(45,250,cs),
(71,405,o),
(196,510,o),
(355,510,cs)
);
},
{
closed = 1;
nodes = (
(397,44,o),
(492,126,o),
(512,250,cs),
(533,373,o),
(465,456,o),
(346,456,cs),
(225,456,o),
(132,373,o),
(111,250,cs),
(91,126,o),
(156,44,o),
(277,44,cs)
);
}
);
width = 633;
}
);
leftKerningGroup = a2;
rightKerningGroup = b;
unicode = 111;
},
{
glyphname = p;
layers = (
{
layerId = "147A3F7D-7F40-49EB-AD29-5B1295CBA645";
shapes = (
{
closed = 1;
nodes = (
(243,425,l),
(184,250,l),
(184,74,l),
(132,-240,l),
(-32,-240,l),
(92,500,l),
(244,500,l)
);
},
{
closed = 1;
nodes = (
(518,510,o),
(599,405,o),
(573,250,cs),
(547,95,o),
(431,-10,o),
(295,-10,cs),
(177,-10,o),
(123,94,o),
(149,250,cs),
(175,406,o),
(264,510,o),
(382,510,cs)
);
},
{
closed = 1;
nodes = (
(348,132,o),
(397,180,o),
(409,250,cs),
(421,322,o),
(388,368,o),
(327,368,cs),
(265,368,o),
(216,322,o),
(204,250,cs),
(192,180,o),
(225,132,o),
(287,132,cs)
);
}
);
width = 605;
},
{
layerId = "829015CF-4750-49AF-8B75-DA4E2F394C23";
shapes = (
{
closed = 1;
nodes = (
(193,402,l),
(138,250,l),
(142,98,l),
(86,-240,l),
(-17,-240,l),
(107,500,l),
(206,500,l)
);
},
{
closed = 1;
nodes = (
(529,510,o),
(615,405,o),
(589,250,cs),
(563,95,o),
(442,-10,o),
(295,-10,cs),
(158,-10,o),
(85,95,o),
(111,250,cs),
(137,405,o),
(245,510,o),
(382,510,cs)
);
},
{
closed = 1;
nodes = (
(391,77,o),
(468,146,o),
(485,250,cs),
(503,354,o),
(449,423,o),
(351,423,cs),
(253,423,o),
(175,354,o),
(158,250,cs),
(141,146,o),
(194,77,o),
(293,77,cs)
);
}
);
width = 635;
},
{
layerId = "803E4031-45E0-466E-BF99-85A631E5C1E1";
shapes = (
{
closed = 1;
nodes = (
(163,388,l),
(110,250,l),
(117,112,l),
(58,-240,l),
(-8,-240,l),
(116,500,l),
(183,500,l)
);
},
{
closed = 1;
nodes = (
(536,510,o),
(624,405,o),
(598,250,cs),
(572,95,o),
(449,-10,o),
(295,-10,cs),
(146,-10,o),
(62,95,o),
(88,250,cs),
(114,405,o),
(233,510,o),
(382,510,cs)
);
},
{
closed = 1;
nodes = (
(417,44,o),
(511,126,o),
(531,250,cs),
(552,373,o),
(486,456,o),
(365,456,cs),
(245,456,o),
(151,373,o),
(130,250,cs),
(110,126,o),
(176,44,o),
(296,44,cs)
);
}
);
width = 653;
}
);
leftKerningGroup = p;
rightKerningGroup = b;
unicode = 112;
},
{
glyphname = q;
layers = (
{
layerId = "147A3F7D-7F40-49EB-AD29-5B1295CBA645";
shapes = (
{
closed = 1;
nodes = (
(350,74,l),
(409,250,l),
(408,423,l),
(433,500,l),
(586,500,l),
(462,-240,l),
(298,-240,l)
);
},
{
closed = 1;
nodes = (
(412,510,o),
(470,406,o),
(444,250,cs),
(418,94,o),
(325,-10,o),
(199,-10,cs),
(70,-10,o),
(-6,95,o),
(20,250,cs),
(46,405,o),
(157,510,o),
(286,510,cs)
);
},
{
closed = 1;
nodes = (
(329,132,o),
(378,180,o),
(390,250,cs),
(402,322,o),
(369,368,o),
(307,368,cs),
(245,368,o),
(196,322,o),
(184,250,cs),
(172,180,o),
(205,132,o),
(267,132,cs)
);
}
);
width = 605;
},
{
layerId = "829015CF-4750-49AF-8B75-DA4E2F394C23";
shapes = (
{
closed = 1;
nodes = (
(431,98,l),
(485,250,l),
(482,407,l),
(502,500,l),
(601,500,l),
(477,-240,l),
(374,-240,l)
);
},
{
closed = 1;
nodes = (
(465,510,o),
(539,405,o),
(513,250,cs),
(487,95,o),
(378,-10,o),
(237,-10,cs),
(92,-10,o),
(10,95,o),
(36,250,cs),
(62,405,o),
(179,510,o),
(324,510,cs)
);
},
{
closed = 1;
nodes = (
(372,77,o),
(449,146,o),
(466,250,cs),
(484,354,o),
(429,423,o),
(331,423,cs),
(233,423,o),
(156,354,o),
(138,250,cs),
(121,146,o),
(174,77,o),
(273,77,cs)
);
}
);
width = 635;
},
{
layerId = "803E4031-45E0-466E-BF99-85A631E5C1E1";
shapes = (
{
closed = 1;
nodes = (
(479,112,l),
(531,250,l),
(527,398,l),
(543,500,l),
(610,500,l),
(486,-240,l),
(420,-240,l)
);
},
{
closed = 1;
nodes = (
(496,510,o),
(580,405,o),
(554,250,cs),
(528,95,o),
(409,-10,o),
(260,-10,cs),
(105,-10,o),
(19,95,o),
(45,250,cs),
(71,405,o),
(192,510,o),
(347,510,cs)
);
},
{
closed = 1;
nodes = (
(397,44,o),
(492,126,o),
(512,250,cs),
(533,373,o),
(465,456,o),
(346,456,cs),
(225,456,o),
(132,373,o),
(111,250,cs),
(91,126,o),
(156,44,o),
(277,44,cs)
);
}
);
width = 653;
}
);
leftKerningGroup = a2;
unicode = 113;
},
{
glyphname = r;
layers = (
{
anchors = (
{
name = m.uni0321_3;
position = "{85, 0}";
},
{
name = t.uni0308_1_3;
position = "{283, 500}";
}
);
layerId = "147A3F7D-7F40-49EB-AD29-5B1295CBA645";
shapes = (
{
closed = 1;
nodes = (
(431,315,l),
(396,343,o),
(360,358,o),
(323,358,cs),
(276,358,o),
(226,326,o),
(211,235,c),
(177,235,l),
(234,429,o),
(299,510,o),
(380,510,cs),
(423,510,o),
(463,495,o),
(497,466,c)
);
},
{
closed = 1;
nodes = (
(92,500,l),
(256,500,l),
(172,0,l),
(8,0,l)
);
}
);
width = 477;
},
{
anchors = (
{
name = m.uni0321_3;
position = "{85, 0}";
},
{
name = t.uni0308_1_3;
position = "{283, 500}";
}
);
layerId = "829015CF-4750-49AF-8B75-DA4E2F394C23";
shapes = (
{
closed = 1;
nodes = (
(382,391,l),
(360,408,o),
(335,416,o),
(309,416,cs),
(254,416,o),
(187,369,o),
(169,259,c),
(136,259,l),
(177,425,o),
(252,510,o),
(342,510,cs),
(377,510,o),
(406,501,o),
(428,482,c)
);
},
{
closed = 1;
nodes = (
(107,500,l),
(210,500,l),
(126,0,l),
(23,0,l)
);
}
);
width = 405;
},
{
anchors = (
{
name = m.uni0321_3;
position = "{85, 0}";
},
{
name = t.uni0308_1_3;
position = "{283, 500}";
}
);
layerId = "803E4031-45E0-466E-BF99-85A631E5C1E1";
shapes = (
{
closed = 1;
nodes = (
(352,437,l),
(338,447,o),
(320,451,o),
(301,451,cs),
(241,451,o),
(164,395,o),
(144,273,c),
(111,273,l),
(142,422,o),
(224,510,o),
(319,510,cs),
(349,510,o),
(371,504,o),
(387,492,c)
);
},
{
closed = 1;
nodes = (
(116,500,l),
(182,500,l),
(98,0,l),
(32,0,l)
);
}
);
width = 362;
}
);
leftKerningGroup = m;
rightKerningGroup = r;
unicode = 114;
},
{
glyphname = s;
layers = (
{
anchors = (
{
name = m.uni0321_3;
position = "{192, 0}";
},
{
name = t.uni0308_1_3;
position = "{266, 500}";
}
);
layerId = "147A3F7D-7F40-49EB-AD29-5B1295CBA645";
shapes = (
{
closed = 1;
nodes = (
(354,510,o),
(424,493,o),
(470,464,c),
(405,342,l),
(362,363,o),
(306,380,o),
(263,380,cs),
(226,380,o),
(207,369,o),
(205,358,cs),
(202,344,o),
(217,335,o),
(294,316,cs),
(405,288,o),
(452,239,o),
(438,152,cs),
(422,57,o),
(329,-10,o),
(197,-10,cs),
(114,-10,o),
(39,9,o),
(-12,45,c),
(47,182,l),
(98,144,o),
(167,120,o),
(219,120,cs),
(252,120,o),
(270,127,o),
(272,139,cs),
(274,153,o),
(257,166,o),
(189,185,cs),
(76,217,o),
(25,265,o),
(40,347,c),
(55,442,o),
(147,510,o),
(285,510,cs)
);
}
);
width = 487;
},
{
anchors = (
{
name = m.uni0321_3;
position = "{192, 0}";
},
{
name = t.uni0308_1_3;
position = "{266, 500}";
}
);
layerId = "829015CF-4750-49AF-8B75-DA4E2F394C23";
shapes = (
{
closed = 1;
nodes = (
(344,510,o),
(412,489,o),
(457,450,c),
(406,374,l),
(362,406,o),
(309,427,o),
(257,427,cs),
(199,427,o),
(166,400,o),
(159,367,c),
(155,336,o),
(177,318,o),
(268,294,cs),
(385,264,o),
(432,218,o),
(419,136,cs),
(404,51,o),
(320,-10,o),
(197,-10,cs),
(114,-10,o),
(43,15,o),
(-3,56,c),
(45,136,l),
(90,97,o),
(152,73,o),
(211,73,cs),
(271,73,o),
(309,98,o),
(315,131,cs),
(320,162,o),
(295,186,o),
(205,210,cs),
(87,241,o),
(43,287,o),
(56,363,cs),
(70,445,o),
(149,510,o),
(272,510,cs)
);
}
);
width = 478;
},
{
anchors = (
{
name = m.uni0321_3;
position = "{192, 0}";
},
{
name = t.uni0308_1_3;
position = "{266, 500}";
}
);
layerId = "803E4031-45E0-466E-BF99-85A631E5C1E1";
shapes = (
{
closed = 1;
nodes = (
(338,510,o),
(404,486,o),
(449,442,c),
(407,393,l),
(362,432,o),
(311,455,o),
(254,455,cs),
(182,455,o),
(141,419,o),
(132,372,c),
(126,331,o),
(153,307,o),
(252,281,cs),
(373,249,o),
(420,205,o),
(407,127,cs),
(393,48,o),
(315,-10,o),
(197,-10,cs),
(114,-10,o),
(45,18,o),
(3,63,c),
(43,109,l),
(85,68,o),
(143,45,o),
(206,45,cs),
(283,45,o),
(333,80,o),
(341,126,cs),
(348,168,o),
(317,198,o),
(214,225,cs),
(93,256,o),
(54,300,o),
(66,373,cs),
(79,447,o),
(150,510,o),
(264,510,cs)
);
}
);
width = 472;
}
);
leftKerningGroup = s2;
rightKerningGroup = s;
unicode = 115;
},
{
glyphname = t;
layers = (
{
anchors = (
{
name = m.uni0321_3;
position = "{169, 0}";
},
{
name = t.uni0308_1_3;
position = "{232, 640}";
},
{
name = t.uni0335_2;
position = "{199, 258}";
},
{
name = t.uni031B_3;
position = "{472, 760}";
}
);
layerId = "147A3F7D-7F40-49EB-AD29-5B1295CBA645";
shapes = (
{
closed = 1;
nodes = (
(44,500,l),
(447,500,l),
(423,358,l),
(20,358,l)
);
},
{
closed = 1;
nodes = (
(321,640,l),
(248,202,ls),
(240,152,o),
(259,132,o),
(304,132,cs),
(325,132,o),
(346,138,o),
(364,151,c),
(364,26,l),
(327,2,o),
(279,-10,o),
(224,-10,cs),
(109,-10,o),
(58,50,o),
(78,167,cs),
(127,460,l),
(63,500,l),
(127,500,o),
(161,524,o),
(190,579,cs),
(224,640,l)
);
}
);
width = 417;
},
{
anchors = (
{
name = m.uni0321_3;
position = "{169, 0}";
},
{
name = t.uni0308_1_3;
position = "{232, 640}";
},
{
name = t.uni0335_2;
position = "{199, 258}";
},
{
name = t.uni031B_3;
position = "{472, 760}";
}
);
layerId = "829015CF-4750-49AF-8B75-DA4E2F394C23";
shapes = (
{
closed = 1;
nodes = (
(52,500,l),
(378,500,l),
(364,413,l),
(38,413,l)
);
},
{
closed = 1;
nodes = (
(260,640,l),
(178,147,ls),
(171,101,o),
(189,77,o),
(232,77,cs),
(249,77,o),
(270,82,o),
(292,92,c),
(298,14,l),
(268,-2,o),
(232,-10,o),
(193,-10,cs),
(101,-10,o),
(57,41,o),
(72,136,cs),
(127,460,l),
(79,500,l),
(121,500,o),
(143,517,o),
(161,560,cs),
(193,640,l)
);
}
);
width = 360;
},
{
anchors = (
{
name = m.uni0321_3;
position = "{169, 0}";
},
{
name = t.uni0308_1_3;
position = "{232, 640}";
},
{
name = t.uni0335_2;
position = "{199, 258}";
},
{
name = t.uni031B_3;
position = "{472, 760}";
}
);
layerId = "803E4031-45E0-466E-BF99-85A631E5C1E1";
shapes = (
{
closed = 1;
nodes = (
(57,500,l),
(337,500,l),
(328,446,l),
(48,446,l)
);
},
{
closed = 1;
nodes = (
(224,640,l),
(136,114,ls),
(129,70,o),
(147,44,o),
(189,44,cs),
(204,44,o),
(225,48,o),
(249,56,c),
(258,6,l),
(232,-4,o),
(204,-10,o),
(174,-10,cs),
(96,-10,o),
(56,35,o),
(69,117,cs),
(127,460,l),
(88,500,l),
(118,500,o),
(132,512,o),
(143,548,c),
(174,640,l)
);
}
);
width = 325;
}
);
leftKerningGroup = t;
rightKerningGroup = t1;
unicode = 116;
},
{
glyphname = u;
layers = (
{
anchors = (
{
name = m.uni0321_3;
position = "{244, 0}";
},
{
name = t.uni0308_1_3;
position = "{327, 500}";
},
{
name = m.uni0328_3;
position = "{409, 0}";
},
{
name = t.uni031B_3;
position = "{542, 500}";
}
);
layerId = "147A3F7D-7F40-49EB-AD29-5B1295CBA645";
shapes = (
{
closed = 1;
nodes = (
(66,-10,o),
(10,70,o),
(29,187,cs),
(82,500,l),
(246,500,l),
(199,222,ls),
(190,169,o),
(214,132,o),
(258,132,cs),
(307,132,o),
(346,168,o),
(354,220,c),
(400,220,l),
(377,83,o),
(281,-10,o),
(168,-10,cs)
);
},
{
closed = 1;
nodes = (
(338,124,l),
(401,500,l),
(566,500,l),
(482,0,l),
(329,0,l)
);
}
);
width = 584;
},
{
anchors = (
{
name = m.uni0321_3;
position = "{244, 0}";
},
{
name = t.uni0308_1_3;
position = "{327, 500}";
},
{
name = m.uni0328_3;
position = "{409, 0}";
},
{
name = t.uni031B_3;
position = "{542, 500}";
}
);
layerId = "829015CF-4750-49AF-8B75-DA4E2F394C23";
shapes = (
{
closed = 1;
nodes = (
(80,-10,o),
(26,72,o),
(47,203,cs),
(98,500,l),
(200,500,l),
(152,214,ls),
(137,129,o),
(168,77,o),
(234,77,cs),
(313,77,o),
(371,131,o),
(385,220,c),
(423,220,l),
(399,79,o),
(309,-10,o),
(191,-10,cs)
);
},
{
closed = 1;
nodes = (
(366,106,l),
(432,500,l),
(535,500,l),
(451,0,l),
(353,0,l)
);
}
);
width = 569;
},
{
anchors = (
{
name = m.uni0321_3;
position = "{244, 0}";
},
{
name = t.uni0308_1_3;
position = "{327, 500}";
},
{
name = m.uni0328_3;
position = "{409, 0}";
},
{
name = t.uni031B_3;
position = "{542, 500}";
}
);
layerId = "803E4031-45E0-466E-BF99-85A631E5C1E1";
shapes = (
{
closed = 1;
nodes = (
(89,-10,o),
(35,73,o),
(58,212,cs),
(107,500,l),
(172,500,l),
(123,209,ls),
(105,105,o),
(140,44,o),
(219,44,cs),
(317,44,o),
(386,109,o),
(404,220,c),
(436,220,l),
(412,76,o),
(326,-10,o),
(204,-10,cs)
);
},
{
closed = 1;
nodes = (
(383,95,l),
(451,500,l),
(517,500,l),
(433,0,l),
(367,0,l)
);
}
);
width = 560;
}
);
leftKerningGroup = u;
rightKerningGroup = u1;
unicode = 117;
},
{
glyphname = v;
layers = (
{
layerId = "147A3F7D-7F40-49EB-AD29-5B1295CBA645";
shapes = (
{
closed = 1;
nodes = (
(625,500,l),
(336,0,l),
(167,0,l),
(45,500,l),
(228,500,l),
(281,175,l),
(443,500,l)
);
}
);
width = 598;
},
{
layerId = "829015CF-4750-49AF-8B75-DA4E2F394C23";
shapes = (
{
closed = 1;
nodes = (
(587,500,l),
(294,0,l),
(178,0,l),
(53,500,l),
(167,500,l),
(253,100,l),
(473,500,l)
);
}
);
width = 567;
},
{
layerId = "803E4031-45E0-466E-BF99-85A631E5C1E1";
shapes = (
{
closed = 1;
nodes = (
(564,500,l),
(269,0,l),
(184,0,l),
(58,500,l),
(131,500,l),
(236,55,l),
(491,500,l)
);
}
);
width = 549;
}
);
leftKerningGroup = v2;
rightKerningGroup = v;
unicode = 118;
},
{
glyphname = w;
layers = (
{
anchors = (
{
name = m.uni0321_3;
position = "{404, 0}";
},
{
name = t.uni0308_1_3;
position = "{488, 500}";
}
);
layerId = "147A3F7D-7F40-49EB-AD29-5B1295CBA645";
shapes = (
{
closed = 1;
nodes = (
(939,500,l),
(669,0,l),
(487,0,l),
(460,310,l),
(330,0,l),
(147,0,l),
(45,500,l),
(228,500,l),
(269,182,l),
(406,500,l),
(578,500,l),
(620,182,l),
(756,500,l)
);
}
);
width = 912;
},
{
anchors = (
{
name = m.uni0321_3;
position = "{404, 0}";
},
{
name = t.uni0308_1_3;
position = "{488, 500}";
}
);
layerId = "829015CF-4750-49AF-8B75-DA4E2F394C23";
shapes = (
{
closed = 1;
nodes = (
(901,500,l),
(631,0,l),
(510,0,l),
(456,374,l),
(276,0,l),
(155,0,l),
(53,500,l),
(167,500,l),
(233,103,l),
(422,500,l),
(532,500,l),
(592,103,l),
(786,500,l)
);
}
);
width = 881;
},
{
anchors = (
{
name = m.uni0321_3;
position = "{404, 0}";
},
{
name = t.uni0308_1_3;
position = "{488, 500}";
}
);
layerId = "803E4031-45E0-466E-BF99-85A631E5C1E1";
shapes = (
{
closed = 1;
nodes = (
(878,500,l),
(608,0,l),
(523,0,l),
(453,413,l),
(243,0,l),
(160,0,l),
(58,500,l),
(131,500,l),
(211,56,l),
(431,500,l),
(504,500,l),
(575,56,l),
(804,500,l)
);
}
);
width = 862;
}
);
leftKerningGroup = v2;
rightKerningGroup = v;
unicode = 119;
},
{
glyphname = x;
layers = (
{
layerId = "147A3F7D-7F40-49EB-AD29-5B1295CBA645";
shapes = (
{
closed = 1;
nodes = (
(382,0,l),
(300,153,l),
(166,0,l),
(-39,0,l),
(199,256,l),
(56,500,l),
(260,500,l),
(333,351,l),
(456,500,l),
(662,500,l),
(435,256,l),
(587,0,l)
);
}
);
width = 643;
},
{
layerId = "829015CF-4750-49AF-8B75-DA4E2F394C23";
shapes = (
{
closed = 1;
nodes = (
(390,0,l),
(275,192,l),
(97,0,l),
(-31,0,l),
(213,257,l),
(63,500,l),
(191,500,l),
(296,312,l),
(464,500,l),
(593,500,l),
(360,256,l),
(518,0,l)
);
}
);
width = 582;
},
{
layerId = "803E4031-45E0-466E-BF99-85A631E5C1E1";
shapes = (
{
closed = 1;
nodes = (
(395,0,l),
(260,215,l),
(56,0,l),
(-26,0,l),
(222,257,l),
(67,500,l),
(150,500,l),
(273,289,l),
(469,500,l),
(551,500,l),
(315,256,l),
(477,0,l)
);
}
);
width = 546;
}
);
unicode = 120;
},
{
glyphname = y;
layers = (
{
anchors = (
{
name = m.uni0321_3;
position = "{296, -160}";
},
{
name = t.uni0308_1_3;
position = "{332, 500}";
}
);
layerId = "147A3F7D-7F40-49EB-AD29-5B1295CBA645";
shapes = (
{
closed = 1;
nodes = (
(16,-92,l),
(95,-89,o),
(133,-61,o),
(165,-9,c),
(171,0,l),
(45,500,l),
(228,500,l),
(294,185,l),
(446,500,l),
(628,500,l),
(357,0,l),
(330,-45,ls),
(249,-184,o),
(187,-228,o),
(31,-238,c)
);
}
);
width = 601;
},
{
anchors = (
{
name = m.uni0321_3;
position = "{296, -160}";
},
{
name = t.uni0308_1_3;
position = "{332, 500}";
}
);
layerId = "829015CF-4750-49AF-8B75-DA4E2F394C23";
shapes = (
{
closed = 1;
nodes = (
(13,-147,l),
(77,-142,o),
(117,-110,o),
(155,-43,cs),
(179,0,l),
(53,500,l),
(167,500,l),
(255,109,l),
(461,500,l),
(575,500,l),
(295,0,l),
(251,-74,l),
(190,-182,o),
(130,-228,o),
(21,-238,c)
);
}
);
width = 555;
},
{
anchors = (
{
name = m.uni0321_3;
position = "{296, -160}";
},
{
name = t.uni0308_1_3;
position = "{332, 500}";
}
);
layerId = "803E4031-45E0-466E-BF99-85A631E5C1E1";
shapes = (
{
closed = 1;
nodes = (
(11,-180,l),
(66,-173,o),
(108,-139,o),
(149,-64,cs),
(184,0,l),
(58,500,l),
(131,500,l),
(232,64,l),
(470,500,l),
(543,500,l),
(257,0,l),
(203,-92,l),
(154,-180,o),
(95,-228,o),
(15,-238,c)
);
}
);
width = 527;
}
);
leftKerningGroup = y;
rightKerningGroup = y2;
unicode = 121;
},
{
glyphname = z;
layers = (
{
anchors = (
{
name = m.uni0321_3;
position = "{205, 0}";
},
{
name = t.uni0308_1_3;
position = "{288, 500}";
}
);
layerId = "147A3F7D-7F40-49EB-AD29-5B1295CBA645";
shapes = (
{
closed = 1;
nodes = (
(468,142,l),
(444,0,l),
(-21,0,l),
(-3,107,l),
(255,358,l),
(49,358,l),
(73,500,l),
(507,500,l),
(487,381,l),
(239,142,l)
);
}
);
width = 519;
},
{
anchors = (
{
name = m.uni0321_3;
position = "{205, 0}";
},
{
name = t.uni0308_1_3;
position = "{288, 500}";
}
);
layerId = "829015CF-4750-49AF-8B75-DA4E2F394C23";
shapes = (
{
closed = 1;
nodes = (
(467,87,l),
(452,0,l),
(-13,0,l),
(-1,76,l),
(360,413,l),
(67,413,l),
(81,500,l),
(515,500,l),
(502,420,l),
(145,87,l)
);
}
);
width = 535;
},
{
anchors = (
{
name = m.uni0321_3;
position = "{205, 0}";
},
{
name = t.uni0308_1_3;
position = "{288, 500}";
}
);
layerId = "803E4031-45E0-466E-BF99-85A631E5C1E1";
shapes = (
{
closed = 1;
nodes = (
(466,54,l),
(457,0,l),
(-8,0,l),
(1,57,l),
(423,446,l),
(77,446,l),
(86,500,l),
(520,500,l),
(511,444,l),
(88,54,l)
);
}
);
width = 544;
}
);
leftKerningGroup = z;
rightKerningGroup = z1;
unicode = 122;
},
{
glyphname = ampersand;
layers = (
{
layerId = "147A3F7D-7F40-49EB-AD29-5B1295CBA645";
shapes = (
{
closed = 1;
nodes = (
(514,0,l),
(474,78,o),
(420,155,o),
(315,291,cs),
(261,361,l),
(220,412,o),
(206,454,o),
(216,518,cs),
(233,617,o),
(332,711,o),
(471,711,cs),
(594,711,o),
(661,625,o),
(663,530,c),
(512,472,l),
(508,520,o),
(478,546,o),
(444,546,cs),
(417,546,o),
(394,527,o),
(389,494,c),
(385,475,o),
(388,460,o),
(409,433,cs),
(489,332,ls),
(595,196,o),
(681,72,o),
(715,0,c)
);
},
{
closed = 1;
nodes = (
(744,342,l),
(709,261,o),
(641,186,o),
(573,145,c),
(523,135,l),
(469,44,o),
(345,-10,o),
(254,-10,cs),
(106,-10,o),
(22,82,o),
(46,223,cs),
(67,351,o),
(178,403,o),
(290,402,c),
(321,341,l),
(271,342,o),
(235,303,o),
(225,248,cs),
(215,191,o),
(248,156,o),
(305,156,cs),
(348,156,o),
(397,178,o),
(437,227,c),
(481,246,l),
(530,276,o),
(579,339,o),
(606,402,c)
);
}
);
width = 818;
},
{
layerId = "829015CF-4750-49AF-8B75-DA4E2F394C23";
shapes = (
{
closed = 1;
nodes = (
(560,0,l),
(515,82,o),
(444,182,o),
(326,334,cs),
(281,394,l),
(249,435,o),
(234,479,o),
(243,534,cs),
(257,619,o),
(341,711,o),
(471,711,cs),
(588,711,o),
(642,621,o),
(632,521,c),
(536,495,l),
(542,573,o),
(511,617,o),
(455,617,cs),
(400,617,o),
(357,580,o),
(348,525,cs),
(339,475,o),
(375,435,o),
(406,397,cs),
(477,308,ls),
(561,200,o),
(642,96,o),
(692,0,c)
);
},
{
closed = 1;
nodes = (
(745,357,l),
(707,271,o),
(643,193,o),
(574,136,c),
(541,123,l),
(468,41,o),
(369,-10,o),
(262,-10,cs),
(114,-10,o),
(36,81,o),
(57,207,cs),
(78,328,o),
(197,408,o),
(310,410,c),
(340,363,l),
(252,360,o),
(180,299,o),
(166,217,cs),
(153,144,o),
(197,85,o),
(285,85,cs),
(361,85,o),
(423,118,o),
(487,179,c),
(518,200,l),
(569,240,o),
(622,315,o),
(654,393,c)
);
}
);
width = 814;
},
{
layerId = "803E4031-45E0-466E-BF99-85A631E5C1E1";
shapes = (
{
closed = 1;
nodes = (
(588,0,l),
(540,84,o),
(458,198,o),
(333,360,c),
(293,414,l),
(266,448,o),
(250,494,o),
(259,543,cs),
(272,620,o),
(346,711,o),
(471,711,cs),
(584,711,o),
(631,618,o),
(613,515,c),
(550,508,l),
(562,605,o),
(531,659,o),
(462,659,cs),
(390,659,o),
(334,612,o),
(324,544,c),
(311,475,o),
(367,420,o),
(404,375,cs),
(469,293,ls),
(541,202,o),
(619,110,o),
(678,0,c)
);
},
{
closed = 1;
nodes = (
(745,366,l),
(705,277,o),
(644,197,o),
(574,130,c),
(552,115,l),
(468,39,o),
(384,-10,o),
(267,-10,cs),
(119,-10,o),
(45,80,o),
(64,198,cs),
(84,314,o),
(208,411,o),
(322,415,c),
(352,376,l),
(240,370,o),
(147,296,o),
(131,198,cs),
(116,116,o),
(167,42,o),
(273,42,cs),
(369,42,o),
(438,82,o),
(517,150,c),
(540,172,l),
(592,219,o),
(647,300,o),
(683,388,c)
);
}
);
width = 811;
}
);
unicode = 38;
},
{
glyphname = exclam;
layers = (
{
layerId = "147A3F7D-7F40-49EB-AD29-5B1295CBA645";
shapes = (
{
closed = 1;
nodes = (
(340,700,l),
(240,220,l),
(85,220,l),
(145,700,l)
);
},
{
closed = 1;
nodes = (
(213,181,o),
(244,142,o),
(236,86,c),
(226,30,o),
(180,-9,o),
(124,-9,cs),
(68,-9,o),
(35,30,o),
(45,86,c),
(53,142,o),
(101,181,o),
(157,181,cs)
);
}
);
width = 346;
},
{
layerId = "829015CF-4750-49AF-8B75-DA4E2F394C23";
shapes = (
{
closed = 1;
nodes = (
(283,700,l),
(183,220,l),
(96,220,l),
(156,700,l)
);
},
{
closed = 1;
nodes = (
(167,134,o),
(192,105,o),
(186,63,cs),
(179,21,o),
(143,-9,o),
(101,-9,cs),
(59,-9,o),
(34,21,o),
(41,63,cs),
(47,105,o),
(84,134,o),
(126,134,cs)
);
}
);
width = 300;
},
{
layerId = "803E4031-45E0-466E-BF99-85A631E5C1E1";
shapes = (
{
closed = 1;
nodes = (
(248,700,l),
(149,220,l),
(103,220,l),
(163,700,l)
);
},
{
closed = 1;
nodes = (
(140,106,o),
(160,82,o),
(156,49,c),
(150,15,o),
(120,-9,o),
(87,-9,cs),
(53,-9,o),
(33,15,o),
(39,49,c),
(43,82,o),
(73,106,o),
(107,106,cs)
);
}
);
width = 273;
}
);
unicode = 33;
},
{
glyphname = question;
layers = (
{
layerId = "147A3F7D-7F40-49EB-AD29-5B1295CBA645";
shapes = (
{
closed = 1;
nodes = (
(238,261,l),
(259,321,o),
(292,352,o),
(345,390,cs),
(388,421,o),
(403,434,o),
(411,473,c),
(418,516,o),
(395,545,o),
(362,545,cs),
(319,545,o),
(276,510,o),
(260,446,c),
(113,501,l),
(145,620,o),
(265,710,o),
(389,710,cs),
(519,710,o),
(611,619,o),
(592,510,c),
(579,425,o),
(526,384,o),
(462,333,cs),
(406,289,o),
(374,259,o),
(346,212,c)
);
},
{
closed = 1;
nodes = (
(355,180,o),
(388,141,o),
(378,85,c),
(370,29,o),
(324,-10,o),
(268,-10,cs),
(212,-10,o),
(179,29,o),
(187,85,c),
(197,141,o),
(243,180,o),
(299,180,cs)
);
}
);
width = 632;
},
{
layerId = "829015CF-4750-49AF-8B75-DA4E2F394C23";
shapes = (
{
closed = 1;
nodes = (
(247,229,l),
(260,273,o),
(292,301,o),
(354,346,cs),
(413,389,o),
(467,431,o),
(479,498,cs),
(491,568,o),
(447,616,o),
(369,616,cs),
(293,616,o),
(231,565,o),
(201,487,c),
(116,516,l),
(151,623,o),
(257,710,o),
(385,710,cs),
(515,710,o),
(607,622,o),
(588,510,cs),
(572,414,o),
(499,360,o),
(425,305,cs),
(364,260,o),
(334,234,o),
(318,197,c)
);
},
{
closed = 1;
nodes = (
(326,133,o),
(352,104,o),
(344,62,c),
(339,20,o),
(303,-10,o),
(261,-10,cs),
(219,-10,o),
(194,20,o),
(200,62,cs),
(207,104,o),
(242,133,o),
(284,133,cs)
);
}
);
width = 628;
},
{
layerId = "803E4031-45E0-466E-BF99-85A631E5C1E1";
shapes = (
{
closed = 1;
nodes = (
(253,210,l),
(261,244,o),
(292,270,o),
(360,320,cs),
(428,369,o),
(506,429,o),
(519,513,cs),
(534,599,o),
(478,658,o),
(373,658,cs),
(277,658,o),
(204,598,o),
(166,511,c),
(118,525,l),
(154,625,o),
(252,710,o),
(382,710,cs),
(513,710,o),
(604,624,o),
(585,510,cs),
(567,408,o),
(483,345,o),
(403,288,cs),
(339,243,o),
(310,219,o),
(301,188,c)
);
},
{
closed = 1;
nodes = (
(309,105,o),
(330,81,o),
(324,48,c),
(320,14,o),
(290,-10,o),
(256,-10,cs),
(223,-10,o),
(203,14,o),
(207,48,c),
(213,81,o),
(242,105,o),
(275,105,cs)
);
}
);
width = 626;
}
);
unicode = 63;
},
{
glyphname = numbersign;
layers = (
{
layerId = "147A3F7D-7F40-49EB-AD29-5B1295CBA645";
shapes = (
{
closed = 1;
nodes = (
(663,408,l),
(663,293,l),
(778,293,l),
(778,140,l),
(663,140,l),
(663,0,l),
(487,0,l),
(487,140,l),
(371,140,l),
(371,0,l),
(196,0,l),
(196,140,l),
(78,140,l),
(78,293,l),
(196,293,l),
(196,408,l),
(78,408,l),
(78,561,l),
(196,561,l),
(196,700,l),
(371,700,l),
(371,561,l),
(487,561,l),
(487,700,l),
(663,700,l),
(663,561,l),
(778,561,l),
(778,408,l)
);
},
{
closed = 1;
nodes = (
(489,301,o),
(487,320,o),
(487,350,cs),
(487,379,o),
(489,400,o),
(492,412,c),
(479,409,o),
(459,408,o),
(429,408,cs),
(400,408,o),
(378,409,o),
(366,413,c),
(369,399,o),
(371,378,o),
(371,350,cs),
(371,322,o),
(369,301,o),
(366,287,c),
(381,291,o),
(402,293,o),
(429,293,cs),
(457,293,o),
(477,291,o),
(492,289,c)
);
}
);
width = 856;
},
{
layerId = "829015CF-4750-49AF-8B75-DA4E2F394C23";
shapes = (
{
closed = 1;
nodes = (
(632,447,l),
(632,254,l),
(778,254,l),
(778,164,l),
(632,164,l),
(632,0,l),
(525,0,l),
(525,164,l),
(333,164,l),
(333,0,l),
(226,0,l),
(226,164,l),
(78,164,l),
(78,254,l),
(226,254,l),
(226,447,l),
(78,447,l),
(78,538,l),
(226,538,l),
(226,700,l),
(333,700,l),
(333,538,l),
(525,538,l),
(525,700,l),
(632,700,l),
(632,538,l),
(778,538,l),
(778,447,l)
);
},
{
closed = 1;
nodes = (
(527,262,o),
(525,295,o),
(525,350,cs),
(525,404,o),
(527,438,o),
(530,451,c),
(516,448,o),
(483,447,o),
(429,447,cs),
(377,447,o),
(342,448,o),
(328,452,c),
(331,437,o),
(333,403,o),
(333,350,cs),
(333,297,o),
(331,264,o),
(328,248,c),
(344,252,o),
(379,254,o),
(429,254,cs),
(481,254,o),
(513,252,o),
(530,249,c)
);
}
);
width = 856;
},
{
layerId = "803E4031-45E0-466E-BF99-85A631E5C1E1";
shapes = (
{
closed = 1;
nodes = (
(613,470,l),
(613,231,l),
(778,231,l),
(778,178,l),
(613,178,l),
(613,0,l),
(548,0,l),
(548,178,l),
(310,178,l),
(310,0,l),
(244,0,l),
(244,178,l),
(78,178,l),
(78,231,l),
(244,231,l),
(244,470,l),
(78,470,l),
(78,524,l),
(244,524,l),
(244,700,l),
(310,700,l),
(310,524,l),
(548,524,l),
(548,700,l),
(613,700,l),
(613,524,l),
(778,524,l),
(778,470,l)
);
},
{
closed = 1;
nodes = (
(550,239,o),
(548,280,o),
(548,350,cs),
(548,419,o),
(550,460,o),
(553,475,c),
(538,471,o),
(497,470,o),
(429,470,cs),
(363,470,o),
(320,471,o),
(305,475,c),
(308,459,o),
(310,418,o),
(310,350,cs),
(310,282,o),
(308,241,o),
(305,225,c),
(322,229,o),
(365,231,o),
(429,231,cs),
(495,231,o),
(535,229,o),
(553,225,c)
);
}
);
width = 856;
}
);
unicode = 35;
},
{
glyphname = Euro;
layers = (
{
layerId = "147A3F7D-7F40-49EB-AD29-5B1295CBA645";
shapes = (
{
closed = 1;
nodes = (
(623,317,l),
(580,234,l),
(50,234,l),
(94,317,l)
);
},
{
closed = 1;
nodes = (
(697,462,l),
(654,378,l),
(124,378,l),
(167,462,l)
);
},
{
closed = 1;
nodes = (
(259,-10,o),
(137,135,o),
(173,350,cs),
(209,565,o),
(380,710,o),
(597,710,cs),
(693,710,o),
(764,687,o),
(806,643,c),
(726,486,l),
(690,523,o),
(638,545,o),
(570,545,cs),
(456,545,o),
(367,467,o),
(348,350,cs),
(327,233,o),
(390,155,o),
(504,155,cs),
(565,155,o),
(621,175,o),
(664,208,c),
(723,73,l),
(672,31,o),
(584,-10,o),
(476,-10,cs)
);
}
);
width = 818;
},
{
layerId = "829015CF-4750-49AF-8B75-DA4E2F394C23";
shapes = (
{
closed = 1;
nodes = (
(636,325,l),
(599,258,l),
(54,258,l),
(92,325,l)
);
},
{
closed = 1;
nodes = (
(707,454,l),
(670,386,l),
(125,386,l),
(161,454,l)
);
},
{
closed = 1;
nodes = (
(282,-10,o),
(160,135,o),
(196,350,cs),
(232,565,o),
(403,710,o),
(621,710,cs),
(711,710,o),
(780,686,o),
(825,641,c),
(775,550,l),
(738,590,o),
(681,616,o),
(605,616,cs),
(450,616,o),
(329,508,o),
(302,350,cs),
(276,192,o),
(361,85,o),
(515,85,cs),
(598,85,o),
(669,116,o),
(715,156,c),
(755,78,l),
(699,30,o),
(612,-10,o),
(500,-10,cs)
);
}
);
width = 849;
},
{
layerId = "803E4031-45E0-466E-BF99-85A631E5C1E1";
shapes = (
{
closed = 1;
nodes = (
(644,330,l),
(611,272,l),
(56,272,l),
(90,330,l)
);
},
{
closed = 1;
nodes = (
(713,449,l),
(680,391,l),
(125,391,l),
(158,449,l)
);
},
{
closed = 1;
nodes = (
(295,-10,o),
(173,135,o),
(209,350,cs),
(245,565,o),
(416,710,o),
(635,710,cs),
(722,710,o),
(789,686,o),
(836,639,c),
(804,589,l),
(767,630,o),
(707,658,o),
(626,658,cs),
(446,658,o),
(306,533,o),
(275,350,cs),
(245,167,o),
(343,43,o),
(522,43,cs),
(618,43,o),
(697,81,o),
(745,124,c),
(774,81,l),
(715,29,o),
(628,-10,o),
(514,-10,cs)
);
}
);
width = 868;
}
);
unicode = 8364;
},
{
glyphname = indianrupee;
layers = (
{
layerId = "147A3F7D-7F40-49EB-AD29-5B1295CBA645";
shapes = (
{
closed = 1;
nodes = (
(65,323,l),
(150,323,ls),
(224,323,o),
(276,367,o),
(288,440,cs),
(300,507,o),
(271,547,o),
(209,547,c),
(224,587,l),
(389,587,o),
(477,523,o),
(460,417,cs),
(439,292,o),
(322,217,o),
(145,217,cs),
(48,217,l)
);
},
{
closed = 1;
nodes = (
(307,-8,l),
(273,19,o),
(230,61,o),
(187,121,cs),
(150,171,o),
(134,192,o),
(109,206,cs),
(95,213,o),
(80,217,o),
(63,217,c),
(211,281,l),
(241,272,o),
(283,242,o),
(320,212,c),
(369,169,o),
(417,129,o),
(449,108,c)
);
},
{
closed = 1;
nodes = (
(91,475,l),
(565,475,l),
(550,392,l),
(76,392,l)
);
},
{
closed = 1;
nodes = (
(128,700,l),
(602,700,l),
(577,547,l),
(103,547,l)
);
}
);
width = 591;
},
{
layerId = "829015CF-4750-49AF-8B75-DA4E2F394C23";
shapes = (
{
closed = 1;
nodes = (
(66,331,l),
(174,331,ls),
(268,331,o),
(332,380,o),
(346,464,cs),
(362,555,o),
(317,610,o),
(227,610,c),
(242,642,l),
(393,642,o),
(471,573,o),
(451,456,cs),
(431,331,o),
(324,256,o),
(166,256,cs),
(54,256,l)
);
},
{
closed = 1;
nodes = (
(334,0,l),
(289,26,o),
(239,74,o),
(196,142,c),
(151,209,o),
(136,231,o),
(115,245,c),
(102,252,o),
(89,256,o),
(72,256,c),
(172,294,l),
(204,278,o),
(236,251,o),
(279,195,cs),
(328,133,o),
(374,90,o),
(415,72,c)
);
},
{
closed = 1;
nodes = (
(96,506,l),
(570,506,l),
(558,439,l),
(84,439,l)
);
},
{
closed = 1;
nodes = (
(128,700,l),
(602,700,l),
(587,610,l),
(113,610,l)
);
}
);
width = 591;
},
{
layerId = "803E4031-45E0-466E-BF99-85A631E5C1E1";
shapes = (
{
closed = 1;
nodes = (
(67,336,l),
(189,336,ls),
(295,336,o),
(366,388,o),
(380,478,c),
(399,584,o),
(345,647,o),
(237,647,c),
(252,675,l),
(395,675,o),
(467,603,o),
(446,479,cs),
(426,354,o),
(325,279,o),
(178,279,cs),
(58,279,l)
);
},
{
closed = 1;
nodes = (
(350,5,l),
(299,30,o),
(245,81,o),
(201,154,c),
(151,232,o),
(137,254,o),
(118,268,c),
(106,275,o),
(94,279,o),
(78,279,c),
(149,302,l),
(181,282,o),
(208,257,o),
(254,185,c),
(304,111,o),
(348,67,o),
(395,51,c)
);
},
{
closed = 1;
nodes = (
(99,525,l),
(573,525,l),
(563,467,l),
(89,467,l)
);
},
{
closed = 1;
nodes = (
(128,700,l),
(602,700,l),
(593,647,l),
(119,647,l)
);
}
);
width = 591;
}
);
unicode = 8377;
},
{
glyphname = zero;
layers = (
{
anchors = (
{
name = t.uni0335;
position = "{306, 349}";
}
);
layerId = "147A3F7D-7F40-49EB-AD29-5B1295CBA645";
shapes = (
{
closed = 1;
nodes = (
(85,-10,o),
(10,125,o),
(48,350,cs),
(85,575,o),
(206,710,o),
(369,710,cs),
(532,710,o),
(606,575,o),
(569,350,cs),
(531,125,o),
(411,-10,o),
(248,-10,cs)
);
},
{
closed = 1;
nodes = (
(333,143,o),
(369,209,o),
(393,350,cs),
(416,491,o),
(401,557,o),
(342,557,cs),
(284,557,o),
(247,491,o),
(224,350,cs),
(200,209,o),
(216,143,o),
(274,143,cs)
);
}
);
width = 594;
},
{
anchors = (
{
name = t.uni0335;
position = "{306, 349}";
}
);
layerId = "829015CF-4750-49AF-8B75-DA4E2F394C23";
shapes = (
{
closed = 1;
nodes = (
(86,-10,o),
(18,125,o),
(56,350,cs),
(93,575,o),
(207,710,o),
(361,710,cs),
(515,710,o),
(583,575,o),
(546,350,cs),
(508,125,o),
(394,-10,o),
(240,-10,cs)
);
},
{
closed = 1;
nodes = (
(344,81,o),
(410,177,o),
(439,350,cs),
(468,523,o),
(435,620,o),
(345,620,cs),
(257,620,o),
(191,523,o),
(163,350,cs),
(134,177,o),
(167,81,o),
(255,81,cs)
);
}
);
width = 579;
},
{
anchors = (
{
name = t.uni0335;
position = "{306, 349}";
}
);
layerId = "803E4031-45E0-466E-BF99-85A631E5C1E1";
shapes = (
{
closed = 1;
nodes = (
(87,-10,o),
(23,125,o),
(61,350,cs),
(98,575,o),
(208,710,o),
(356,710,cs),
(504,710,o),
(569,575,o),
(532,350,cs),
(494,125,o),
(383,-10,o),
(235,-10,cs)
);
},
{
closed = 1;
nodes = (
(351,43,o),
(434,158,o),
(467,350,cs),
(499,542,o),
(455,657,o),
(347,657,cs),
(240,657,o),
(158,542,o),
(127,350,cs),
(94,158,o),
(137,43,o),
(244,43,cs)
);
}
);
width = 570;
}
);
leftKerningGroup = zero;
rightKerningGroup = zero1;
unicode = 48;
},
{
glyphname = one;
layers = (
{
layerId = "147A3F7D-7F40-49EB-AD29-5B1295CBA645";
shapes = (
{
closed = 1;
nodes = (
(451,700,l),
(334,0,l),
(158,0,l),
(240,491,l),
(205,465,o),
(125,417,o),
(85,398,c),
(61,538,l),
(142,587,o),
(222,640,o),
(298,700,c)
);
}
);
width = 456;
},
{
layerId = "829015CF-4750-49AF-8B75-DA4E2F394C23";
shapes = (
{
closed = 1;
nodes = (
(381,700,l),
(264,0,l),
(157,0,l),
(253,569,l),
(215,539,o),
(149,496,o),
(94,467,c),
(70,549,l),
(148,593,o),
(219,643,o),
(282,700,c)
);
}
);
width = 402;
},
{
layerId = "803E4031-45E0-466E-BF99-85A631E5C1E1";
shapes = (
{
closed = 1;
nodes = (
(339,700,l),
(222,0,l),
(157,0,l),
(260,616,l),
(221,583,o),
(163,543,o),
(99,508,c),
(76,555,l),
(151,597,o),
(217,645,o),
(273,700,c)
);
}
);
width = 369;
}
);
leftKerningGroup = one;
rightKerningGroup = one1;
unicode = 49;
},
{
glyphname = two;
layers = (
{
layerId = "147A3F7D-7F40-49EB-AD29-5B1295CBA645";
shapes = (
{
closed = 1;
nodes = (
(538,392,o),
(457,310,o),
(367,240,cs),
(249,148,l),
(516,148,l),
(490,0,l),
(0,0,l),
(20,120,l),
(245,305,ls),
(327,374,o),
(368,432,o),
(376,482,cs),
(384,527,o),
(362,557,o),
(323,557,cs),
(283,557,o),
(252,517,o),
(236,446,c),
(66,473,l),
(111,625,o),
(213,710,o),
(349,710,cs),
(491,710,o),
(576,624,o),
(554,493,cs)
);
}
);
width = 574;
},
{
layerId = "829015CF-4750-49AF-8B75-DA4E2F394C23";
shapes = (
{
closed = 1;
nodes = (
(521,395,o),
(458,326,o),
(328,220,cs),
(170,89,l),
(490,89,l),
(474,0,l),
(15,0,l),
(27,73,l),
(269,273,ls),
(375,362,o),
(419,422,o),
(432,498,cs),
(443,571,o),
(408,620,o),
(333,620,cs),
(267,620,o),
(215,568,o),
(189,477,c),
(88,495,l),
(129,632,o),
(224,710,o),
(348,710,cs),
(484,710,o),
(559,620,o),
(539,501,cs)
);
}
);
width = 573;
},
{
layerId = "803E4031-45E0-466E-BF99-85A631E5C1E1";
shapes = (
{
closed = 1;
nodes = (
(511,397,o),
(458,336,o),
(305,208,cs),
(123,54,l),
(474,54,l),
(465,0,l),
(24,0,l),
(31,45,l),
(283,254,ls),
(403,354,o),
(449,416,o),
(465,507,cs),
(479,597,o),
(436,657,o),
(339,657,cs),
(258,657,o),
(193,598,o),
(161,496,c),
(101,508,l),
(140,636,o),
(231,710,o),
(348,710,cs),
(479,710,o),
(548,618,o),
(530,506,cs)
);
}
);
width = 573;
}
);
leftKerningGroup = two1;
rightKerningGroup = two;
unicode = 50;
},
{
glyphname = three;
layers = (
{
layerId = "147A3F7D-7F40-49EB-AD29-5B1295CBA645";
shapes = (
{
closed = 1;
nodes = (
(528,346,o),
(559,287,o),
(546,212,cs),
(525,86,o),
(390,-10,o),
(249,-10,cs),
(116,-10,o),
(34,51,o),
(16,158,c),
(188,247,l),
(186,181,o),
(217,143,o),
(275,143,cs),
(326,143,o),
(364,173,o),
(372,218,cs),
(380,263,o),
(350,293,o),
(299,293,cs),
(227,293,l),
(248,423,l),
(309,423,ls),
(356,423,o),
(390,450,o),
(397,489,c),
(403,530,o),
(382,557,o),
(342,557,cs),
(300,557,o),
(269,531,o),
(251,480,c),
(95,535,l),
(141,647,o),
(239,710,o),
(368,710,cs),
(501,710,o),
(594,619,o),
(575,507,cs),
(566,449,o),
(510,385,o),
(450,372,c)
);
}
);
width = 593;
},
{
layerId = "829015CF-4750-49AF-8B75-DA4E2F394C23";
shapes = (
{
closed = 1;
nodes = (
(492,353,o),
(532,286,o),
(517,203,cs),
(496,78,o),
(375,-10,o),
(237,-10,cs),
(120,-10,o),
(44,47,o),
(29,143,c),
(132,193,l),
(139,122,o),
(181,81,o),
(253,81,cs),
(335,81,o),
(399,131,o),
(411,206,cs),
(424,277,o),
(377,326,o),
(293,326,cs),
(229,326,l),
(242,409,l),
(303,409,ls),
(378,409,o),
(433,452,o),
(444,517,cs),
(454,578,o),
(416,620,o),
(349,620,cs),
(283,620,o),
(230,584,o),
(204,521,c),
(114,562,l),
(159,655,o),
(250,710,o),
(364,710,cs),
(489,710,o),
(569,630,o),
(552,523,cs),
(539,449,o),
(478,391,o),
(410,376,c)
);
}
);
width = 582;
},
{
layerId = "803E4031-45E0-466E-BF99-85A631E5C1E1";
shapes = (
{
closed = 1;
nodes = (
(471,357,o),
(515,285,o),
(500,198,cs),
(479,73,o),
(366,-10,o),
(230,-10,cs),
(122,-10,o),
(50,45,o),
(36,134,c),
(99,160,l),
(110,87,o),
(160,43,o),
(239,43,cs),
(340,43,o),
(420,106,o),
(435,198,cs),
(451,286,o),
(393,346,o),
(289,346,cs),
(230,346,l),
(239,401,l),
(299,401,ls),
(391,401,o),
(459,453,o),
(472,533,cs),
(484,607,o),
(437,657,o),
(353,657,cs),
(273,657,o),
(207,615,o),
(176,546,c),
(125,578,l),
(170,660,o),
(256,710,o),
(362,710,cs),
(481,710,o),
(554,636,o),
(538,532,cs),
(523,449,o),
(458,394,o),
(386,378,c)
);
}
);
width = 576;
}
);
leftKerningGroup = three;
rightKerningGroup = three1;
unicode = 51;
},
{
glyphname = four;
layers = (
{
layerId = "147A3F7D-7F40-49EB-AD29-5B1295CBA645";
shapes = (
{
closed = 1;
nodes = (
(575,153,l),
(457,153,l),
(431,0,l),
(256,0,l),
(282,153,l),
(-4,153,l),
(17,279,l),
(144,410,o),
(262,550,o),
(374,700,c),
(548,700,l),
(482,300,l),
(600,300,l)
);
},
{
closed = 1;
nodes = (
(307,300,l),
(337,477,l),
(301,428,o),
(225,338,o),
(186,300,c)
);
}
);
width = 614;
},
{
layerId = "829015CF-4750-49AF-8B75-DA4E2F394C23";
shapes = (
{
closed = 1;
nodes = (
(554,164,l),
(436,164,l),
(409,0,l),
(302,0,l),
(329,164,l),
(5,164,l),
(18,240,l),
(160,383,o),
(293,536,o),
(420,700,c),
(526,700,l),
(451,253,l),
(569,253,l)
);
},
{
closed = 1;
nodes = (
(344,253,l),
(395,557,l),
(315,453,o),
(219,342,o),
(130,253,c)
);
}
);
width = 598;
},
{
layerId = "803E4031-45E0-466E-BF99-85A631E5C1E1";
shapes = (
{
closed = 1;
nodes = (
(541,171,l),
(423,171,l),
(395,0,l),
(329,0,l),
(357,171,l),
(10,171,l),
(18,217,l),
(169,366,o),
(312,528,o),
(447,700,c),
(512,700,l),
(432,225,l),
(550,225,l)
);
},
{
closed = 1;
nodes = (
(366,225,l),
(430,605,l),
(324,468,o),
(215,344,o),
(96,225,c)
);
}
);
width = 589;
}
);
leftKerningGroup = four2;
rightKerningGroup = four;
unicode = 52;
},
{
glyphname = five;
layers = (
{
layerId = "147A3F7D-7F40-49EB-AD29-5B1295CBA645";
shapes = (
{
closed = 1;
nodes = (
(107,-10,o),
(27,49,o),
(10,154,c),
(183,227,l),
(187,177,o),
(216,144,o),
(263,144,cs),
(314,144,o),
(354,181,o),
(363,238,cs),
(373,294,o),
(346,332,o),
(295,332,cs),
(257,332,o),
(218,309,o),
(197,272,c),
(58,289,l),
(150,700,l),
(557,700,l),
(533,553,l),
(286,553,l),
(288,553,l),
(258,426,l),
(283,450,o),
(322,462,o),
(370,462,cs),
(490,462,o),
(560,368,o),
(537,232,cs),
(514,88,o),
(392,-10,o),
(237,-10,cs)
);
}
);
width = 582;
},
{
layerId = "829015CF-4750-49AF-8B75-DA4E2F394C23";
shapes = (
{
closed = 1;
nodes = (
(118,-10,o),
(43,48,o),
(26,146,c),
(130,187,l),
(139,121,o),
(182,80,o),
(248,80,cs),
(332,80,o),
(397,138,o),
(411,226,cs),
(426,312,o),
(380,370,o),
(297,370,cs),
(238,370,o),
(181,338,o),
(150,290,c),
(72,302,l),
(161,700,l),
(538,700,l),
(524,611,l),
(243,611,l),
(245,611,l),
(196,402,l),
(230,433,o),
(286,453,o),
(342,453,cs),
(468,453,o),
(540,361,o),
(517,224,cs),
(494,84,o),
(379,-10,o),
(233,-10,cs)
);
}
);
width = 579;
},
{
layerId = "803E4031-45E0-466E-BF99-85A631E5C1E1";
shapes = (
{
closed = 1;
nodes = (
(125,-10,o),
(53,47,o),
(36,141,c),
(98,163,l),
(110,87,o),
(161,42,o),
(239,42,cs),
(343,42,o),
(423,112,o),
(440,219,cs),
(458,323,o),
(400,393,o),
(298,393,cs),
(227,393,o),
(158,356,o),
(122,300,c),
(81,309,l),
(168,700,l),
(527,700,l),
(518,646,l),
(217,646,l),
(219,646,l),
(159,387,l),
(198,423,o),
(265,448,o),
(325,448,cs),
(455,448,o),
(528,356,o),
(505,219,cs),
(482,82,o),
(371,-10,o),
(231,-10,cs)
);
}
);
width = 577;
}
);
leftKerningGroup = five;
rightKerningGroup = five1;
unicode = 53;
},
{
glyphname = six;
layers = (
{
layerId = "147A3F7D-7F40-49EB-AD29-5B1295CBA645";
shapes = (
{
closed = 1;
nodes = (
(93,-10,o),
(4,87,o),
(27,230,cs),
(58,410,o),
(194,579,o),
(332,710,c),
(490,650,l),
(389,568,o),
(315,494,o),
(274,426,c),
(298,441,o),
(338,450,o),
(379,450,cs),
(502,450,o),
(571,363,o),
(549,236,cs),
(525,88,o),
(403,-10,o),
(248,-10,cs)
);
},
{
closed = 1;
nodes = (
(329,143,o),
(364,176,o),
(374,238,c),
(385,299,o),
(360,332,o),
(305,332,cs),
(251,332,o),
(216,299,o),
(204,238,c),
(194,176,o),
(219,143,o),
(274,143,cs)
);
}
);
width = 594;
},
{
layerId = "829015CF-4750-49AF-8B75-DA4E2F394C23";
shapes = (
{
closed = 1;
nodes = (
(94,-10,o),
(12,87,o),
(35,230,cs),
(64,397,o),
(235,592,o),
(362,710,c),
(447,670,l),
(343,577,o),
(259,487,o),
(208,406,c),
(242,432,o),
(296,450,o),
(345,450,cs),
(474,450,o),
(547,362,o),
(525,232,cs),
(502,87,o),
(386,-10,o),
(240,-10,cs)
);
},
{
closed = 1;
nodes = (
(340,81,o),
(403,138,o),
(418,226,cs),
(433,315,o),
(389,371,o),
(304,371,cs),
(220,371,o),
(157,315,o),
(142,226,cs),
(127,138,o),
(172,81,o),
(255,81,cs)
);
}
);
width = 579;
},
{
layerId = "803E4031-45E0-466E-BF99-85A631E5C1E1";
shapes = (
{
closed = 1;
nodes = (
(95,-10,o),
(17,87,o),
(40,230,cs),
(67,389,o),
(259,599,o),
(380,710,c),
(421,682,l),
(315,583,o),
(226,482,o),
(169,394,c),
(208,426,o),
(271,450,o),
(325,450,cs),
(457,450,o),
(532,361,o),
(510,230,cs),
(488,87,o),
(375,-10,o),
(235,-10,cs)
);
},
{
closed = 1;
nodes = (
(347,43,o),
(427,115,o),
(445,219,cs),
(462,325,o),
(406,394,o),
(303,394,cs),
(202,394,o),
(122,325,o),
(104,219,cs),
(87,115,o),
(143,43,o),
(244,43,cs)
);
}
);
width = 570;
}
);
leftKerningGroup = six2;
rightKerningGroup = six;
unicode = 54;
},
{
glyphname = seven;
layers = (
{
layerId = "147A3F7D-7F40-49EB-AD29-5B1295CBA645";
shapes = (
{
closed = 1;
nodes = (
(96,700,l),
(72,553,l),
(350,553,l),
(239,406,o),
(138,225,o),
(57,21,c),
(228,-10,l),
(309,201,o),
(400,375,o),
(543,568,c),
(543,700,l)
);
}
);
width = 523;
},
{
layerId = "829015CF-4750-49AF-8B75-DA4E2F394C23";
shapes = (
{
closed = 1;
nodes = (
(104,700,l),
(90,611,l),
(425,611,l),
(295,430,o),
(175,223,o),
(86,19,c),
(187,-10,l),
(283,217,o),
(392,411,o),
(544,623,c),
(543,700,l)
);
}
);
width = 523;
},
{
layerId = "803E4031-45E0-466E-BF99-85A631E5C1E1";
shapes = (
{
closed = 1;
nodes = (
(109,700,l),
(100,646,l),
(470,646,l),
(329,445,o),
(197,221,o),
(104,17,c),
(162,-10,l),
(267,226,o),
(387,433,o),
(545,656,c),
(543,700,l)
);
}
);
width = 523;
}
);
leftKerningGroup = seven2;
rightKerningGroup = seven;
unicode = 55;
},
{
glyphname = eight;
layers = (
{
layerId = "147A3F7D-7F40-49EB-AD29-5B1295CBA645";
shapes = (
{
closed = 1;
nodes = (
(93,-10,o),
(3,80,o),
(25,213,cs),
(36,279,o),
(87,347,o),
(154,384,c),
(116,407,o),
(95,457,o),
(104,508,cs),
(124,628,o),
(231,710,o),
(369,710,cs),
(507,710,o),
(585,628,o),
(564,508,c),
(557,458,o),
(520,409,o),
(474,384,c),
(529,350,o),
(557,282,o),
(545,213,cs),
(523,80,o),
(403,-10,o),
(248,-10,cs)
);
},
{
closed = 1;
nodes = (
(329,143,o),
(364,175,o),
(373,230,cs),
(382,286,o),
(358,317,o),
(303,317,cs),
(248,317,o),
(213,286,o),
(204,230,cs),
(195,175,o),
(219,143,o),
(274,143,cs)
);
},
{
closed = 1;
nodes = (
(361,435,o),
(387,457,o),
(395,496,c),
(401,535,o),
(381,557,o),
(342,557,cs),
(303,557,o),
(278,535,o),
(272,496,c),
(264,457,o),
(284,435,o),
(323,435,cs)
);
}
);
width = 594;
},
{
layerId = "829015CF-4750-49AF-8B75-DA4E2F394C23";
shapes = (
{
closed = 1;
nodes = (
(94,-10,o),
(10,74,o),
(31,201,cs),
(44,280,o),
(106,352,o),
(183,380,c),
(132,403,o),
(103,458,o),
(113,519,cs),
(132,634,o),
(232,710,o),
(361,710,cs),
(490,710,o),
(563,634,o),
(544,519,cs),
(534,457,o),
(486,401,o),
(427,380,c),
(495,353,o),
(534,281,o),
(520,201,cs),
(499,74,o),
(386,-10,o),
(240,-10,cs)
);
},
{
closed = 1;
nodes = (
(340,81,o),
(402,130,o),
(416,207,c),
(428,284,o),
(383,333,o),
(297,333,cs),
(214,333,o),
(151,284,o),
(139,207,cs),
(126,130,o),
(172,81,o),
(255,81,cs)
);
},
{
closed = 1;
nodes = (
(379,412,o),
(428,453,o),
(439,515,c),
(449,579,o),
(413,620,o),
(345,620,cs),
(278,620,o),
(228,579,o),
(218,515,cs),
(207,453,o),
(244,412,o),
(311,412,cs)
);
}
);
width = 579;
},
{
layerId = "803E4031-45E0-466E-BF99-85A631E5C1E1";
shapes = (
{
closed = 1;
nodes = (
(95,-10,o),
(14,71,o),
(35,194,cs),
(49,281,o),
(117,355,o),
(201,378,c),
(142,400,o),
(108,459,o),
(119,526,cs),
(137,637,o),
(233,710,o),
(356,710,cs),
(480,710,o),
(550,637,o),
(532,526,cs),
(520,456,o),
(466,396,o),
(398,378,c),
(475,355,o),
(520,281,o),
(505,194,cs),
(484,71,o),
(375,-10,o),
(235,-10,cs)
);
},
{
closed = 1;
nodes = (
(347,43,o),
(425,103,o),
(441,193,cs),
(455,282,o),
(398,342,o),
(294,342,cs),
(193,342,o),
(114,282,o),
(100,193,cs),
(85,103,o),
(143,43,o),
(244,43,cs)
);
},
{
closed = 1;
nodes = (
(389,398,o),
(452,450,o),
(466,527,c),
(478,605,o),
(432,657,o),
(347,657,cs),
(263,657,o),
(198,605,o),
(185,527,cs),
(172,450,o),
(220,398,o),
(304,398,cs)
);
}
);
width = 570;
}
);
leftKerningGroup = eight;
rightKerningGroup = eight1;
unicode = 56;
},
{
glyphname = nine;
layers = (
{
layerId = "147A3F7D-7F40-49EB-AD29-5B1295CBA645";
shapes = (
{
closed = 1;
nodes = (
(524,710,o),
(611,604,o),
(584,447,cs),
(558,286,o),
(383,104,o),
(263,-10,c),
(99,53,l),
(218,145,o),
(288,204,o),
(345,275,c),
(320,261,o),
(286,250,o),
(239,250,cs),
(112,250,o),
(45,336,o),
(67,464,cs),
(91,612,o),
(214,710,o),
(369,710,cs)
);
},
{
closed = 1;
nodes = (
(288,557,o),
(253,524,o),
(243,463,cs),
(233,401,o),
(256,368,o),
(311,368,cs),
(366,368,o),
(402,401,o),
(412,463,cs),
(422,524,o),
(397,557,o),
(342,557,cs)
);
}
);
width = 594;
},
{
layerId = "829015CF-4750-49AF-8B75-DA4E2F394C23";
shapes = (
{
closed = 1;
nodes = (
(507,710,o),
(589,610,o),
(564,463,cs),
(538,306,o),
(354,106,o),
(242,-10,c),
(153,32,l),
(264,135,o),
(336,210,o),
(396,298,c),
(363,270,o),
(311,250,o),
(250,250,cs),
(136,250,o),
(54,339,o),
(76,468,cs),
(100,613,o),
(215,710,o),
(361,710,cs)
);
},
{
closed = 1;
nodes = (
(262,620,o),
(199,563,o),
(184,474,cs),
(169,386,o),
(213,329,o),
(297,329,cs),
(382,329,o),
(445,386,o),
(460,474,cs),
(475,563,o),
(431,620,o),
(345,620,cs)
);
}
);
width = 579;
},
{
layerId = "803E4031-45E0-466E-BF99-85A631E5C1E1";
shapes = (
{
closed = 1;
nodes = (
(496,710,o),
(576,614,o),
(552,472,cs),
(526,318,o),
(337,107,o),
(229,-10,c),
(185,19,l),
(291,129,o),
(365,214,o),
(426,311,c),
(388,276,o),
(326,250,o),
(256,250,cs),
(150,250,o),
(59,341,o),
(81,470,cs),
(105,613,o),
(216,710,o),
(356,710,cs)
);
},
{
closed = 1;
nodes = (
(246,657,o),
(166,587,o),
(148,481,cs),
(130,377,o),
(187,306,o),
(289,306,cs),
(392,306,o),
(471,377,o),
(488,481,cs),
(507,587,o),
(451,657,o),
(347,657,cs)
);
}
);
width = 570;
}
);
leftKerningGroup = nine;
rightKerningGroup = nine1;
unicode = 57;
},
{
glyphname = zero.osf;
layers = (
{
layerId = "147A3F7D-7F40-49EB-AD29-5B1295CBA645";
shapes = (
{
closed = 1;
nodes = (
(88,-10,o),
(4,87,o),
(31,250,cs),
(58,413,o),
(175,510,o),
(343,510,cs),
(510,510,o),
(595,413,o),
(568,250,cs),
(541,87,o),
(423,-10,o),
(256,-10,cs)
);
},
{
closed = 1;
nodes = (
(340,143,o),
(381,183,o),
(393,250,cs),
(404,317,o),
(376,357,o),
(318,357,cs),
(259,357,o),
(218,317,o),
(207,250,cs),
(195,183,o),
(224,143,o),
(282,143,cs)
);
}
);
width = 611;
},
{
layerId = "829015CF-4750-49AF-8B75-DA4E2F394C23";
shapes = (
{
closed = 1;
nodes = (
(93,-10,o),
(12,87,o),
(39,250,cs),
(66,413,o),
(180,510,o),
(343,510,cs),
(506,510,o),
(588,413,o),
(561,250,cs),
(534,87,o),
(419,-10,o),
(256,-10,cs)
);
},
{
closed = 1;
nodes = (
(368,81,o),
(436,144,o),
(454,250,cs),
(472,356,o),
(424,420,o),
(328,420,cs),
(231,420,o),
(164,356,o),
(146,250,cs),
(128,144,o),
(175,81,o),
(271,81,cs)
);
}
);
width = 611;
},
{
layerId = "803E4031-45E0-466E-BF99-85A631E5C1E1";
shapes = (
{
closed = 1;
nodes = (
(96,-10,o),
(17,87,o),
(44,250,cs),
(71,413,o),
(183,510,o),
(343,510,cs),
(504,510,o),
(583,413,o),
(556,250,cs),
(529,87,o),
(417,-10,o),
(256,-10,cs)
);
},
{
closed = 1;
nodes = (
(384,43,o),
(469,121,o),
(491,250,cs),
(512,379,o),
(453,457,o),
(334,457,cs),
(214,457,o),
(131,379,o),
(110,250,cs),
(88,121,o),
(145,43,o),
(265,43,cs)
);
}
);
width = 611;
}
);
leftKerningGroup = zero.osf;
rightKerningGroup = zero.osf1;
},
{
glyphname = one.osf;
layers = (
{
layerId = "147A3F7D-7F40-49EB-AD29-5B1295CBA645";
shapes = (
{
closed = 1;
nodes = (
(417,500,l),
(333,0,l),
(158,0,l),
(207,292,l),
(171,265,o),
(102,225,o),
(55,204,c),
(28,337,l),
(122,389,o),
(201,443,o),
(265,500,c)
);
}
);
width = 455;
},
{
layerId = "829015CF-4750-49AF-8B75-DA4E2F394C23";
shapes = (
{
closed = 1;
nodes = (
(350,500,l),
(266,0,l),
(160,0,l),
(221,366,l),
(184,337,o),
(117,296,o),
(61,267,c),
(37,351,l),
(119,396,o),
(190,445,o),
(253,500,c)
);
}
);
width = 404;
},
{
layerId = "803E4031-45E0-466E-BF99-85A631E5C1E1";
shapes = (
{
closed = 1;
nodes = (
(310,500,l),
(226,0,l),
(161,0,l),
(230,411,l),
(192,380,o),
(126,338,o),
(64,305,c),
(43,360,l),
(117,400,o),
(184,446,o),
(245,500,c)
);
}
);
width = 373;
}
);
},
{
glyphname = two.osf;
layers = (
{
layerId = "147A3F7D-7F40-49EB-AD29-5B1295CBA645";
shapes = (
{
closed = 1;
nodes = (
(487,271,o),
(431,210,o),
(359,173,cs),
(311,148,l),
(518,148,l),
(492,0,l),
(2,0,l),
(16,85,l),
(172,170,l),
(267,224,o),
(310,262,o),
(317,306,cs),
(322,336,o),
(300,357,o),
(270,357,cs),
(230,357,o),
(181,302,o),
(192,268,c),
(34,281,l),
(56,422,o),
(173,510,o),
(307,510,cs),
(434,510,o),
(515,432,o),
(500,347,cs)
);
}
);
width = 575;
},
{
layerId = "829015CF-4750-49AF-8B75-DA4E2F394C23";
shapes = (
{
closed = 1;
nodes = (
(476,258,o),
(409,192,o),
(293,133,cs),
(209,89,l),
(492,89,l),
(476,0,l),
(17,0,l),
(27,62,l),
(206,158,ls),
(325,222,o),
(373,269,o),
(381,325,cs),
(391,384,o),
(357,420,o),
(294,420,cs),
(221,420,o),
(163,361,o),
(153,276,c),
(53,287,l),
(79,419,o),
(184,510,o),
(313,510,cs),
(440,510,o),
(507,440,o),
(490,339,cs)
);
}
);
width = 574;
},
{
layerId = "803E4031-45E0-466E-BF99-85A631E5C1E1";
shapes = (
{
closed = 1;
nodes = (
(470,250,o),
(395,181,o),
(254,109,cs),
(148,54,l),
(476,54,l),
(467,0,l),
(26,0,l),
(33,48,l),
(226,150,ls),
(359,220,o),
(410,273,o),
(420,337,cs),
(432,412,o),
(391,457,o),
(309,457,cs),
(216,457,o),
(152,397,o),
(130,281,c),
(64,290,l),
(92,417,o),
(191,510,o),
(317,510,cs),
(443,510,o),
(502,445,o),
(484,334,cs)
);
}
);
width = 574;
}
);
leftKerningGroup = two.osf;
rightKerningGroup = two.osf1;
},
{
glyphname = three.osf;
layers = (
{
layerId = "147A3F7D-7F40-49EB-AD29-5B1295CBA645";
shapes = (
{
closed = 1;
nodes = (
(30,-93,l),
(52,-94,o),
(73,-95,o),
(92,-95,cs),
(234,-98,o),
(308,-47,o),
(320,16,c),
(327,59,o),
(298,93,o),
(248,93,cs),
(176,93,l),
(198,224,l),
(216,224,ls),
(293,224,o),
(339,253,o),
(348,301,cs),
(354,336,o),
(329,357,o),
(290,357,cs),
(249,357,o),
(214,330,o),
(194,288,c),
(44,318,l),
(91,441,o),
(194,510,o),
(315,510,cs),
(449,510,o),
(545,430,o),
(527,318,cs),
(516,255,o),
(462,202,o),
(401,184,c),
(471,160,o),
(509,102,o),
(495,22,cs),
(472,-119,o),
(331,-243,o),
(93,-240,cs),
(79,-240,o),
(60,-240,o),
(43,-239,c)
);
}
);
width = 575;
},
{
layerId = "829015CF-4750-49AF-8B75-DA4E2F394C23";
shapes = (
{
closed = 1;
nodes = (
(30,-150,l),
(43,-150,o),
(56,-151,o),
(68,-150,cs),
(263,-141,o),
(345,-72,o),
(359,12,cs),
(371,79,o),
(329,126,o),
(241,126,cs),
(176,126,l),
(189,207,l),
(223,207,ls),
(323,207,o),
(380,252,o),
(392,320,cs),
(402,380,o),
(362,420,o),
(296,420,cs),
(232,420,o),
(180,383,o),
(150,329,c),
(65,357,l),
(109,449,o),
(199,510,o),
(311,510,cs),
(434,510,o),
(517,433,o),
(499,326,cs),
(487,251,o),
(425,196,o),
(358,180,c),
(434,158,o),
(480,100,o),
(466,13,cs),
(444,-120,o),
(318,-231,o),
(68,-239,c),
(58,-239,o),
(45,-239,o),
(33,-239,c)
);
}
);
width = 563;
},
{
layerId = "803E4031-45E0-466E-BF99-85A631E5C1E1";
shapes = (
{
closed = 1;
nodes = (
(30,-184,l),
(38,-184,o),
(46,-184,o),
(53,-183,cs),
(280,-167,o),
(367,-87,o),
(383,9,cs),
(397,91,o),
(348,146,o),
(236,146,cs),
(176,146,l),
(184,197,l),
(227,197,ls),
(341,197,o),
(404,251,o),
(418,332,cs),
(430,406,o),
(382,457,o),
(299,457,cs),
(222,457,o),
(159,415,o),
(124,354,c),
(77,380,l),
(120,454,o),
(202,510,o),
(308,510,cs),
(425,510,o),
(500,435,o),
(482,331,cs),
(469,249,o),
(402,192,o),
(332,178,c),
(411,156,o),
(463,98,o),
(449,8,cs),
(427,-121,o),
(310,-223,o),
(53,-238,c),
(45,-239,o),
(36,-239,o),
(27,-239,c)
);
}
);
width = 555;
}
);
leftKerningGroup = three.osf;
},
{
glyphname = four.osf;
layers = (
{
layerId = "147A3F7D-7F40-49EB-AD29-5B1295CBA645";
shapes = (
{
closed = 1;
nodes = (
(549,0,l),
(431,0,l),
(406,-147,l),
(232,-147,l),
(256,0,l),
(-30,0,l),
(-9,127,l),
(108,242,o),
(216,369,o),
(318,500,c),
(515,500,l),
(456,148,l),
(574,148,l)
);
},
{
closed = 1;
nodes = (
(282,148,l),
(313,336,l),
(270,269,o),
(212,198,o),
(157,148,c)
);
}
);
width = 614;
},
{
layerId = "829015CF-4750-49AF-8B75-DA4E2F394C23";
shapes = (
{
closed = 1;
nodes = (
(527,0,l),
(409,0,l),
(381,-163,l),
(275,-163,l),
(302,0,l),
(-23,0,l),
(-10,76,l),
(132,217,o),
(260,357,o),
(379,500,c),
(493,500,l),
(424,89,l),
(542,89,l)
);
},
{
closed = 1;
nodes = (
(317,89,l),
(366,380,l),
(280,278,o),
(198,187,o),
(98,89,c)
);
}
);
width = 598;
},
{
layerId = "803E4031-45E0-466E-BF99-85A631E5C1E1";
shapes = (
{
closed = 1;
nodes = (
(513,0,l),
(395,0,l),
(366,-172,l),
(301,-172,l),
(329,0,l),
(-18,0,l),
(-10,46,l),
(147,202,o),
(286,349,o),
(416,500,c),
(479,500,l),
(404,54,l),
(522,54,l)
);
},
{
closed = 1;
nodes = (
(338,54,l),
(397,407,l),
(286,283,o),
(190,181,o),
(63,54,c)
);
}
);
width = 589;
}
);
leftKerningGroup = four.osf;
rightKerningGroup = four.osf1;
},
{
glyphname = five.osf;
layers = (
{
layerId = "147A3F7D-7F40-49EB-AD29-5B1295CBA645";
shapes = (
{
closed = 1;
nodes = (
(-12,-82,l),
(8,-84,o),
(29,-85,o),
(48,-85,cs),
(210,-87,o),
(295,-16,o),
(307,58,c),
(316,107,o),
(287,132,o),
(233,132,cs),
(194,132,o),
(144,110,o),
(98,67,c),
(3,115,l),
(91,500,l),
(498,500,l),
(473,353,l),
(228,353,l),
(195,225,l),
(234,247,o),
(276,262,o),
(332,262,cs),
(435,262,o),
(501,176,o),
(480,52,cs),
(456,-95,o),
(289,-235,o),
(41,-236,cs),
(33,-236,o),
(21,-235,o),
(12,-235,c)
);
}
);
width = 556;
},
{
layerId = "829015CF-4750-49AF-8B75-DA4E2F394C23";
shapes = (
{
closed = 1;
nodes = (
(-3,-146,l),
(7,-147,o),
(19,-147,o),
(29,-147,c),
(234,-137,o),
(342,-59,o),
(360,46,cs),
(373,127,o),
(328,170,o),
(249,170,cs),
(195,170,o),
(138,143,o),
(91,99,c),
(21,124,l),
(107,500,l),
(483,500,l),
(469,411,l),
(190,411,l),
(141,208,l),
(184,235,o),
(237,253,o),
(301,253,cs),
(417,253,o),
(487,175,o),
(465,44,cs),
(440,-104,o),
(285,-227,o),
(29,-237,c),
(21,-237,o),
(12,-237,o),
(3,-237,c)
);
}
);
width = 557;
},
{
layerId = "803E4031-45E0-466E-BF99-85A631E5C1E1";
shapes = (
{
closed = 1;
nodes = (
(2,-185,l),
(7,-185,o),
(13,-184,o),
(18,-184,c),
(249,-167,o),
(370,-85,o),
(391,39,cs),
(407,139,o),
(353,193,o),
(258,193,cs),
(196,193,o),
(134,163,o),
(86,118,c),
(32,129,l),
(116,500,l),
(474,500,l),
(466,446,l),
(167,446,l),
(108,197,l),
(154,228,o),
(214,248,o),
(282,248,cs),
(406,248,o),
(479,175,o),
(456,39,cs),
(431,-110,o),
(282,-222,o),
(21,-237,c),
(14,-237,o),
(6,-238,o),
(-2,-238,c)
);
}
);
width = 557;
}
);
leftKerningGroup = five.osf;
rightKerningGroup = five.osf1;
},
{
glyphname = one.tf;
layers = (
{
layerId = "147A3F7D-7F40-49EB-AD29-5B1295CBA645";
shapes = (
{
closed = 1;
nodes = (
(56,130,l),
(492,130,l),
(470,0,l),
(34,0,l)
);
},
{
closed = 1;
nodes = (
(517,700,l),
(400,0,l),
(226,0,l),
(308,491,l),
(272,466,o),
(192,417,o),
(152,398,c),
(127,538,l),
(209,587,o),
(288,640,o),
(366,700,c)
);
}
);
width = 600;
},
{
layerId = "829015CF-4750-49AF-8B75-DA4E2F394C23";
shapes = (
{
closed = 1;
nodes = (
(48,83,l),
(484,83,l),
(470,0,l),
(34,0,l)
);
},
{
closed = 1;
nodes = (
(455,700,l),
(338,0,l),
(232,0,l),
(327,569,l),
(290,539,o),
(223,497,o),
(168,467,c),
(145,549,l),
(223,593,o),
(293,643,o),
(357,700,c)
);
}
);
width = 600;
},
{
layerId = "803E4031-45E0-466E-BF99-85A631E5C1E1";
shapes = (
{
closed = 1;
nodes = (
(43,55,l),
(479,55,l),
(470,0,l),
(34,0,l)
);
},
{
closed = 1;
nodes = (
(418,700,l),
(301,0,l),
(236,0,l),
(339,616,l),
(300,582,o),
(242,545,o),
(178,508,c),
(156,555,l),
(232,597,o),
(296,645,o),
(352,700,c)
);
}
);
width = 600;
}
);
},
{
glyphname = one.tosf;
layers = (
{
layerId = "147A3F7D-7F40-49EB-AD29-5B1295CBA645";
shapes = (
{
closed = 1;
nodes = (
(454,500,l),
(370,0,l),
(194,0,l),
(244,292,l),
(209,265,o),
(138,225,o),
(91,204,c),
(64,337,l),
(158,389,o),
(238,443,o),
(302,500,c)
);
},
{
closed = 1;
nodes = (
(56,130,l),
(492,130,l),
(470,0,l),
(34,0,l)
);
}
);
width = 600;
},
{
layerId = "829015CF-4750-49AF-8B75-DA4E2F394C23";
shapes = (
{
closed = 1;
nodes = (
(418,500,l),
(334,0,l),
(227,0,l),
(288,366,l),
(253,337,o),
(184,296,o),
(127,267,c),
(105,351,l),
(186,396,o),
(257,445,o),
(320,500,c)
);
},
{
closed = 1;
nodes = (
(48,83,l),
(484,83,l),
(470,0,l),
(34,0,l)
);
}
);
width = 600;
},
{
layerId = "803E4031-45E0-466E-BF99-85A631E5C1E1";
shapes = (
{
closed = 1;
nodes = (
(396,500,l),
(312,0,l),
(247,0,l),
(315,411,l),
(279,380,o),
(211,338,o),
(149,305,c),
(129,360,l),
(202,400,o),
(269,446,o),
(330,500,c)
);
},
{
closed = 1;
nodes = (
(43,55,l),
(479,55,l),
(470,0,l),
(34,0,l)
);
}
);
width = 600;
}
);
},
{
glyphname = AE;
layers = (
{
anchors = (
{
name = m.uni0321_3;
position = "{2078, 0}";
},
{
name = t.uni0308_1_3;
position = "{629, 698}";
},
{
name = m.uni0328_3;
position = "{796, 0}";
}
);
layerId = "147A3F7D-7F40-49EB-AD29-5B1295CBA645";
shapes = (
{
closed = 1;
nodes = (
(582,306,l),
(555,141,l),
(200,141,l),
(228,306,l)
);
},
{
closed = 1;
nodes = (
(590,535,l),
(419,535,l),
(157,0,l),
(-40,0,l),
(331,700,l),
(617,700,l)
);
},
{
closed = 1;
nodes = (
(1006,700,l),
(981,547,l),
(648,547,l),
(703,595,l),
(620,105,l),
(581,153,l),
(914,153,l),
(889,0,l),
(427,0,l),
(544,700,l)
);
},
{
closed = 1;
nodes = (
(962,438,l),
(937,284,l),
(514,284,l),
(539,438,l)
);
}
);
width = 996;
},
{
anchors = (
{
name = m.uni0321_3;
position = "{2078, 0}";
},
{
name = t.uni0308_1_3;
position = "{629, 698}";
},
{
name = m.uni0328_3;
position = "{796, 0}";
}
);
layerId = "829015CF-4750-49AF-8B75-DA4E2F394C23";
shapes = (
{
closed = 1;
nodes = (
(545,267,l),
(529,172,l),
(166,172,l),
(183,267,l)
);
},
{
closed = 1;
nodes = (
(601,606,l),
(424,606,l),
(88,0,l),
(-31,0,l),
(370,700,l),
(617,700,l)
);
},
{
closed = 1;
nodes = (
(998,700,l),
(983,610,l),
(612,610,l),
(667,658,l),
(564,43,l),
(525,91,l),
(896,91,l),
(881,0,l),
(451,0,l),
(568,700,l)
);
},
{
closed = 1;
nodes = (
(948,402,l),
(933,312,l),
(542,312,l),
(557,402,l)
);
}
);
width = 1001;
},
{
anchors = (
{
name = m.uni0321_3;
position = "{2078, 0}";
},
{
name = t.uni0308_1_3;
position = "{629, 698}";
},
{
name = m.uni0328_3;
position = "{796, 0}";
}
);
layerId = "803E4031-45E0-466E-BF99-85A631E5C1E1";
shapes = (
{
closed = 1;
nodes = (
(523,244,l),
(513,191,l),
(146,191,l),
(156,244,l)
);
},
{
closed = 1;
nodes = (
(608,648,l),
(427,648,l),
(47,0,l),
(-26,0,l),
(393,700,l),
(617,700,l)
);
},
{
closed = 1;
nodes = (
(993,700,l),
(984,647,l),
(590,647,l),
(645,695,l),
(530,5,l),
(491,53,l),
(885,53,l),
(876,0,l),
(465,0,l),
(582,700,l)
);
},
{
closed = 1;
nodes = (
(940,381,l),
(931,328,l),
(558,328,l),
(567,381,l)
);
}
);
width = 1004;
}
);
leftKerningGroup = A;
rightKerningGroup = E;
unicode = 198;
},
{
glyphname = Schwa;
layers = (
{
layerId = "147A3F7D-7F40-49EB-AD29-5B1295CBA645";
shapes = (
{
closed = 1;
nodes = (
(172,264,l),
(217,294,l),
(202,203,o),
(276,155,o),
(374,155,cs),
(464,155,o),
(562,222,o),
(579,325,cs),
(585,364,ls),
(603,471,o),
(539,545,o),
(428,545,cs),
(356,545,o),
(286,500,o),
(243,427,c),
(99,505,l),
(176,632,o),
(308,710,o),
(455,710,cs),
(673,710,o),
(796,565,o),
(760,350,cs),
(724,135,o),
(563,-10,o),
(346,-10,cs),
(139,-10,o),
(11,134,o),
(47,344,cs),
(53,382,l),
(629,382,l),
(610,264,l)
);
}
);
width = 786;
},
{
layerId = "829015CF-4750-49AF-8B75-DA4E2F394C23";
shapes = (
{
closed = 1;
nodes = (
(106,288,l),
(156,321,l),
(132,176,o),
(212,85,o),
(362,85,cs),
(502,85,o),
(633,185,o),
(656,325,cs),
(660,349,ls),
(687,507,o),
(602,616,o),
(447,616,cs),
(353,616,o),
(263,563,o),
(206,478,c),
(125,531,l),
(202,643,o),
(327,710,o),
(463,710,cs),
(681,710,o),
(804,565,o),
(768,350,cs),
(732,135,o),
(564,-10,o),
(346,-10,cs),
(140,-10,o),
(20,135,o),
(55,347,c),
(59,366,l),
(689,366,l),
(676,288,l)
);
}
);
width = 802;
},
{
layerId = "803E4031-45E0-466E-BF99-85A631E5C1E1";
shapes = (
{
closed = 1;
nodes = (
(67,302,l),
(120,337,l),
(90,159,o),
(174,43,o),
(355,43,cs),
(524,43,o),
(676,162,o),
(702,325,c),
(705,340,l),
(737,529,o),
(640,658,o),
(459,658,cs),
(351,658,o),
(249,601,o),
(183,508,c),
(140,546,l),
(217,649,o),
(338,710,o),
(468,710,cs),
(686,710,o),
(809,565,o),
(773,350,cs),
(737,135,o),
(564,-10,o),
(346,-10,cs),
(140,-10,o),
(25,136,o),
(60,349,c),
(62,357,l),
(725,357,l),
(716,302,l)
);
}
);
width = 811;
}
);
leftKerningGroup = C2;
rightKerningGroup = D;
unicode = 399;
},
{
glyphname = Nhookleft;
layers = (
{
anchors = (
{
name = m.uni0321_3;
position = "{381, 0}";
},
{
name = t.uni0308_1_3;
position = "{501, 700}";
}
);
layerId = "147A3F7D-7F40-49EB-AD29-5B1295CBA645";
shapes = (
{
closed = 1;
nodes = (
(-55,-110,l),
(7,-93,o),
(43,-52,o),
(54,13,cs),
(102,300,l),
(277,300,l),
(230,13,ls),
(207,-122,o),
(131,-210,o),
(-1,-240,c)
);
},
{
closed = 1;
nodes = (
(852,700,l),
(735,0,l),
(551,0,l),
(304,458,l),
(227,0,l),
(52,0,l),
(169,700,l),
(355,700,l),
(600,244,l),
(677,700,l)
);
}
);
width = 858;
},
{
anchors = (
{
name = m.uni0321_3;
position = "{381, 0}";
},
{
name = t.uni0308_1_3;
position = "{501, 700}";
}
);
layerId = "829015CF-4750-49AF-8B75-DA4E2F394C23";
shapes = (
{
closed = 1;
nodes = (
(-63,-157,l),
(-7,-146,o),
(26,-110,o),
(36,-50,cs),
(94,299,l),
(201,299,l),
(143,-50,ls),
(125,-158,o),
(66,-216,o),
(-39,-240,c)
);
},
{
closed = 1;
nodes = (
(783,700,l),
(666,0,l),
(551,0,l),
(242,544,l),
(151,0,l),
(44,0,l),
(161,700,l),
(271,700,l),
(584,150,l),
(677,700,l)
);
}
);
width = 804;
},
{
anchors = (
{
name = m.uni0321_3;
position = "{381, 0}";
},
{
name = t.uni0308_1_3;
position = "{501, 700}";
}
);
layerId = "803E4031-45E0-466E-BF99-85A631E5C1E1";
shapes = (
{
closed = 1;
nodes = (
(-68,-185,l),
(-16,-178,o),
(15,-145,o),
(25,-87,cs),
(89,299,l),
(155,299,l),
(91,-87,ls),
(75,-180,o),
(27,-220,o),
(-62,-240,c)
);
},
{
closed = 1;
nodes = (
(742,700,l),
(625,0,l),
(551,0,l),
(204,595,l),
(105,0,l),
(39,0,l),
(156,700,l),
(220,700,l),
(575,94,l),
(677,700,l)
);
}
);
width = 771;
}
);
leftKerningGroup = B1;
unicode = 413;
},
{
glyphname = Eng;
layers = (
{
anchors = (
{
name = m.uni0321_3;
position = "{361, 0}";
},
{
name = t.uni0308_1_3;
position = "{481, 700}";
}
);
layerId = "147A3F7D-7F40-49EB-AD29-5B1295CBA645";
shapes = (
{
closed = 1;
nodes = (
(428,-110,l),
(491,-93,o),
(526,-52,o),
(537,13,cs),
(585,300,l),
(761,300,l),
(713,13,ls),
(690,-122,o),
(614,-210,o),
(483,-240,c)
);
},
{
closed = 1;
nodes = (
(828,700,l),
(711,0,l),
(526,0,l),
(279,458,l),
(202,0,l),
(27,0,l),
(144,700,l),
(330,700,l),
(576,244,l),
(652,700,l)
);
}
);
width = 833;
},
{
anchors = (
{
name = m.uni0321_3;
position = "{361, 0}";
},
{
name = t.uni0308_1_3;
position = "{481, 700}";
}
);
layerId = "829015CF-4750-49AF-8B75-DA4E2F394C23";
shapes = (
{
closed = 1;
nodes = (
(451,-157,l),
(507,-146,o),
(539,-110,o),
(550,-50,cs),
(608,299,l),
(715,299,l),
(657,-50,ls),
(639,-158,o),
(580,-216,o),
(476,-240,c)
);
},
{
closed = 1;
nodes = (
(782,700,l),
(665,0,l),
(550,0,l),
(240,544,l),
(149,0,l),
(43,0,l),
(160,700,l),
(269,700,l),
(583,150,l),
(675,700,l)
);
}
);
width = 802;
},
{
anchors = (
{
name = m.uni0321_3;
position = "{361, 0}";
},
{
name = t.uni0308_1_3;
position = "{481, 700}";
}
);
layerId = "803E4031-45E0-466E-BF99-85A631E5C1E1";
shapes = (
{
closed = 1;
nodes = (
(464,-185,l),
(517,-178,o),
(547,-145,o),
(557,-87,cs),
(621,299,l),
(687,299,l),
(623,-87,ls),
(608,-180,o),
(559,-220,o),
(471,-240,c)
);
},
{
closed = 1;
nodes = (
(754,700,l),
(637,0,l),
(564,0,l),
(217,595,l),
(117,0,l),
(52,0,l),
(169,700,l),
(233,700,l),
(587,94,l),
(688,700,l)
);
}
);
width = 784;
}
);
unicode = 330;
},
{
glyphname = OE;
layers = (
{
anchors = (
{
name = m.uni0321_3;
position = "{791, 0}";
},
{
name = t.uni0308_1_3;
position = "{884, 700}";
},
{
name = m.uni0328_3;
position = "{900, 0}";
}
);
layerId = "147A3F7D-7F40-49EB-AD29-5B1295CBA645";
shapes = (
{
closed = 1;
nodes = (
(130,-10,o),
(12,135,o),
(48,350,cs),
(84,565,o),
(251,710,o),
(462,710,cs),
(633,710,o),
(741,596,o),
(730,425,c),
(588,425,l),
(584,496,o),
(520,545,o),
(434,545,cs),
(321,545,o),
(232,467,o),
(212,350,cs),
(192,233,o),
(255,155,o),
(368,155,cs),
(454,155,o),
(536,204,o),
(563,275,c),
(705,275,l),
(661,104,o),
(512,-10,o),
(341,-10,cs)
);
},
{
closed = 1;
nodes = (
(1096,700,l),
(1071,547,l),
(738,547,l),
(793,595,l),
(710,105,l),
(671,153,l),
(1004,153,l),
(979,0,l),
(517,0,l),
(634,700,l)
);
},
{
closed = 1;
nodes = (
(1052,438,l),
(1027,284,l),
(605,284,l),
(630,438,l)
);
}
);
width = 1086;
},
{
anchors = (
{
name = m.uni0321_3;
position = "{791, 0}";
},
{
name = t.uni0308_1_3;
position = "{884, 700}";
},
{
name = m.uni0328_3;
position = "{900, 0}";
}
);
layerId = "829015CF-4750-49AF-8B75-DA4E2F394C23";
shapes = (
{
closed = 1;
nodes = (
(141,-10,o),
(20,135,o),
(56,350,cs),
(92,565,o),
(262,710,o),
(478,710,cs),
(652,710,o),
(764,596,o),
(753,425,c),
(676,425,l),
(667,539,o),
(579,616,o),
(462,616,cs),
(307,616,o),
(186,508,o),
(159,350,cs),
(133,192,o),
(218,85,o),
(372,85,cs),
(490,85,o),
(604,161,o),
(651,275,c),
(728,275,l),
(682,104,o),
(531,-10,o),
(357,-10,cs)
);
},
{
closed = 1;
nodes = (
(1152,700,l),
(1137,610,l),
(766,610,l),
(821,658,l),
(718,43,l),
(679,91,l),
(1050,91,l),
(1035,0,l),
(605,0,l),
(722,700,l)
);
},
{
closed = 1;
nodes = (
(1102,402,l),
(1087,312,l),
(696,312,l),
(711,402,l)
);
}
);
width = 1155;
},
{
anchors = (
{
name = m.uni0321_3;
position = "{791, 0}";
},
{
name = t.uni0308_1_3;
position = "{884, 700}";
},
{
name = m.uni0328_3;
position = "{900, 0}";
}
);
layerId = "803E4031-45E0-466E-BF99-85A631E5C1E1";
shapes = (
{
closed = 1;
nodes = (
(147,-10,o),
(25,135,o),
(61,350,cs),
(97,565,o),
(268,710,o),
(487,710,cs),
(664,710,o),
(777,596,o),
(766,425,c),
(729,425,l),
(717,565,o),
(615,658,o),
(478,658,cs),
(299,658,o),
(158,533,o),
(127,350,cs),
(97,167,o),
(195,43,o),
(374,43,cs),
(512,43,o),
(644,135,o),
(704,275,c),
(741,275,l),
(694,104,o),
(543,-10,o),
(366,-10,cs)
);
},
{
closed = 1;
nodes = (
(1186,700,l),
(1177,647,l),
(783,647,l),
(838,695,l),
(723,5,l),
(684,53,l),
(1078,53,l),
(1069,0,l),
(657,0,l),
(774,700,l)
);
},
{
closed = 1;
nodes = (
(1132,381,l),
(1123,328,l),
(751,328,l),
(760,381,l)
);
}
);
width = 1196;
}
);
leftKerningGroup = C2;
unicode = 338;
},
{
glyphname = Thorn;
layers = (
{
layerId = "147A3F7D-7F40-49EB-AD29-5B1295CBA645";
shapes = (
{
closed = 1;
nodes = (
(401,610,ls),
(537,610,o),
(633,501,o),
(610,367,cs),
(588,233,o),
(456,123,o),
(320,123,cs),
(223,123,l),
(202,0,l),
(27,0,l),
(144,700,l),
(309,700,l),
(304,610,l)
);
},
{
closed = 1;
nodes = (
(347,288,ls),
(389,288,o),
(428,323,o),
(435,367,cs),
(442,411,o),
(415,445,o),
(373,445,cs),
(277,445,l),
(251,288,l)
);
}
);
width = 633;
},
{
layerId = "829015CF-4750-49AF-8B75-DA4E2F394C23";
shapes = (
{
closed = 1;
nodes = (
(393,610,ls),
(521,610,o),
(612,508,o),
(590,383,cs),
(569,257,o),
(445,154,o),
(317,154,cs),
(175,154,l),
(149,0,l),
(43,0,l),
(160,700,l),
(256,700,l),
(251,610,l)
);
},
{
closed = 1;
nodes = (
(332,249,ls),
(402,249,o),
(472,310,o),
(483,383,c),
(496,455,o),
(447,516,o),
(377,516,cs),
(236,516,l),
(191,249,l)
);
}
);
width = 618;
},
{
layerId = "803E4031-45E0-466E-BF99-85A631E5C1E1";
shapes = (
{
closed = 1;
nodes = (
(388,610,ls),
(512,610,o),
(599,512,o),
(578,392,cs),
(558,272,o),
(439,173,o),
(315,173,cs),
(146,173,l),
(117,0,l),
(52,0,l),
(169,700,l),
(224,700,l),
(219,610,l)
);
},
{
closed = 1;
nodes = (
(323,226,ls),
(410,226,o),
(498,302,o),
(512,392,cs),
(528,482,o),
(466,558,o),
(379,558,cs),
(211,558,l),
(155,226,l)
);
}
);
width = 609;
}
);
leftKerningGroup = B;
unicode = 222;
},
{
glyphname = Germandbls;
layers = (
{
layerId = "147A3F7D-7F40-49EB-AD29-5B1295CBA645";
shapes = (
{
closed = 1;
nodes = (
(575,436,l),
(573,436,l),
(708,424,o),
(783,352,o),
(762,226,cs),
(738,82,o),
(619,-10,o),
(475,-10,cs),
(380,-10,o),
(315,25,o),
(278,81,c),
(388,201,l),
(414,171,o),
(452,155,o),
(492,155,cs),
(540,155,o),
(581,188,o),
(588,226,c),
(594,267,o),
(551,307,o),
(475,307,cs),
(437,307,l),
(411,378,l),
(496,535,l),
(349,535,ls),
(311,535,o),
(288,515,o),
(282,475,cs),
(202,0,l),
(27,0,l),
(111,506,ls),
(129,612,o),
(236,700,o),
(345,700,cs),
(637,700,l),
(661,582,l)
);
}
);
width = 810;
},
{
layerId = "829015CF-4750-49AF-8B75-DA4E2F394C23";
shapes = (
{
closed = 1;
nodes = (
(544,436,l),
(542,436,l),
(686,430,o),
(769,358,o),
(747,226,cs),
(724,88,o),
(610,-10,o),
(460,-10,cs),
(352,-10,o),
(289,36,o),
(261,106,c),
(341,169,l),
(363,115,o),
(407,85,o),
(473,85,cs),
(559,85,o),
(627,148,o),
(641,226,c),
(653,303,o),
(589,354,o),
(483,354,cs),
(444,354,l),
(432,397,l),
(552,606,l),
(353,606,ls),
(284,606,o),
(244,570,o),
(233,499,cs),
(149,0,l),
(43,0,l),
(130,522,ls),
(147,628,o),
(235,700,o),
(345,700,cs),
(637,700,l),
(652,621,l)
);
}
);
width = 802;
},
{
layerId = "803E4031-45E0-466E-BF99-85A631E5C1E1";
shapes = (
{
closed = 1;
nodes = (
(526,436,l),
(524,436,l),
(673,433,o),
(761,362,o),
(738,226,cs),
(716,92,o),
(605,-10,o),
(451,-10,cs),
(335,-10,o),
(273,43,o),
(250,121,c),
(313,150,l),
(332,81,o),
(380,43,o),
(461,43,cs),
(570,43,o),
(655,124,o),
(673,226,cs),
(689,325,o),
(612,382,o),
(488,382,cs),
(448,382,l),
(444,409,l),
(585,648,l),
(355,648,ls),
(268,648,o),
(218,603,o),
(203,513,cs),
(117,0,l),
(52,0,l),
(141,531,ls),
(158,637,o),
(235,700,o),
(345,700,cs),
(637,700,l),
(646,644,l)
);
}
);
width = 797;
}
);
unicode = 7838;
},
{
glyphname = ae;
layers = (
{
anchors = (
{
name = m.uni0321_3;
position = "{1032, 0}";
},
{
name = t.uni0308_1_3;
position = "{477, 498}";
},
{
name = m.uni0328_3;
position = "{547, -10}";
}
);
layerId = "147A3F7D-7F40-49EB-AD29-5B1295CBA645";
shapes = (
{
closed = 1;
nodes = (
(48,-11,o),
(-14,49,o),
(2,146,cs),
(18,244,o),
(105,301,o),
(236,301,cs),
(426,301,l),
(408,186,ls),
(388,69,o),
(284,-11,o),
(164,-11,cs)
);
},
{
closed = 1;
nodes = (
(258,107,o),
(289,140,o),
(297,186,c),
(302,222,l),
(245,222,ls),
(203,222,o),
(175,202,o),
(169,169,cs),
(163,130,o),
(183,107,o),
(220,107,cs)
);
},
{
closed = 1;
nodes = (
(320,318,l),
(325,353,o),
(311,368,o),
(271,368,cs),
(222,368,o),
(157,353,o),
(101,329,c),
(93,463,l),
(155,493,o),
(222,510,o),
(292,510,cs),
(406,510,o),
(462,442,o),
(443,328,cs),
(430,250,l),
(308,250,l)
);
},
{
closed = 1;
nodes = (
(711,303,l),
(669,257,l),
(672,267,o),
(674,274,o),
(675,280,cs),
(684,336,o),
(652,368,o),
(595,368,cs),
(533,368,o),
(484,325,o),
(472,258,cs),
(469,240,ls),
(458,177,o),
(505,131,o),
(585,132,c),
(640,131,o),
(687,148,o),
(732,177,c),
(764,62,l),
(705,16,o),
(630,-10,o),
(541,-10,cs),
(375,-10,o),
(280,95,o),
(306,250,cs),
(332,405,o),
(458,510,o),
(618,510,cs),
(765,510,o),
(852,401,o),
(827,248,cs),
(822,219,l),
(434,219,l),
(447,303,l)
);
}
);
width = 858;
},
{
anchors = (
{
name = m.uni0321_3;
position = "{1032, 0}";
},
{
name = t.uni0308_1_3;
position = "{477, 498}";
},
{
name = m.uni0328_3;
position = "{547, -10}";
}
);
layerId = "829015CF-4750-49AF-8B75-DA4E2F394C23";
shapes = (
{
closed = 1;
nodes = (
(61,-10,o),
(2,48,o),
(17,139,cs),
(32,232,o),
(114,286,o),
(237,286,cs),
(425,286,l),
(410,199,ls),
(389,75,o),
(290,-10,o),
(168,-10,cs)
);
},
{
closed = 1;
nodes = (
(272,69,o),
(327,121,o),
(340,199,cs),
(345,227,l),
(250,227,ls),
(176,227,o),
(131,198,o),
(123,147,cs),
(115,99,o),
(146,69,o),
(201,69,cs)
);
},
{
closed = 1;
nodes = (
(361,326,ls),
(372,391,o),
(346,423,o),
(282,423,cs),
(233,423,o),
(171,404,o),
(120,378,c),
(103,456,l),
(158,489,o),
(230,510,o),
(302,510,cs),
(407,510,o),
(458,445,o),
(439,336,cs),
(424,250,l),
(349,250,l)
);
},
{
closed = 1;
nodes = (
(805,287,l),
(758,258,l),
(760,265,o),
(762,271,o),
(763,276,cs),
(778,365,o),
(728,423,o),
(638,423,cs),
(542,423,o),
(470,359,o),
(453,262,cs),
(449,237,ls),
(433,141,o),
(497,78,o),
(603,77,c),
(664,78,o),
(725,102,o),
(770,141,c),
(801,73,l),
(746,22,o),
(664,-10,o),
(575,-10,cs),
(414,-10,o),
(323,95,o),
(349,250,cs),
(375,405,o),
(497,510,o),
(652,510,cs),
(799,510,o),
(884,407,o),
(859,256,cs),
(853,223,l),
(413,223,l),
(423,287,l)
);
}
);
width = 904;
},
{
anchors = (
{
name = m.uni0321_3;
position = "{1032, 0}";
},
{
name = t.uni0308_1_3;
position = "{477, 498}";
},
{
name = m.uni0328_3;
position = "{547, -10}";
}
);
layerId = "803E4031-45E0-466E-BF99-85A631E5C1E1";
shapes = (
{
closed = 1;
nodes = (
(69,-10,o),
(11,48,o),
(26,134,cs),
(41,225,o),
(120,277,o),
(238,277,cs),
(424,277,l),
(411,206,l),
(390,78,o),
(293,-10,o),
(170,-10,cs)
);
},
{
closed = 1;
nodes = (
(281,46,o),
(350,110,o),
(366,206,cs),
(370,230,l),
(253,230,ls),
(159,230,o),
(105,196,o),
(95,133,cs),
(86,81,o),
(124,46,o),
(190,46,cs)
);
},
{
closed = 1;
nodes = (
(386,331,ls),
(400,413,o),
(367,456,o),
(288,456,cs),
(239,456,o),
(180,434,o),
(131,407,c),
(109,451,l),
(160,487,o),
(235,510,o),
(308,510,cs),
(407,510,o),
(455,447,o),
(437,341,cs),
(421,250,l),
(373,250,l)
);
},
{
closed = 1;
nodes = (
(861,278,l),
(812,258,l),
(813,263,o),
(814,269,o),
(815,274,cs),
(834,383,o),
(774,456,o),
(664,456,cs),
(548,456,o),
(462,380,o),
(442,264,cs),
(437,235,ls),
(418,120,o),
(492,46,o),
(614,44,c),
(679,46,o),
(747,74,o),
(793,119,c),
(823,80,l),
(771,25,o),
(684,-10,o),
(596,-10,cs),
(437,-10,o),
(348,95,o),
(374,250,cs),
(400,405,o),
(520,510,o),
(673,510,cs),
(820,510,o),
(903,411,o),
(878,261,cs),
(872,225,l),
(400,225,l),
(408,278,l)
);
}
);
width = 932;
}
);
leftKerningGroup = ae;
rightKerningGroup = e;
unicode = 230;
},
{
glyphname = eth;
layers = (
{
layerId = "147A3F7D-7F40-49EB-AD29-5B1295CBA645";
shapes = (
{
closed = 1;
nodes = (
(570,701,l),
(308,484,l),
(287,516,l),
(546,732,l)
);
},
{
closed = 1;
nodes = (
(388,439,o),
(441,400,o),
(456,353,cs),
(466,324,o),
(492,313,o),
(538,300,cs),
(574,289,o),
(590,283,o),
(596,270,c),
(568,103,o),
(441,-10,o),
(288,-10,cs),
(146,-10,o),
(46,98,o),
(68,230,cs),
(89,350,o),
(191,439,o),
(310,439,cs)
);
},
{
closed = 1;
nodes = (
(363,155,o),
(406,189,o),
(413,232,cs),
(421,275,o),
(389,308,o),
(342,308,cs),
(296,308,o),
(252,275,o),
(244,232,cs),
(237,189,o),
(269,155,o),
(316,155,cs)
);
},
{
closed = 1;
nodes = (
(392,720,l),
(546,636,o),
(630,476,o),
(596,270,c),
(420,270,l),
(447,433,o),
(383,558,o),
(246,636,c)
);
}
);
width = 676;
},
{
layerId = "829015CF-4750-49AF-8B75-DA4E2F394C23";
shapes = (
{
closed = 1;
nodes = (
(546,693,l),
(302,492,l),
(280,524,l),
(523,725,l)
);
},
{
closed = 1;
nodes = (
(398,439,o),
(454,396,o),
(479,345,cs),
(492,320,o),
(507,310,o),
(531,299,cs),
(552,289,o),
(561,284,o),
(565,270,c),
(537,103,o),
(417,-10,o),
(273,-10,cs),
(139,-10,o),
(46,98,o),
(68,230,cs),
(88,349,o),
(197,439,o),
(313,439,cs)
);
},
{
closed = 1;
nodes = (
(365,85,o),
(437,148,o),
(451,224,cs),
(464,301,o),
(412,363,o),
(336,363,cs),
(260,363,o),
(187,301,o),
(175,224,c),
(161,148,o),
(213,85,o),
(289,85,cs)
);
},
{
closed = 1;
nodes = (
(373,718,l),
(517,616,o),
(596,456,o),
(565,270,c),
(458,270,l),
(485,431,o),
(424,559,o),
(292,656,c)
);
}
);
width = 645;
},
{
layerId = "803E4031-45E0-466E-BF99-85A631E5C1E1";
shapes = (
{
closed = 1;
nodes = (
(531,688,l),
(299,497,l),
(275,529,l),
(509,720,l)
);
},
{
closed = 1;
nodes = (
(404,439,o),
(462,394,o),
(492,340,c),
(507,318,o),
(516,308,o),
(526,299,cs),
(538,289,o),
(543,284,o),
(547,270,c),
(519,103,o),
(402,-10,o),
(264,-10,cs),
(134,-10,o),
(46,98,o),
(68,230,cs),
(88,348,o),
(200,439,o),
(315,439,cs)
);
},
{
closed = 1;
nodes = (
(366,43,o),
(456,123,o),
(473,219,cs),
(489,316,o),
(425,396,o),
(332,396,cs),
(238,396,o),
(148,316,o),
(133,219,cs),
(116,123,o),
(179,43,o),
(273,43,cs)
);
},
{
closed = 1;
nodes = (
(361,716,l),
(499,604,o),
(576,444,o),
(547,270,c),
(481,270,l),
(508,429,o),
(448,560,o),
(319,668,c)
);
}
);
width = 627;
}
);
unicode = 240;
},
{
glyphname = schwa;
layers = (
{
layerId = "147A3F7D-7F40-49EB-AD29-5B1295CBA645";
shapes = (
{
closed = 1;
nodes = (
(126,197,l),
(174,229,l),
(171,221,o),
(170,215,o),
(169,209,cs),
(162,162,o),
(193,132,o),
(251,132,cs),
(314,132,o),
(362,172,o),
(372,233,c),
(374,240,l),
(384,310,o),
(339,357,o),
(260,357,cs),
(209,357,o),
(143,340,o),
(90,315,c),
(76,445,l),
(134,483,o),
(226,510,o),
(307,510,cs),
(472,510,o),
(567,405,o),
(541,250,cs),
(515,95,o),
(388,-10,o),
(227,-10,cs),
(77,-10,o),
(-6,96,o),
(20,252,cs),
(25,281,l),
(398,281,l),
(379,198,l)
);
}
);
width = 572;
},
{
layerId = "829015CF-4750-49AF-8B75-DA4E2F394C23";
shapes = (
{
closed = 1;
nodes = (
(84,208,l),
(136,244,l),
(134,236,o),
(132,228,o),
(131,222,cs),
(116,135,o),
(167,77,o),
(261,77,cs),
(352,77,o),
(423,140,o),
(438,232,c),
(442,253,l),
(458,353,o),
(395,418,o),
(289,420,c),
(231,418,o),
(162,393,o),
(114,356,c),
(89,428,l),
(142,477,o),
(234,510,o),
(318,510,cs),
(479,510,o),
(571,405,o),
(545,250,cs),
(519,95,o),
(398,-10,o),
(246,-10,cs),
(95,-10,o),
(9,92,o),
(34,244,cs),
(40,277,l),
(464,277,l),
(450,209,l)
);
}
);
width = 591;
},
{
layerId = "803E4031-45E0-466E-BF99-85A631E5C1E1";
shapes = (
{
closed = 1;
nodes = (
(59,215,l),
(113,253,l),
(111,245,o),
(109,236,o),
(108,230,cs),
(89,118,o),
(151,44,o),
(267,44,cs),
(374,44,o),
(460,120,o),
(478,232,cs),
(482,260,ls),
(502,378,o),
(429,455,o),
(306,457,c),
(244,455,o),
(173,425,o),
(129,380,c),
(97,418,l),
(147,474,o),
(239,510,o),
(324,510,cs),
(483,510,o),
(573,405,o),
(547,250,cs),
(521,95,o),
(404,-10,o),
(258,-10,cs),
(105,-10,o),
(18,90,o),
(43,239,cs),
(49,275,l),
(503,275,l),
(493,216,l)
);
}
);
width = 603;
}
);
unicode = 601;
},
{
glyphname = dotlessi;
layers = (
{
anchors = (
{
name = m.uni0321_3;
position = "{81, 0}";
},
{
name = t.uni0308_1_3;
position = "{163, 500}";
},
{
name = m.uni0328_3;
position = "{95, 0}";
}
);
layerId = "147A3F7D-7F40-49EB-AD29-5B1295CBA645";
shapes = (
{
closed = 1;
nodes = (
(250,500,l),
(166,0,l),
(2,0,l),
(86,500,l)
);
}
);
width = 263;
},
{
anchors = (
{
name = m.uni0321_3;
position = "{81, 0}";
},
{
name = t.uni0308_1_3;
position = "{163, 500}";
},
{
name = m.uni0328_3;
position = "{95, 0}";
}
);
layerId = "829015CF-4750-49AF-8B75-DA4E2F394C23";
shapes = (
{
closed = 1;
nodes = (
(203,500,l),
(119,0,l),
(16,0,l),
(100,500,l)
);
}
);
width = 229;
},
{
anchors = (
{
name = m.uni0321_3;
position = "{81, 0}";
},
{
name = t.uni0308_1_3;
position = "{163, 500}";
},
{
name = m.uni0328_3;
position = "{95, 0}";
}
);
layerId = "803E4031-45E0-466E-BF99-85A631E5C1E1";
shapes = (
{
closed = 1;
nodes = (
(174,500,l),
(90,0,l),
(25,0,l),
(109,500,l)
);
}
);
width = 209;
}
);
leftKerningGroup = i.TRK;
rightKerningGroup = i1;
unicode = 305;
},
{
glyphname = dotlessj;
layers = (
{
anchors = (
{
name = t.uni0308_1_3;
position = "{209, 500}";
}
);
layerId = "147A3F7D-7F40-49EB-AD29-5B1295CBA645";
shapes = (
{
closed = 1;
nodes = (
(-55,-110,l),
(8,-93,o),
(43,-52,o),
(54,13,cs),
(136,500,l),
(300,500,l),
(218,13,ls),
(195,-123,o),
(119,-210,o),
(-11,-240,c)
);
}
);
width = 313;
},
{
anchors = (
{
name = t.uni0308_1_3;
position = "{209, 500}";
}
);
layerId = "829015CF-4750-49AF-8B75-DA4E2F394C23";
shapes = (
{
closed = 1;
nodes = (
(-63,-156,l),
(-7,-146,o),
(26,-110,o),
(36,-49,cs),
(128,500,l),
(231,500,l),
(139,-49,ls),
(121,-158,o),
(63,-216,o),
(-42,-239,c)
);
}
);
width = 257;
},
{
anchors = (
{
name = t.uni0308_1_3;
position = "{209, 500}";
}
);
layerId = "803E4031-45E0-466E-BF99-85A631E5C1E1";
shapes = (
{
closed = 1;
nodes = (
(-68,-184,l),
(-16,-177,o),
(15,-144,o),
(25,-86,cs),
(123,500,l),
(190,500,l),
(92,-86,ls),
(76,-179,o),
(29,-219,o),
(-61,-239,c)
);
}
);
width = 224;
}
);
leftKerningGroup = dotlessj;
rightKerningGroup = ij;
unicode = 567;
},
{
glyphname = kgreenlandic;
layers = (
{
layerId = "147A3F7D-7F40-49EB-AD29-5B1295CBA645";
shapes = (
{
closed = 1;
nodes = (
(394,260,l),
(546,0,l),
(345,0,l),
(213,261,l),
(409,500,l),
(611,500,l)
);
},
{
closed = 1;
nodes = (
(256,500,l),
(172,0,l),
(8,0,l),
(92,500,l)
);
}
);
width = 604;
},
{
layerId = "829015CF-4750-49AF-8B75-DA4E2F394C23";
shapes = (
{
closed = 1;
nodes = (
(287,260,l),
(485,0,l),
(345,0,l),
(167,261,l),
(409,500,l),
(549,500,l)
);
},
{
closed = 1;
nodes = (
(210,500,l),
(126,0,l),
(23,0,l),
(107,500,l)
);
}
);
width = 543;
},
{
layerId = "803E4031-45E0-466E-BF99-85A631E5C1E1";
shapes = (
{
closed = 1;
nodes = (
(223,260,l),
(449,0,l),
(345,0,l),
(139,261,l),
(409,500,l),
(512,500,l)
);
},
{
closed = 1;
nodes = (
(182,500,l),
(98,0,l),
(32,0,l),
(116,500,l)
);
}
);
width = 507;
}
);
rightKerningGroup = k;
unicode = 312;
},
{
glyphname = nhookleft;
layers = (
{
anchors = (
{
name = m.uni0321_3;
position = "{297, 0}";
},
{
name = t.uni0308_1_3;
position = "{377, 500}";
}
);
layerId = "147A3F7D-7F40-49EB-AD29-5B1295CBA645";
shapes = (
{
closed = 1;
nodes = (
(-55,-110,l),
(8,-93,o),
(43,-52,o),
(54,13,cs),
(102,300,l),
(266,300,l),
(218,13,ls),
(195,-122,o),
(119,-210,o),
(-11,-240,c)
);
},
{
closed = 1;
nodes = (
(428,278,ls),
(437,331,o),
(418,368,o),
(364,368,cs),
(309,368,o),
(271,328,o),
(260,268,c),
(216,268,l),
(242,423,o),
(342,510,o),
(454,510,cs),
(562,510,o),
(617,428,o),
(598,313,cs),
(545,0,l),
(381,0,l)
);
},
{
closed = 1;
nodes = (
(136,500,l),
(300,500,l),
(216,0,l),
(52,0,l)
);
}
);
width = 638;
},
{
anchors = (
{
name = m.uni0321_3;
position = "{297, 0}";
},
{
name = t.uni0308_1_3;
position = "{377, 500}";
}
);
layerId = "829015CF-4750-49AF-8B75-DA4E2F394C23";
shapes = (
{
closed = 1;
nodes = (
(-63,-157,l),
(-7,-146,o),
(26,-110,o),
(36,-50,cs),
(94,299,l),
(197,299,l),
(139,-50,ls),
(121,-158,o),
(62,-216,o),
(-42,-240,c)
);
},
{
closed = 1;
nodes = (
(437,286,ls),
(453,379,o),
(417,423,o),
(350,423,cs),
(282,423,o),
(211,379,o),
(193,276,c),
(156,276,l),
(183,437,o),
(286,510,o),
(392,510,cs),
(502,510,o),
(566,437,o),
(542,297,cs),
(492,0,l),
(389,0,l)
);
},
{
closed = 1;
nodes = (
(128,500,l),
(231,500,l),
(147,0,l),
(44,0,l)
);
}
);
width = 600;
},
{
anchors = (
{
name = m.uni0321_3;
position = "{297, 0}";
},
{
name = t.uni0308_1_3;
position = "{377, 500}";
}
);
layerId = "803E4031-45E0-466E-BF99-85A631E5C1E1";
shapes = (
{
closed = 1;
nodes = (
(-68,-185,l),
(-16,-178,o),
(15,-145,o),
(25,-87,cs),
(89,299,l),
(156,299,l),
(92,-87,ls),
(76,-180,o),
(28,-220,o),
(-61,-240,c)
);
},
{
closed = 1;
nodes = (
(443,291,ls),
(462,407,o),
(417,456,o),
(342,456,cs),
(265,456,o),
(175,409,o),
(153,281,c),
(120,281,l),
(147,446,o),
(252,510,o),
(355,510,cs),
(466,510,o),
(535,442,o),
(509,288,cs),
(460,0,l),
(394,0,l)
);
},
{
closed = 1;
nodes = (
(123,500,l),
(190,500,l),
(106,0,l),
(39,0,l)
);
}
);
width = 577;
}
);
leftKerningGroup = dotlessj;
unicode = 626;
},
{
glyphname = eng;
layers = (
{
anchors = (
{
name = m.uni0321_3;
position = "{257, 0}";
},
{
name = t.uni0308_1_3;
position = "{337, 500}";
}
);
layerId = "147A3F7D-7F40-49EB-AD29-5B1295CBA645";
shapes = (
{
closed = 1;
nodes = (
(231,-110,l),
(294,-93,o),
(329,-52,o),
(340,13,cs),
(388,300,l),
(552,300,l),
(504,13,ls),
(481,-122,o),
(405,-210,o),
(275,-240,c)
);
},
{
closed = 1;
nodes = (
(384,278,ls),
(393,331,o),
(374,368,o),
(320,368,cs),
(265,368,o),
(227,328,o),
(217,268,c),
(172,268,l),
(198,423,o),
(298,510,o),
(410,510,cs),
(517,510,o),
(573,428,o),
(554,313,cs),
(502,0,l),
(338,0,l)
);
},
{
closed = 1;
nodes = (
(92,500,l),
(256,500,l),
(172,0,l),
(8,0,l)
);
}
);
width = 594;
},
{
anchors = (
{
name = m.uni0321_3;
position = "{257, 0}";
},
{
name = t.uni0308_1_3;
position = "{337, 500}";
}
);
layerId = "829015CF-4750-49AF-8B75-DA4E2F394C23";
shapes = (
{
closed = 1;
nodes = (
(261,-157,l),
(318,-146,o),
(350,-110,o),
(360,-50,cs),
(418,299,l),
(521,299,l),
(463,-50,ls),
(445,-158,o),
(386,-216,o),
(282,-240,c)
);
},
{
closed = 1;
nodes = (
(416,286,ls),
(431,379,o),
(396,423,o),
(329,423,cs),
(261,423,o),
(190,379,o),
(172,276,c),
(135,276,l),
(162,437,o),
(264,510,o),
(372,510,cs),
(480,510,o),
(544,437,o),
(522,297,cs),
(471,0,l),
(368,0,l)
);
},
{
closed = 1;
nodes = (
(107,500,l),
(210,500,l),
(126,0,l),
(23,0,l)
);
}
);
width = 578;
},
{
anchors = (
{
name = m.uni0321_3;
position = "{257, 0}";
},
{
name = t.uni0308_1_3;
position = "{337, 500}";
}
);
layerId = "803E4031-45E0-466E-BF99-85A631E5C1E1";
shapes = (
{
closed = 1;
nodes = (
(279,-185,l),
(332,-178,o),
(362,-145,o),
(372,-87,cs),
(436,299,l),
(503,299,l),
(439,-87,ls),
(423,-180,o),
(375,-220,o),
(286,-240,c)
);
},
{
closed = 1;
nodes = (
(435,291,ls),
(454,407,o),
(409,456,o),
(334,456,cs),
(258,456,o),
(167,409,o),
(145,281,c),
(113,281,l),
(140,446,o),
(244,510,o),
(349,510,cs),
(458,510,o),
(527,442,o),
(502,288,cs),
(453,0,l),
(386,0,l)
);
},
{
closed = 1;
nodes = (
(116,500,l),
(182,500,l),
(98,0,l),
(32,0,l)
);
}
);
width = 569;
}
);
leftKerningGroup = m;
unicode = 331;
},
{
glyphname = oe;
layers = (
{
anchors = (
{
name = m.uni0321_3;
position = "{640, 0}";
},
{
name = t.uni0308_1_3;
position = "{714, 500}";
},
{
name = m.uni0328_3;
position = "{638, -10}";
}
);
layerId = "147A3F7D-7F40-49EB-AD29-5B1295CBA645";
shapes = (
{
closed = 1;
nodes = (
(74,-10,o),
(-6,95,o),
(20,250,cs),
(46,405,o),
(161,510,o),
(306,510,cs),
(447,510,o),
(524,405,o),
(498,250,cs),
(472,95,o),
(360,-10,o),
(219,-10,cs)
);
},
{
closed = 1;
nodes = (
(331,143,o),
(379,186,o),
(390,250,cs),
(400,314,o),
(367,357,o),
(305,357,cs),
(242,357,o),
(194,314,o),
(184,250,cs),
(173,186,o),
(207,143,o),
(269,143,cs)
);
},
{
closed = 1;
nodes = (
(794,303,l),
(752,257,l),
(755,267,o),
(757,274,o),
(758,280,cs),
(767,336,o),
(734,368,o),
(678,368,cs),
(617,368,o),
(568,325,o),
(556,258,cs),
(553,240,ls),
(542,177,o),
(587,131,o),
(669,132,c),
(722,131,o),
(771,148,o),
(814,177,c),
(847,62,l),
(788,16,o),
(713,-10,o),
(623,-10,cs),
(457,-10,o),
(364,95,o),
(390,250,cs),
(416,405,o),
(541,510,o),
(700,510,cs),
(847,510,o),
(935,401,o),
(910,248,cs),
(905,219,l),
(516,219,l),
(530,303,l)
);
}
);
width = 942;
},
{
anchors = (
{
name = m.uni0321_3;
position = "{640, 0}";
},
{
name = t.uni0308_1_3;
position = "{714, 500}";
},
{
name = m.uni0328_3;
position = "{638, -10}";
}
);
layerId = "829015CF-4750-49AF-8B75-DA4E2F394C23";
shapes = (
{
closed = 1;
nodes = (
(96,-10,o),
(10,95,o),
(36,250,cs),
(62,405,o),
(183,510,o),
(337,510,cs),
(486,510,o),
(570,405,o),
(544,250,cs),
(518,95,o),
(399,-10,o),
(250,-10,cs)
);
},
{
closed = 1;
nodes = (
(372,81,o),
(450,149,o),
(466,250,cs),
(483,352,o),
(429,420,o),
(331,420,cs),
(231,420,o),
(155,352,o),
(138,250,cs),
(122,149,o),
(175,81,o),
(274,81,cs)
);
},
{
closed = 1;
nodes = (
(922,287,l),
(875,258,l),
(878,265,o),
(879,271,o),
(880,276,cs),
(895,365,o),
(845,423,o),
(755,423,cs),
(661,423,o),
(587,359,o),
(571,262,c),
(566,237,l),
(551,141,o),
(614,78,o),
(721,77,c),
(781,78,o),
(842,102,o),
(888,141,c),
(918,73,l),
(864,22,o),
(781,-10,o),
(692,-10,cs),
(531,-10,o),
(440,95,o),
(466,250,cs),
(492,405,o),
(615,510,o),
(769,510,cs),
(916,510,o),
(1001,407,o),
(976,256,cs),
(971,223,l),
(529,223,l),
(540,287,l)
);
}
);
width = 1022;
},
{
anchors = (
{
name = m.uni0321_3;
position = "{640, 0}";
},
{
name = t.uni0308_1_3;
position = "{714, 500}";
},
{
name = m.uni0328_3;
position = "{638, -10}";
}
);
layerId = "803E4031-45E0-466E-BF99-85A631E5C1E1";
shapes = (
{
closed = 1;
nodes = (
(109,-10,o),
(19,95,o),
(45,250,cs),
(71,405,o),
(196,510,o),
(356,510,cs),
(509,510,o),
(597,405,o),
(571,250,cs),
(545,95,o),
(422,-10,o),
(269,-10,cs)
);
},
{
closed = 1;
nodes = (
(396,43,o),
(492,126,o),
(512,250,cs),
(533,374,o),
(466,457,o),
(346,457,cs),
(225,457,o),
(132,374,o),
(111,250,cs),
(91,126,o),
(156,43,o),
(277,43,cs)
);
},
{
closed = 1;
nodes = (
(999,278,l),
(949,258,l),
(951,263,o),
(952,269,o),
(953,274,cs),
(972,383,o),
(912,456,o),
(801,456,cs),
(687,456,o),
(599,380,o),
(580,264,c),
(574,235,l),
(556,120,o),
(630,46,o),
(752,44,c),
(817,46,o),
(885,74,o),
(932,119,c),
(961,80,l),
(909,25,o),
(821,-10,o),
(733,-10,cs),
(575,-10,o),
(486,95,o),
(512,250,cs),
(538,405,o),
(659,510,o),
(810,510,cs),
(957,510,o),
(1041,411,o),
(1016,261,cs),
(1010,225,l),
(537,225,l),
(546,278,l)
);
}
);
width = 1070;
}
);
leftKerningGroup = a2;
rightKerningGroup = e;
unicode = 339;
},
{
glyphname = thorn;
layers = (
{
layerId = "147A3F7D-7F40-49EB-AD29-5B1295CBA645";
shapes = (
{
closed = 1;
nodes = (
(242,413,l),
(174,250,l),
(186,86,l),
(132,-240,l),
(-32,-240,l),
(135,760,l),
(289,760,l)
);
},
{
closed = 1;
nodes = (
(518,510,o),
(599,405,o),
(573,250,cs),
(547,95,o),
(431,-10,o),
(295,-10,cs),
(177,-10,o),
(123,94,o),
(149,250,cs),
(175,406,o),
(264,510,o),
(382,510,cs)
);
},
{
closed = 1;
nodes = (
(348,132,o),
(397,180,o),
(409,250,cs),
(421,322,o),
(388,368,o),
(327,368,cs),
(265,368,o),
(216,322,o),
(204,250,cs),
(192,180,o),
(225,132,o),
(287,132,cs)
);
}
);
width = 605;
},
{
layerId = "829015CF-4750-49AF-8B75-DA4E2F394C23";
shapes = (
{
closed = 1;
nodes = (
(193,397,l),
(128,250,l),
(142,102,l),
(86,-240,l),
(-17,-240,l),
(150,760,l),
(243,760,l)
);
},
{
closed = 1;
nodes = (
(529,510,o),
(615,405,o),
(589,250,cs),
(563,95,o),
(442,-10,o),
(295,-10,cs),
(158,-10,o),
(85,95,o),
(111,250,cs),
(137,405,o),
(245,510,o),
(382,510,cs)
);
},
{
closed = 1;
nodes = (
(391,77,o),
(468,146,o),
(485,250,cs),
(503,354,o),
(449,423,o),
(351,423,cs),
(253,423,o),
(175,354,o),
(158,250,cs),
(141,146,o),
(194,77,o),
(293,77,cs)
);
}
);
width = 635;
},
{
layerId = "803E4031-45E0-466E-BF99-85A631E5C1E1";
shapes = (
{
closed = 1;
nodes = (
(163,388,l),
(100,250,l),
(116,111,l),
(58,-240,l),
(-8,-240,l),
(159,760,l),
(215,760,l)
);
},
{
closed = 1;
nodes = (
(536,510,o),
(624,405,o),
(598,250,cs),
(572,95,o),
(449,-10,o),
(295,-10,cs),
(146,-10,o),
(62,95,o),
(88,250,cs),
(114,405,o),
(233,510,o),
(382,510,cs)
);
},
{
closed = 1;
nodes = (
(417,44,o),
(511,126,o),
(531,250,cs),
(552,373,o),
(486,456,o),
(365,456,cs),
(245,456,o),
(151,373,o),
(130,250,cs),
(110,126,o),
(176,44,o),
(296,44,cs)
);
}
);
width = 653;
}
);
rightKerningGroup = b;
unicode = 254;
},
{
glyphname = germandbls;
layers = (
{
layerId = "147A3F7D-7F40-49EB-AD29-5B1295CBA645";
shapes = (
{
closed = 1;
nodes = (
(49,347,l),
(75,500,l),
(194,500,l),
(168,347,l)
);
},
{
closed = 1;
nodes = (
(184,560,ls),
(204,679,o),
(297,760,o),
(437,760,cs),
(588,760,o),
(644,698,o),
(632,627,cs),
(629,607,o),
(622,587,o),
(608,566,cs),
(590,540,o),
(580,515,o),
(576,489,cs),
(572,466,o),
(590,449,o),
(631,422,c),
(712,365,o),
(768,303,o),
(750,189,cs),
(731,77,o),
(637,-10,o),
(509,-10,cs),
(442,-10,o),
(382,13,o),
(334,59,c),
(412,200,l),
(460,159,o),
(502,143,o),
(535,143,cs),
(561,143,o),
(581,165,o),
(586,192,c),
(593,239,o),
(564,265,o),
(506,308,cs),
(464,338,o),
(405,380,o),
(416,444,cs),
(422,480,o),
(434,513,o),
(453,546,c),
(457,557,o),
(461,568,o),
(463,578,cs),
(467,601,o),
(458,618,o),
(413,618,cs),
(379,618,o),
(354,594,o),
(346,548,cs),
(254,0,l),
(90,0,l)
);
}
);
width = 790;
},
{
layerId = "829015CF-4750-49AF-8B75-DA4E2F394C23";
shapes = (
{
closed = 1;
nodes = (
(60,410,l),
(75,500,l),
(193,500,l),
(178,410,l)
);
},
{
closed = 1;
nodes = (
(184,560,ls),
(205,687,o),
(293,760,o),
(429,760,cs),
(561,760,o),
(619,702,o),
(607,633,c),
(604,611,o),
(594,588,o),
(574,565,c),
(554,539,o),
(542,514,o),
(538,490,cs),
(531,452,o),
(556,429,o),
(609,391,cs),
(675,342,o),
(734,289,o),
(719,191,cs),
(699,73,o),
(603,-10,o),
(478,-10,cs),
(394,-10,o),
(340,20,o),
(303,75,c),
(368,151,l),
(401,106,o),
(443,81,o),
(494,81,cs),
(555,81,o),
(605,126,o),
(616,192,cs),
(625,245,o),
(595,275,o),
(532,322,cs),
(483,359,o),
(424,402,o),
(437,475,cs),
(443,509,o),
(461,545,o),
(492,585,cs),
(500,595,o),
(505,606,o),
(506,616,cs),
(511,649,o),
(479,673,o),
(414,673,cs),
(345,673,o),
(299,632,o),
(287,556,cs),
(193,0,l),
(90,0,l)
);
}
);
width = 774;
},
{
layerId = "803E4031-45E0-466E-BF99-85A631E5C1E1";
shapes = (
{
closed = 1;
nodes = (
(66,447,l),
(75,500,l),
(193,500,l),
(184,447,l)
);
},
{
closed = 1;
nodes = (
(184,560,ls),
(206,692,o),
(291,760,o),
(424,760,cs),
(544,760,o),
(604,704,o),
(592,637,c),
(589,613,o),
(577,589,o),
(554,564,c),
(532,538,o),
(519,513,o),
(515,491,cs),
(507,444,o),
(535,417,o),
(596,372,cs),
(653,328,o),
(714,281,o),
(700,192,cs),
(680,71,o),
(582,-10,o),
(460,-10,cs),
(365,-10,o),
(315,24,o),
(285,84,c),
(342,121,l),
(365,74,o),
(408,43,o),
(469,43,cs),
(552,43,o),
(620,103,o),
(634,192,cs),
(644,249,o),
(614,281,o),
(547,331,cs),
(495,371,o),
(436,415,o),
(449,494,cs),
(455,526,o),
(477,564,o),
(516,608,c),
(526,618,o),
(531,629,o),
(532,639,cs),
(538,677,o),
(491,706,o),
(415,706,cs),
(325,706,o),
(266,655,o),
(251,561,cs),
(157,0,l),
(90,0,l)
);
}
);
width = 765;
}
);
unicode = 223;
},
{
glyphname = f_joint;
layers = (
{
layerId = "147A3F7D-7F40-49EB-AD29-5B1295CBA645";
shapes = (
{
closed = 1;
nodes = (
(44,500,l),
(459,500,l),
(435,358,l),
(20,358,l)
);
},
{
closed = 1;
nodes = (
(147,533,ls),
(170,669,o),
(257,740,o),
(399,740,cs),
(480,740,o),
(556,698,o),
(586,646,c),
(505,548,l),
(472,581,o),
(438,598,o),
(397,598,cs),
(346,598,o),
(319,573,o),
(310,522,cs),
(223,0,l),
(58,0,l)
);
}
);
width = 346;
},
{
layerId = "829015CF-4750-49AF-8B75-DA4E2F394C23";
shapes = (
{
closed = 1;
nodes = (
(52,500,l),
(428,500,l),
(413,413,l),
(38,413,l)
);
},
{
closed = 1;
nodes = (
(160,564,ls),
(179,679,o),
(253,740,o),
(368,740,cs),
(444,740,o),
(502,707,o),
(529,669,c),
(477,609,l),
(450,635,o),
(407,653,o),
(360,653,cs),
(307,653,o),
(273,621,o),
(263,561,cs),
(169,0,l),
(66,0,l)
);
}
);
width = 300;
},
{
layerId = "803E4031-45E0-466E-BF99-85A631E5C1E1";
shapes = (
{
closed = 1;
nodes = (
(57,500,l),
(409,500,l),
(400,446,l),
(48,446,l)
);
},
{
closed = 1;
nodes = (
(168,583,ls),
(185,685,o),
(250,740,o),
(349,740,cs),
(422,740,o),
(469,712,o),
(494,682,c),
(460,646,l),
(437,667,o),
(389,686,o),
(338,686,cs),
(284,686,o),
(245,650,o),
(234,584,cs),
(136,0,l),
(71,0,l)
);
}
);
width = 272;
}
);
leftKerningGroup = f2;
},
{
glyphname = fi;
layers = (
{
layerId = "147A3F7D-7F40-49EB-AD29-5B1295CBA645";
shapes = (
{
closed = 1;
nodes = (
(44,500,l),
(515,500,l),
(491,358,l),
(20,358,l)
);
},
{
closed = 1;
nodes = (
(492,500,l),
(656,500,l),
(572,0,l),
(408,0,l)
);
},
{
closed = 1;
nodes = (
(147,530,ls),
(173,685,o),
(279,760,o),
(446,760,cs),
(553,760,o),
(622,728,o),
(685,678,c),
(605,554,l),
(551,597,o),
(509,618,o),
(444,618,cs),
(368,618,o),
(322,590,o),
(310,518,cs),
(223,0,l),
(58,0,l)
);
}
);
width = 669;
},
{
layerId = "829015CF-4750-49AF-8B75-DA4E2F394C23";
shapes = (
{
closed = 1;
nodes = (
(52,500,l),
(493,500,l),
(478,413,l),
(38,413,l)
);
},
{
closed = 1;
nodes = (
(469,500,l),
(572,500,l),
(488,0,l),
(385,0,l)
);
},
{
closed = 1;
nodes = (
(163,577,ls),
(183,698,o),
(262,760,o),
(392,760,cs),
(479,760,o),
(547,733,o),
(596,693,c),
(543,615,l),
(498,652,o),
(445,673,o),
(385,673,cs),
(317,673,o),
(276,642,o),
(264,573,cs),
(169,0,l),
(66,0,l)
);
}
);
width = 599;
},
{
layerId = "803E4031-45E0-466E-BF99-85A631E5C1E1";
shapes = (
{
closed = 1;
nodes = (
(57,500,l),
(479,500,l),
(470,446,l),
(48,446,l)
);
},
{
closed = 1;
nodes = (
(455,500,l),
(521,500,l),
(437,0,l),
(371,0,l)
);
},
{
closed = 1;
nodes = (
(172,605,ls),
(189,706,o),
(252,760,o),
(359,760,cs),
(435,760,o),
(502,736,o),
(543,702,c),
(506,652,l),
(466,685,o),
(406,706,o),
(349,706,cs),
(287,706,o),
(249,673,o),
(237,606,cs),
(136,0,l),
(71,0,l)
);
}
);
width = 557;
}
);
leftKerningGroup = f2;
rightKerningGroup = i;
unicode = 64257;
},
{
glyphname = fl;
layers = (
{
layerId = "147A3F7D-7F40-49EB-AD29-5B1295CBA645";
shapes = (
{
closed = 1;
nodes = (
(718,760,l),
(591,0,l),
(427,0,l),
(530,613,l),
(598,760,l)
);
},
{
closed = 1;
nodes = (
(44,500,l),
(422,500,l),
(398,358,l),
(20,358,l)
);
},
{
closed = 1;
nodes = (
(151,553,ls),
(173,687,o),
(267,760,o),
(402,760,cs),
(503,760,o),
(572,711,o),
(603,650,c),
(520,550,l),
(494,591,o),
(443,618,o),
(400,618,cs),
(349,618,o),
(322,593,o),
(313,542,cs),
(223,0,l),
(58,0,l)
);
}
);
width = 698;
},
{
layerId = "829015CF-4750-49AF-8B75-DA4E2F394C23";
shapes = (
{
closed = 1;
nodes = (
(634,760,l),
(507,0,l),
(405,0,l),
(512,644,l),
(559,760,l)
);
},
{
closed = 1;
nodes = (
(52,500,l),
(376,500,l),
(362,413,l),
(38,413,l)
);
},
{
closed = 1;
nodes = (
(164,584,ls),
(183,698,o),
(258,760,o),
(371,760,cs),
(457,760,o),
(528,711,o),
(557,650,c),
(504,589,l),
(468,643,o),
(415,673,o),
(363,673,cs),
(310,673,o),
(276,641,o),
(266,581,cs),
(169,0,l),
(66,0,l)
);
}
);
width = 630;
},
{
layerId = "803E4031-45E0-466E-BF99-85A631E5C1E1";
shapes = (
{
closed = 1;
nodes = (
(584,760,l),
(457,0,l),
(391,0,l),
(501,663,l),
(536,760,l)
);
},
{
closed = 1;
nodes = (
(57,500,l),
(349,500,l),
(340,446,l),
(48,446,l)
);
},
{
closed = 1;
nodes = (
(171,603,ls),
(189,705,o),
(252,760,o),
(352,760,cs),
(430,760,o),
(502,711,o),
(529,650,c),
(495,613,l),
(452,674,o),
(398,706,o),
(341,706,cs),
(287,706,o),
(248,670,o),
(237,604,cs),
(136,0,l),
(71,0,l)
);
}
);
width = 589;
}
);
leftKerningGroup = f2;
rightKerningGroup = fl;
unicode = 64258;
},
{
glyphname = uni0394;
layers = (
{
layerId = "147A3F7D-7F40-49EB-AD29-5B1295CBA645";
shapes = (
{
closed = 1;
nodes = (
(31,0,l),
(526,760,l),
(560,760,l),
(797,0,l)
);
},
{
closed = 1;
nodes = (
(565,165,l),
(489,433,l),
(321,165,l)
);
}
);
width = 923;
},
{
layerId = "829015CF-4750-49AF-8B75-DA4E2F394C23";
shapes = (
{
closed = 1;
nodes = (
(31,0,l),
(526,760,l),
(560,760,l),
(797,0,l)
);
},
{
closed = 1;
nodes = (
(661,95,l),
(514,582,l),
(201,95,l)
);
}
);
width = 923;
},
{
layerId = "803E4031-45E0-466E-BF99-85A631E5C1E1";
shapes = (
{
closed = 1;
nodes = (
(31,0,l),
(526,760,l),
(560,760,l),
(797,0,l)
);
},
{
closed = 1;
nodes = (
(718,53,l),
(529,671,l),
(129,53,l)
);
}
);
width = 923;
}
);
leftKerningGroup = A;
rightKerningGroup = A2;
unicode = 916;
},
{
glyphname = uni03A9;
layers = (
{
layerId = "147A3F7D-7F40-49EB-AD29-5B1295CBA645";
shapes = (
{
closed = 1;
nodes = (
(886,165,l),
(858,0,l),
(548,0,l),
(525,115,l),
(607,171,o),
(665,247,o),
(682,349,cs),
(701,467,o),
(644,545,o),
(537,545,cs),
(427,545,o),
(343,467,o),
(324,349,cs),
(307,246,o),
(341,172,o),
(406,115,c),
(343,0,l),
(30,0,l),
(58,165,l),
(238,165,l),
(174,221,o),
(140,299,o),
(153,384,cs),
(184,568,o),
(351,698,o),
(563,698,cs),
(774,698,o),
(894,568,o),
(863,384,cs),
(850,298,o),
(788,220,o),
(706,165,c)
);
}
);
width = 983;
},
{
layerId = "829015CF-4750-49AF-8B75-DA4E2F394C23";
shapes = (
{
closed = 1;
nodes = (
(874,95,l),
(858,0,l),
(526,0,l),
(516,68,l),
(645,143,o),
(732,240,o),
(753,365,cs),
(777,506,o),
(695,608,o),
(548,608,cs),
(398,608,o),
(281,506,o),
(258,365,cs),
(237,239,o),
(294,144,o),
(399,68,c),
(366,0,l),
(30,0,l),
(46,95,l),
(265,95,l),
(174,167,o),
(133,259,o),
(152,376,cs),
(183,562,o),
(351,698,o),
(563,698,cs),
(773,698,o),
(893,562,o),
(862,376,cs),
(843,260,o),
(768,167,o),
(656,95,c)
);
}
);
width = 983;
},
{
layerId = "803E4031-45E0-466E-BF99-85A631E5C1E1";
shapes = (
{
closed = 1;
nodes = (
(867,53,l),
(858,0,l),
(512,0,l),
(511,40,l),
(667,126,o),
(772,235,o),
(796,374,cs),
(822,529,o),
(725,645,o),
(554,645,cs),
(381,645,o),
(244,529,o),
(218,374,cs),
(195,234,o),
(266,127,o),
(394,40,c),
(379,0,l),
(30,0,l),
(39,53,l),
(281,53,l),
(174,134,o),
(128,235,o),
(151,371,cs),
(183,559,o),
(351,698,o),
(563,698,cs),
(773,698,o),
(893,559,o),
(861,371,cs),
(838,237,o),
(756,135,o),
(626,53,c)
);
}
);
width = 983;
}
);
unicode = 937;
},
{
glyphname = uni03BC;
layers = (
{
anchors = (
{
name = m.uni0321_2;
position = "{244, 0}";
},
{
name = t.uni0308_1_2;
position = "{327, 500}";
},
{
name = m.uni0328_2;
position = "{409, 0}";
},
{
name = t.uni031B_2;
position = "{542, 500}";
}
);
layerId = "147A3F7D-7F40-49EB-AD29-5B1295CBA645";
shapes = (
{
closed = 1;
nodes = (
(37,233,l),
(105,233,l),
(90,138,o),
(94,84,o),
(105,9,c),
(115,-35,o),
(118,-65,o),
(111,-100,c),
(96,-190,l),
(-34,-190,l)
);
},
{
closed = 1;
nodes = (
(66,-10,o),
(10,70,o),
(29,187,cs),
(82,500,l),
(246,500,l),
(199,222,ls),
(190,169,o),
(214,132,o),
(258,132,cs),
(307,132,o),
(346,168,o),
(354,220,c),
(400,220,l),
(377,83,o),
(281,-10,o),
(168,-10,cs)
);
},
{
closed = 1;
nodes = (
(327,57,l),
(389,500,l),
(580,583,l),
(494,0,l),
(326,-17,l)
);
}
);
width = 584;
},
{
anchors = (
{
name = m.uni0321_2;
position = "{244, 0}";
},
{
name = t.uni0308_1_2;
position = "{327, 500}";
},
{
name = m.uni0328_2;
position = "{409, 0}";
},
{
name = t.uni031B_2;
position = "{542, 500}";
}
);
layerId = "829015CF-4750-49AF-8B75-DA4E2F394C23";
shapes = (
{
closed = 1;
nodes = (
(53,233,l),
(97,233,l),
(84,154,o),
(85,105,o),
(92,38,c),
(95,-20,o),
(96,-53,o),
(88,-100,cs),
(73,-190,l),
(-18,-190,l)
);
},
{
closed = 1;
nodes = (
(80,-10,o),
(26,72,o),
(47,203,cs),
(98,500,l),
(200,500,l),
(152,214,ls),
(137,129,o),
(168,77,o),
(234,77,cs),
(313,77,o),
(371,131,o),
(385,220,c),
(423,220,l),
(399,79,o),
(309,-10,o),
(191,-10,cs)
);
},
{
closed = 1;
nodes = (
(408,354,l),
(477,500,l),
(484,192,l),
(407,0,l),
(363,61,l)
);
}
);
width = 569;
},
{
anchors = (
{
name = m.uni0321_2;
position = "{244, 0}";
},
{
name = t.uni0308_1_2;
position = "{327, 500}";
},
{
name = m.uni0328_2;
position = "{409, 0}";
},
{
name = t.uni031B_2;
position = "{542, 500}";
}
);
layerId = "803E4031-45E0-466E-BF99-85A631E5C1E1";
shapes = (
{
closed = 1;
nodes = (
(62,233,l),
(92,233,l),
(81,164,o),
(80,117,o),
(84,55,c),
(83,-11,o),
(83,-46,o),
(74,-100,cs),
(59,-190,l),
(-9,-190,l)
);
},
{
closed = 1;
nodes = (
(89,-10,o),
(35,73,o),
(58,212,cs),
(107,500,l),
(172,500,l),
(123,209,ls),
(105,105,o),
(140,44,o),
(219,44,cs),
(317,44,o),
(386,109,o),
(404,220,c),
(436,220,l),
(412,76,o),
(326,-10,o),
(204,-10,cs)
);
},
{
closed = 1;
nodes = (
(457,532,l),
(529,500,l),
(426,-42,l),
(355,0,l),
(385,107,l)
);
}
);
width = 560;
}
);
leftKerningGroup = p;
unicode = 956;
},
{
glyphname = pi;
layers = (
{
layerId = "147A3F7D-7F40-49EB-AD29-5B1295CBA645";
shapes = (
{
closed = 1;
nodes = (
(333,336,l),
(277,0,l),
(101,0,l),
(157,336,l),
(87,336,l),
(114,500,l),
(713,500,l),
(685,335,l)
);
},
{
closed = 1;
nodes = (
(645,156,o),
(669,161,o),
(695,171,c),
(695,29,l),
(646,4,o),
(585,-10,o),
(530,-10,cs),
(430,-10,o),
(390,40,o),
(406,140,cs),
(448,386,l),
(624,386,l),
(593,200,l),
(587,171,o),
(598,156,o),
(622,156,cs)
);
}
);
width = 815;
},
{
layerId = "829015CF-4750-49AF-8B75-DA4E2F394C23";
shapes = (
{
closed = 1;
nodes = (
(314,407,l),
(246,0,l),
(139,0,l),
(207,407,l),
(98,407,l),
(114,500,l),
(729,500,l),
(713,406,l)
);
},
{
closed = 1;
nodes = (
(636,85,o),
(660,90,o),
(686,101,c),
(691,18,l),
(655,0,o),
(614,-10,o),
(576,-10,cs),
(476,-10,o),
(436,40,o),
(452,140,cs),
(506,457,l),
(612,457,l),
(562,159,ls),
(555,112,o),
(569,85,o),
(613,85,cs)
);
}
);
width = 814;
},
{
layerId = "803E4031-45E0-466E-BF99-85A631E5C1E1";
shapes = (
{
closed = 1;
nodes = (
(302,449,l),
(227,0,l),
(162,0,l),
(237,449,l),
(105,449,l),
(114,500,l),
(738,500,l),
(729,448,l)
);
},
{
closed = 1;
nodes = (
(631,42,o),
(655,47,o),
(680,59,c),
(689,12,l),
(661,-2,o),
(631,-10,o),
(604,-10,cs),
(504,-10,o),
(464,40,o),
(480,140,cs),
(540,499,l),
(605,499,l),
(544,135,ls),
(535,76,o),
(552,42,o),
(608,42,cs)
);
}
);
width = 813;
}
);
unicode = 960;
},
{
glyphname = fraction;
layers = (
{
layerId = "147A3F7D-7F40-49EB-AD29-5B1295CBA645";
shapes = (
{
closed = 1;
nodes = (
(534,689,l),
(-71,-93,l),
(-133,-48,l),
(471,733,l)
);
}
);
width = 388;
},
{
layerId = "829015CF-4750-49AF-8B75-DA4E2F394C23";
shapes = (
{
closed = 1;
nodes = (
(512,696,l),
(-93,-86,l),
(-134,-56,l),
(470,725,l)
);
}
);
width = 366;
},
{
layerId = "803E4031-45E0-466E-BF99-85A631E5C1E1";
shapes = (
{
closed = 1;
nodes = (
(499,700,l),
(-106,-81,l),
(-135,-61,l),
(470,720,l)
);
}
);
width = 352;
}
);
leftKerningGroup = fraction;
rightKerningGroup = fraction1;
unicode = 8260;
},
{
glyphname = bracketangleleft;
layers = (
{
layerId = "147A3F7D-7F40-49EB-AD29-5B1295CBA645";
shapes = (
{
closed = 1;
nodes = (
(335,760,l),
(476,760,l),
(199,285,l),
(316,-200,l),
(175,-200,l),
(59,285,l)
);
}
);
width = 455;
},
{
layerId = "829015CF-4750-49AF-8B75-DA4E2F394C23";
shapes = (
{
closed = 1;
nodes = (
(335,760,l),
(430,760,l),
(153,285,l),
(270,-200,l),
(175,-200,l),
(59,285,l)
);
}
);
width = 409;
},
{
layerId = "803E4031-45E0-466E-BF99-85A631E5C1E1";
shapes = (
{
closed = 1;
nodes = (
(335,760,l),
(402,760,l),
(125,285,l),
(242,-200,l),
(175,-200,l),
(59,285,l)
);
}
);
width = 381;
}
);
unicode = 10216;
},
{
glyphname = bracketangleright;
layers = (
{
layerId = "147A3F7D-7F40-49EB-AD29-5B1295CBA645";
shapes = (
{
closed = 1;
nodes = (
(119,-200,l),
(-22,-200,l),
(257,285,l),
(138,760,l),
(279,760,l),
(397,285,l)
);
}
);
width = 455;
},
{
layerId = "829015CF-4750-49AF-8B75-DA4E2F394C23";
shapes = (
{
closed = 1;
nodes = (
(73,-200,l),
(-22,-200,l),
(257,285,l),
(138,760,l),
(233,760,l),
(351,285,l)
);
}
);
width = 409;
},
{
layerId = "803E4031-45E0-466E-BF99-85A631E5C1E1";
shapes = (
{
closed = 1;
nodes = (
(45,-200,l),
(-22,-200,l),
(257,285,l),
(138,760,l),
(205,760,l),
(323,285,l)
);
}
);
width = 381;
}
);
unicode = 10217;
},
{
glyphname = period;
layers = (
{
layerId = "147A3F7D-7F40-49EB-AD29-5B1295CBA645";
shapes = (
{
closed = 1;
nodes = (
(192,180,o),
(224,141,o),
(215,85,cs),
(206,29,o),
(160,-10,o),
(104,-10,cs),
(48,-10,o),
(16,29,o),
(25,85,cs),
(34,141,o),
(80,180,o),
(136,180,cs)
);
}
);
width = 307;
},
{
layerId = "829015CF-4750-49AF-8B75-DA4E2F394C23";
shapes = (
{
closed = 1;
nodes = (
(147,133,o),
(172,104,o),
(165,62,cs),
(159,20,o),
(123,-10,o),
(82,-10,cs),
(39,-10,o),
(15,20,o),
(21,62,cs),
(28,104,o),
(63,133,o),
(105,133,cs)
);
}
);
width = 261;
},
{
layerId = "803E4031-45E0-466E-BF99-85A631E5C1E1";
shapes = (
{
closed = 1;
nodes = (
(120,105,o),
(140,81,o),
(135,48,cs),
(130,14,o),
(101,-10,o),
(68,-10,cs),
(33,-10,o),
(14,14,o),
(19,48,cs),
(24,81,o),
(52,105,o),
(87,105,cs)
);
}
);
width = 233;
}
);
leftKerningGroup = comma2;
rightKerningGroup = comma;
unicode = 46;
},
{
glyphname = comma;
layers = (
{
layerId = "147A3F7D-7F40-49EB-AD29-5B1295CBA645";
shapes = (
{
closed = 1;
nodes = (
(201,180,o),
(236,133,o),
(224,60,cs),
(205,-51,o),
(93,-165,o),
(-6,-218,c),
(-45,-159,l),
(26,-106,o),
(74,-54,o),
(95,-10,c),
(97,-10,l),
(47,-5,o),
(14,31,o),
(23,85,cs),
(33,143,o),
(79,180,o),
(138,180,cs)
);
}
);
width = 320;
},
{
layerId = "829015CF-4750-49AF-8B75-DA4E2F394C23";
shapes = (
{
closed = 1;
nodes = (
(165,133,o),
(194,94,o),
(183,32,cs),
(168,-62,o),
(67,-163,o),
(-16,-208,c),
(-45,-162,l),
(22,-115,o),
(73,-55,o),
(86,-11,c),
(88,-11,l),
(46,-6,o),
(23,22,o),
(29,60,cs),
(36,104,o),
(72,133,o),
(118,133,cs)
);
}
);
width = 284;
},
{
layerId = "803E4031-45E0-466E-BF99-85A631E5C1E1";
shapes = (
{
closed = 1;
nodes = (
(144,105,o),
(169,71,o),
(159,15,cs),
(145,-69,o),
(51,-161,o),
(-22,-202,c),
(-45,-164,l),
(19,-121,o),
(72,-56,o),
(80,-12,c),
(82,-12,l),
(45,-7,o),
(28,16,o),
(33,45,c),
(38,81,o),
(67,105,o),
(106,105,cs)
);
}
);
width = 262;
}
);
leftKerningGroup = comma2;
rightKerningGroup = comma;
unicode = 44;
},
{
glyphname = exclamdown;
layers = (
{
layerId = "147A3F7D-7F40-49EB-AD29-5B1295CBA645";
shapes = (
{
closed = 1;
nodes = (
(258,330,l),
(205,-110,l),
(10,-110,l),
(103,330,l)
);
},
{
closed = 1;
nodes = (
(284,610,o),
(316,571,o),
(307,515,cs),
(297,459,o),
(252,420,o),
(196,420,cs),
(140,420,o),
(106,459,o),
(116,515,cs),
(125,571,o),
(172,610,o),
(228,610,cs)
);
}
);
width = 346;
},
{
layerId = "829015CF-4750-49AF-8B75-DA4E2F394C23";
shapes = (
{
closed = 1;
nodes = (
(201,330,l),
(148,-110,l),
(21,-110,l),
(114,330,l)
);
},
{
closed = 1;
nodes = (
(238,563,o),
(264,534,o),
(257,492,cs),
(250,450,o),
(215,420,o),
(173,420,cs),
(131,420,o),
(105,450,o),
(112,492,cs),
(119,534,o),
(155,563,o),
(197,563,cs)
);
}
);
width = 300;
},
{
layerId = "803E4031-45E0-466E-BF99-85A631E5C1E1";
shapes = (
{
closed = 1;
nodes = (
(167,330,l),
(113,-110,l),
(28,-110,l),
(121,330,l)
);
},
{
closed = 1;
nodes = (
(211,535,o),
(232,511,o),
(227,478,cs),
(221,444,o),
(192,420,o),
(159,420,cs),
(125,420,o),
(104,444,o),
(110,478,cs),
(115,511,o),
(144,535,o),
(178,535,cs)
);
}
);
width = 273;
}
);
unicode = 161;
},
{
glyphname = questiondown;
layers = (
{
layerId = "147A3F7D-7F40-49EB-AD29-5B1295CBA645";
shapes = (
{
closed = 1;
nodes = (
(379,295,l),
(356,257,o),
(333,234,o),
(294,199,c),
(249,156,o),
(229,138,o),
(220,87,c),
(214,45,o),
(236,16,o),
(271,16,cs),
(310,16,o),
(354,44,o),
(373,111,c),
(517,61,l),
(488,-65,o),
(369,-149,o),
(243,-149,cs),
(110,-149,o),
(19,-69,o),
(40,61,cs),
(56,153,o),
(119,202,o),
(188,262,c),
(215,284,o),
(245,311,o),
(267,336,c)
);
},
{
closed = 1;
nodes = (
(423,592,o),
(457,553,o),
(448,497,cs),
(438,441,o),
(392,402,o),
(337,402,cs),
(281,402,o),
(247,441,o),
(257,497,cs),
(266,553,o),
(313,592,o),
(369,592,cs)
);
}
);
width = 632;
},
{
layerId = "829015CF-4750-49AF-8B75-DA4E2F394C23";
shapes = (
{
closed = 1;
nodes = (
(375,328,l),
(350,293,o),
(323,270,o),
(273,230,cs),
(212,183,o),
(161,143,o),
(148,70,c),
(137,-5,o),
(180,-55,o),
(259,-55,cs),
(334,-55,o),
(395,-5,o),
(426,72,c),
(508,39,l),
(474,-67,o),
(368,-149,o),
(243,-149,cs),
(111,-149,o),
(19,-65,o),
(40,61,cs),
(57,162,o),
(133,220,o),
(212,281,cs),
(254,314,o),
(283,338,o),
(305,366,c)
);
},
{
closed = 1;
nodes = (
(412,592,o),
(438,562,o),
(431,521,cs),
(423,479,o),
(389,449,o),
(347,449,cs),
(305,449,o),
(279,479,o),
(286,521,c),
(294,562,o),
(329,592,o),
(371,592,cs)
);
}
);
width = 626;
},
{
layerId = "803E4031-45E0-466E-BF99-85A631E5C1E1";
shapes = (
{
closed = 1;
nodes = (
(372,348,l),
(346,315,o),
(317,292,o),
(260,249,cs),
(190,199,o),
(120,146,o),
(105,59,cs),
(90,-35,o),
(146,-97,o),
(252,-97,cs),
(348,-97,o),
(419,-35,o),
(458,49,c),
(502,26,l),
(466,-68,o),
(367,-149,o),
(243,-149,cs),
(111,-149,o),
(19,-63,o),
(40,61,cs),
(58,167,o),
(142,231,o),
(226,293,cs),
(277,332,o),
(305,354,o),
(327,384,c)
);
},
{
closed = 1;
nodes = (
(406,592,o),
(426,568,o),
(420,535,cs),
(414,501,o),
(387,477,o),
(353,477,cs),
(319,477,o),
(298,501,o),
(304,535,cs),
(310,568,o),
(338,592,o),
(372,592,cs)
);
}
);
width = 623;
}
);
unicode = 191;
},
{
glyphname = asterisk;
layers = (
{
layerId = "147A3F7D-7F40-49EB-AD29-5B1295CBA645";
shapes = (
{
closed = 1;
nodes = (
(275,590,l),
(251,760,l),
(381,760,l),
(302,590,l),
(324,420,l),
(194,420,l)
);
},
{
closed = 1;
nodes = (
(281,580,l),
(115,619,l),
(200,734,l),
(295,601,l),
(460,561,l),
(375,447,l)
);
},
{
closed = 1;
nodes = (
(282,600,l),
(424,734,l),
(469,619,l),
(291,579,l),
(151,447,l),
(106,561,l)
);
}
);
width = 473;
},
{
layerId = "829015CF-4750-49AF-8B75-DA4E2F394C23";
shapes = (
{
closed = 1;
nodes = (
(263,590,l),
(262,760,l),
(347,760,l),
(291,590,l),
(290,420,l),
(205,420,l)
);
},
{
closed = 1;
nodes = (
(269,579,l),
(119,639,l),
(172,713,l),
(285,602,l),
(433,541,l),
(380,468,l)
);
},
{
closed = 1;
nodes = (
(271,601,l),
(421,713,l),
(450,639,l),
(281,578,l),
(131,468,l),
(103,541,l)
);
}
);
width = 450;
},
{
layerId = "803E4031-45E0-466E-BF99-85A631E5C1E1";
shapes = (
{
closed = 1;
nodes = (
(255,590,l),
(268,760,l),
(326,760,l),
(285,590,l),
(269,420,l),
(211,420,l)
);
},
{
closed = 1;
nodes = (
(261,579,l),
(121,651,l),
(155,700,l),
(279,602,l),
(417,529,l),
(383,480,l)
);
},
{
closed = 1;
nodes = (
(265,601,l),
(419,700,l),
(438,651,l),
(275,578,l),
(119,480,l),
(101,529,l)
);
}
);
width = 436;
}
);
unicode = 42;
},
{
glyphname = slash;
layers = (
{
layerId = "147A3F7D-7F40-49EB-AD29-5B1295CBA645";
shapes = (
{
closed = 1;
nodes = (
(108,-80,l),
(-41,-80,l),
(398,760,l),
(548,760,l)
);
}
);
width = 488;
},
{
layerId = "829015CF-4750-49AF-8B75-DA4E2F394C23";
shapes = (
{
closed = 1;
nodes = (
(46,-80,l),
(-41,-80,l),
(398,760,l),
(486,760,l)
);
}
);
width = 426;
},
{
layerId = "803E4031-45E0-466E-BF99-85A631E5C1E1";
shapes = (
{
closed = 1;
nodes = (
(9,-80,l),
(-41,-80,l),
(398,760,l),
(449,760,l)
);
}
);
width = 389;
}
);
unicode = 47;
},
{
glyphname = backslash;
layers = (
{
layerId = "147A3F7D-7F40-49EB-AD29-5B1295CBA645";
shapes = (
{
closed = 1;
nodes = (
(249,760,l),
(408,-80,l),
(259,-80,l),
(99,760,l)
);
}
);
width = 488;
},
{
layerId = "829015CF-4750-49AF-8B75-DA4E2F394C23";
shapes = (
{
closed = 1;
nodes = (
(187,760,l),
(346,-80,l),
(259,-80,l),
(99,760,l)
);
}
);
width = 426;
},
{
layerId = "803E4031-45E0-466E-BF99-85A631E5C1E1";
shapes = (
{
closed = 1;
nodes = (
(150,760,l),
(309,-80,l),
(259,-80,l),
(99,760,l)
);
}
);
width = 389;
}
);
unicode = 92;
},
{
glyphname = hyphen;
layers = (
{
layerId = "147A3F7D-7F40-49EB-AD29-5B1295CBA645";
shapes = (
{
closed = 1;
nodes = (
(72,365,l),
(468,365,l),
(446,235,l),
(50,235,l)
);
}
);
width = 513;
},
{
layerId = "829015CF-4750-49AF-8B75-DA4E2F394C23";
shapes = (
{
closed = 1;
nodes = (
(68,342,l),
(464,342,l),
(450,259,l),
(54,259,l)
);
}
);
width = 513;
},
{
layerId = "803E4031-45E0-466E-BF99-85A631E5C1E1";
shapes = (
{
closed = 1;
nodes = (
(66,328,l),
(462,328,l),
(452,273,l),
(56,273,l)
);
}
);
width = 513;
}
);
leftKerningGroup = minus;
rightKerningGroup = minus1;
unicode = 45;
},
{
glyphname = endash;
layers = (
{
layerId = "147A3F7D-7F40-49EB-AD29-5B1295CBA645";
shapes = (
{
closed = 1;
nodes = (
(72,365,l),
(562,365,l),
(541,235,l),
(50,235,l)
);
}
);
width = 608;
},
{
layerId = "829015CF-4750-49AF-8B75-DA4E2F394C23";
shapes = (
{
closed = 1;
nodes = (
(68,342,l),
(528,342,l),
(514,259,l),
(54,259,l)
);
}
);
width = 577;
},
{
layerId = "803E4031-45E0-466E-BF99-85A631E5C1E1";
shapes = (
{
closed = 1;
nodes = (
(66,328,l),
(507,328,l),
(498,273,l),
(56,273,l)
);
}
);
width = 559;
}
);
leftKerningGroup = minus;
rightKerningGroup = minus1;
unicode = 8211;
},
{
glyphname = emdash;
layers = (
{
layerId = "147A3F7D-7F40-49EB-AD29-5B1295CBA645";
shapes = (
{
closed = 1;
nodes = (
(72,365,l),
(895,365,l),
(874,235,l),
(50,235,l)
);
}
);
width = 941;
},
{
layerId = "829015CF-4750-49AF-8B75-DA4E2F394C23";
shapes = (
{
closed = 1;
nodes = (
(68,342,l),
(861,342,l),
(847,259,l),
(54,259,l)
);
}
);
width = 910;
},
{
layerId = "803E4031-45E0-466E-BF99-85A631E5C1E1";
shapes = (
{
closed = 1;
nodes = (
(66,328,l),
(840,328,l),
(831,273,l),
(56,273,l)
);
}
);
width = 892;
}
);
unicode = 8212;
},
{
glyphname = underscore;
layers = (
{
layerId = "147A3F7D-7F40-49EB-AD29-5B1295CBA645";
shapes = (
{
closed = 1;
nodes = (
(-55,-97,l),
(538,-97,l),
(524,-180,l),
(-68,-180,l)
);
}
);
width = 611;
},
{
layerId = "829015CF-4750-49AF-8B75-DA4E2F394C23";
shapes = (
{
closed = 1;
nodes = (
(-57,-113,l),
(536,-113,l),
(524,-180,l),
(-68,-180,l)
);
}
);
width = 611;
},
{
layerId = "803E4031-45E0-466E-BF99-85A631E5C1E1";
shapes = (
{
closed = 1;
nodes = (
(-58,-122,l),
(534,-122,l),
(524,-180,l),
(-68,-180,l)
);
}
);
width = 611;
}
);
unicode = 95;
},
{
glyphname = parenleft;
layers = (
{
layerId = "147A3F7D-7F40-49EB-AD29-5B1295CBA645";
shapes = (
{
closed = 1;
nodes = (
(104,552,o),
(251,707,o),
(406,773,c),
(437,707,l),
(339,647,o),
(227,508,o),
(193,320,cs),
(162,139,o),
(229,4,o),
(307,-67,c),
(254,-133,l),
(129,-66,o),
(25,88,o),
(65,320,cs)
);
}
);
width = 426;
},
{
layerId = "829015CF-4750-49AF-8B75-DA4E2F394C23";
shapes = (
{
closed = 1;
nodes = (
(102,540,o),
(247,706,o),
(389,765,c),
(412,715,l),
(311,652,o),
(186,502,o),
(155,320,cs),
(125,142,o),
(200,-6,o),
(280,-75,c),
(241,-125,l),
(123,-62,o),
(28,106,o),
(65,320,cs)
);
}
);
width = 400;
},
{
layerId = "803E4031-45E0-466E-BF99-85A631E5C1E1";
shapes = (
{
closed = 1;
nodes = (
(100,532,o),
(245,706,o),
(379,760,c),
(397,720,l),
(294,655,o),
(162,499,o),
(132,320,cs),
(102,144,o),
(183,-12,o),
(264,-80,c),
(233,-120,l),
(119,-59,o),
(30,117,o),
(65,320,cs)
);
}
);
width = 384;
}
);
unicode = 40;
},
{
glyphname = parenright;
layers = (
{
layerId = "147A3F7D-7F40-49EB-AD29-5B1295CBA645";
shapes = (
{
closed = 1;
nodes = (
(334,88,o),
(178,-66,o),
(31,-133,c),
(0,-67,l),
(102,4,o),
(213,139,o),
(244,320,cs),
(273,508,o),
(206,647,o),
(131,707,c),
(183,773,l),
(315,707,o),
(412,552,o),
(374,320,cs)
);
}
);
width = 426;
},
{
layerId = "829015CF-4750-49AF-8B75-DA4E2F394C23";
shapes = (
{
closed = 1;
nodes = (
(312,106,o),
(161,-62,o),
(22,-125,c),
(-1,-75,l),
(102,-6,o),
(227,142,o),
(257,320,cs),
(287,502,o),
(211,652,o),
(132,715,c),
(171,765,l),
(294,706,o),
(384,540,o),
(348,320,cs)
);
}
);
width = 400;
},
{
layerId = "803E4031-45E0-466E-BF99-85A631E5C1E1";
shapes = (
{
closed = 1;
nodes = (
(298,117,o),
(150,-59,o),
(17,-120,c),
(-1,-80,l),
(102,-12,o),
(236,144,o),
(265,320,cs),
(296,499,o),
(214,655,o),
(132,720,c),
(164,760,l),
(281,706,o),
(367,532,o),
(332,320,cs)
);
}
);
width = 384;
}
);
unicode = 41;
},
{
glyphname = braceleft;
layers = (
{
layerId = "147A3F7D-7F40-49EB-AD29-5B1295CBA645";
shapes = (
{
closed = 1;
nodes = (
(159,176,l),
(172,247,o),
(122,274,o),
(56,274,c),
(73,370,l),
(146,370,o),
(197,404,o),
(210,478,c),
(223,607,l),
(246,738,o),
(332,802,o),
(462,800,c),
(474,691,l),
(415,693,o),
(343,651,o),
(347,584,c),
(344,506,l),
(338,413,o),
(279,338,o),
(178,325,c),
(271,310,o),
(309,246,o),
(285,153,cs),
(257,44,l),
(245,-26,o),
(273,-65,o),
(347,-62,c),
(301,-160,l),
(172,-162,o),
(106,-97,o),
(126,33,c)
);
}
);
width = 464;
},
{
layerId = "829015CF-4750-49AF-8B75-DA4E2F394C23";
shapes = (
{
closed = 1;
nodes = (
(159,176,l),
(172,251,o),
(135,290,o),
(59,290,c),
(71,354,l),
(152,354,o),
(197,402,o),
(210,478,c),
(224,615,l),
(239,728,o),
(317,794,o),
(431,800,c),
(438,730,l),
(369,722,o),
(319,676,o),
(313,608,c),
(306,506,l),
(302,423,o),
(243,342,o),
(155,325,c),
(239,307,o),
(268,237,o),
(247,153,cs),
(216,28,l),
(204,-42,o),
(228,-86,o),
(300,-93,c),
(270,-160,l),
(160,-154,o),
(103,-88,o),
(125,25,c)
);
}
);
width = 422;
},
{
layerId = "803E4031-45E0-466E-BF99-85A631E5C1E1";
shapes = (
{
closed = 1;
nodes = (
(159,176,l),
(172,253,o),
(143,299,o),
(61,299,c),
(69,345,l),
(155,345,o),
(197,400,o),
(210,478,c),
(225,620,ls),
(234,722,o),
(308,789,o),
(412,800,c),
(416,753,l),
(341,740,o),
(304,691,o),
(292,622,c),
(283,506,l),
(281,429,o),
(222,344,o),
(141,325,c),
(220,305,o),
(243,231,o),
(224,153,cs),
(192,19,l),
(180,-51,o),
(201,-98,o),
(272,-112,c),
(251,-160,l),
(153,-149,o),
(101,-82,o),
(125,20,cs)
);
}
);
width = 397;
}
);
unicode = 123;
},
{
glyphname = braceright;
layers = (
{
layerId = "147A3F7D-7F40-49EB-AD29-5B1295CBA645";
shapes = (
{
closed = 1;
nodes = (
(253,33,l),
(231,-97,o),
(143,-162,o),
(14,-160,c),
(0,-62,l),
(75,-65,o),
(115,-26,o),
(127,44,c),
(136,153,ls),
(143,246,o),
(203,310,o),
(299,325,c),
(204,338,o),
(169,413,o),
(195,506,cs),
(218,584,l),
(245,653,o),
(188,693,o),
(127,691,c),
(175,800,l),
(306,802,o),
(370,738,o),
(350,607,c),
(318,478,l),
(305,402,o),
(346,370,o),
(420,370,c),
(403,274,l),
(337,274,o),
(280,249,o),
(267,176,c)
);
}
);
width = 464;
},
{
layerId = "829015CF-4750-49AF-8B75-DA4E2F394C23";
shapes = (
{
closed = 1;
nodes = (
(210,25,l),
(195,-88,o),
(115,-154,o),
(3,-160,c),
(-5,-93,l),
(71,-86,o),
(109,-42,o),
(121,28,c),
(132,153,ls),
(139,239,o),
(190,306,o),
(280,325,c),
(198,342,o),
(167,423,o),
(191,506,c),
(218,608,l),
(234,678,o),
(202,722,o),
(133,730,c),
(164,800,l),
(275,794,o),
(332,728,o),
(309,615,c),
(276,478,l),
(263,401,o),
(295,354,o),
(375,354,c),
(364,290,l),
(290,290,o),
(238,251,o),
(225,176,c)
);
}
);
width = 422;
},
{
layerId = "803E4031-45E0-466E-BF99-85A631E5C1E1";
shapes = (
{
closed = 1;
nodes = (
(184,20,ls),
(174,-82,o),
(98,-149,o),
(-3,-160,c),
(-8,-112,l),
(68,-98,o),
(105,-51,o),
(117,19,c),
(130,153,ls),
(137,234,o),
(182,303,o),
(269,325,c),
(195,344,o),
(165,429,o),
(189,506,c),
(218,622,l),
(228,693,o),
(211,739,o),
(137,753,c),
(158,800,l),
(256,789,o),
(309,722,o),
(285,620,cs),
(251,478,l),
(238,400,o),
(265,345,o),
(348,345,c),
(341,299,l),
(262,299,o),
(213,252,o),
(200,176,c)
);
}
);
width = 397;
}
);
unicode = 125;
},
{
glyphname = bracketleft;
layers = (
{
layerId = "147A3F7D-7F40-49EB-AD29-5B1295CBA645";
shapes = (
{
closed = 1;
nodes = (
(404,800,l),
(388,702,l),
(256,702,l),
(130,-51,l),
(261,-51,l),
(243,-160,l),
(-16,-160,l),
(145,800,l)
);
}
);
width = 376;
},
{
layerId = "829015CF-4750-49AF-8B75-DA4E2F394C23";
shapes = (
{
closed = 1;
nodes = (
(404,800,l),
(393,733,l),
(222,733,l),
(85,-90,l),
(255,-90,l),
(243,-160,l),
(-16,-160,l),
(145,800,l)
);
}
);
width = 376;
},
{
layerId = "803E4031-45E0-466E-BF99-85A631E5C1E1";
shapes = (
{
closed = 1;
nodes = (
(404,800,l),
(396,752,l),
(202,752,l),
(58,-113,l),
(251,-113,l),
(243,-160,l),
(-16,-160,l),
(145,800,l)
);
}
);
width = 376;
}
);
unicode = 91;
},
{
glyphname = bracketright;
layers = (
{
layerId = "147A3F7D-7F40-49EB-AD29-5B1295CBA645";
shapes = (
{
closed = 1;
nodes = (
(243,-160,l),
(-16,-160,l),
(2,-51,l),
(133,-51,l),
(260,702,l),
(129,702,l),
(145,800,l),
(404,800,l)
);
}
);
width = 376;
},
{
layerId = "829015CF-4750-49AF-8B75-DA4E2F394C23";
shapes = (
{
closed = 1;
nodes = (
(243,-160,l),
(-16,-160,l),
(-4,-90,l),
(165,-90,l),
(303,733,l),
(134,733,l),
(145,800,l),
(404,800,l)
);
}
);
width = 376;
},
{
layerId = "803E4031-45E0-466E-BF99-85A631E5C1E1";
shapes = (
{
closed = 1;
nodes = (
(243,-160,l),
(-16,-160,l),
(-8,-113,l),
(184,-113,l),
(329,752,l),
(137,752,l),
(145,800,l),
(404,800,l)
);
}
);
width = 376;
}
);
unicode = 93;
},
{
glyphname = quoteright;
layers = (
{
layerId = "147A3F7D-7F40-49EB-AD29-5B1295CBA645";
shapes = (
{
closed = 1;
nodes = (
(278,760,o),
(307,711,o),
(297,643,c),
(281,549,o),
(208,448,o),
(124,367,c),
(68,412,l),
(115,463,o),
(161,526,o),
(180,570,c),
(182,570,l),
(120,570,o),
(92,614,o),
(100,665,cs),
(109,719,o),
(159,760,o),
(210,760,cs)
);
}
);
width = 276;
},
{
layerId = "829015CF-4750-49AF-8B75-DA4E2F394C23";
shapes = (
{
closed = 1;
nodes = (
(251,760,o),
(275,722,o),
(266,670,cs),
(254,601,o),
(192,511,o),
(108,422,c),
(70,451,l),
(121,511,o),
(160,573,o),
(177,617,c),
(179,617,l),
(133,617,o),
(108,648,o),
(115,687,cs),
(122,728,o),
(160,760,o),
(200,760,cs)
);
}
);
width = 240;
},
{
layerId = "803E4031-45E0-466E-BF99-85A631E5C1E1";
shapes = (
{
closed = 1;
nodes = (
(235,760,o),
(255,728,o),
(247,686,c),
(238,632,o),
(183,548,o),
(99,455,c),
(71,474,l),
(124,540,o),
(159,601,o),
(175,645,c),
(177,645,l),
(140,645,o),
(118,669,o),
(124,700,c),
(129,734,o),
(161,760,o),
(194,760,cs)
);
}
);
width = 219;
}
);
leftKerningGroup = quoteleft2;
rightKerningGroup = quoteleft;
unicode = 8217;
},
{
glyphname = guillemotleft;
layers = (
{
layerId = "147A3F7D-7F40-49EB-AD29-5B1295CBA645";
shapes = (
{
closed = 1;
nodes = (
(223,500,l),
(372,500,l),
(211,300,l),
(305,100,l),
(156,100,l),
(62,300,l)
);
},
{
closed = 1;
nodes = (
(468,500,l),
(617,500,l),
(456,300,l),
(550,100,l),
(401,100,l),
(307,300,l)
);
}
);
width = 640;
},
{
layerId = "829015CF-4750-49AF-8B75-DA4E2F394C23";
shapes = (
{
closed = 1;
nodes = (
(223,500,l),
(326,500,l),
(165,300,l),
(259,100,l),
(156,100,l),
(62,300,l)
);
},
{
closed = 1;
nodes = (
(468,500,l),
(571,500,l),
(410,300,l),
(504,100,l),
(401,100,l),
(307,300,l)
);
}
);
width = 594;
},
{
layerId = "803E4031-45E0-466E-BF99-85A631E5C1E1";
shapes = (
{
closed = 1;
nodes = (
(223,500,l),
(299,500,l),
(137,300,l),
(232,100,l),
(156,100,l),
(62,300,l)
);
},
{
closed = 1;
nodes = (
(468,500,l),
(544,500,l),
(382,300,l),
(477,100,l),
(401,100,l),
(307,300,l)
);
}
);
width = 567;
}
);
unicode = 171;
},
{
glyphname = guilsinglleft;
layers = (
{
layerId = "147A3F7D-7F40-49EB-AD29-5B1295CBA645";
shapes = (
{
closed = 1;
nodes = (
(223,500,l),
(372,500,l),
(211,300,l),
(305,100,l),
(156,100,l),
(62,300,l)
);
}
);
width = 395;
},
{
layerId = "829015CF-4750-49AF-8B75-DA4E2F394C23";
shapes = (
{
closed = 1;
nodes = (
(223,500,l),
(326,500,l),
(165,300,l),
(259,100,l),
(156,100,l),
(62,300,l)
);
}
);
width = 349;
},
{
layerId = "803E4031-45E0-466E-BF99-85A631E5C1E1";
shapes = (
{
closed = 1;
nodes = (
(223,500,l),
(299,500,l),
(137,300,l),
(232,100,l),
(156,100,l),
(62,300,l)
);
}
);
width = 322;
}
);
unicode = 8249;
},
{
glyphname = guilsinglright;
layers = (
{
layerId = "147A3F7D-7F40-49EB-AD29-5B1295CBA645";
shapes = (
{
closed = 1;
nodes = (
(178,100,l),
(29,100,l),
(189,300,l),
(96,500,l),
(245,500,l),
(338,300,l)
);
}
);
width = 395;
},
{
layerId = "829015CF-4750-49AF-8B75-DA4E2F394C23";
shapes = (
{
closed = 1;
nodes = (
(132,100,l),
(29,100,l),
(189,300,l),
(96,500,l),
(199,500,l),
(292,300,l)
);
}
);
width = 349;
},
{
layerId = "803E4031-45E0-466E-BF99-85A631E5C1E1";
shapes = (
{
closed = 1;
nodes = (
(104,100,l),
(29,100,l),
(189,300,l),
(96,500,l),
(171,500,l),
(265,300,l)
);
}
);
width = 322;
}
);
rightKerningGroup = guillemotright;
unicode = 8250;
},
{
glyphname = quotesingle;
layers = (
{
layerId = "147A3F7D-7F40-49EB-AD29-5B1295CBA645";
shapes = (
{
closed = 1;
nodes = (
(289,760,l),
(211,477,l),
(121,477,l),
(138,760,l)
);
}
);
width = 268;
},
{
layerId = "829015CF-4750-49AF-8B75-DA4E2F394C23";
shapes = (
{
closed = 1;
nodes = (
(243,760,l),
(175,493,l),
(117,493,l),
(138,760,l)
);
}
);
width = 222;
},
{
layerId = "803E4031-45E0-466E-BF99-85A631E5C1E1";
shapes = (
{
closed = 1;
nodes = (
(215,760,l),
(154,502,l),
(114,502,l),
(138,760,l)
);
}
);
width = 194;
}
);
rightKerningGroup = quotedbl;
unicode = 39;
},
{
glyphname = florin;
layers = (
{
layerId = "147A3F7D-7F40-49EB-AD29-5B1295CBA645";
shapes = (
{
closed = 1;
nodes = (
(532,500,l),
(506,347,l),
(105,347,l),
(132,500,l)
);
},
{
closed = 1;
nodes = (
(520,760,o),
(547,755,o),
(569,750,c),
(542,596,l),
(522,603,o),
(503,607,o),
(485,607,cs),
(436,607,o),
(407,581,o),
(399,530,cs),
(340,182,ls),
(311,5,o),
(221,-80,o),
(61,-80,c),
(40,50,l),
(120,62,o),
(165,105,o),
(176,182,c),
(239,553,ls),
(262,689,o),
(349,760,o),
(488,760,cs)
);
}
);
width = 570;
},
{
layerId = "829015CF-4750-49AF-8B75-DA4E2F394C23";
shapes = (
{
closed = 1;
nodes = (
(479,500,l),
(464,410,l),
(132,410,l),
(148,500,l)
);
},
{
closed = 1;
nodes = (
(491,760,o),
(519,755,o),
(538,750,c),
(522,659,l),
(503,665,o),
(477,670,o),
(457,670,cs),
(398,670,o),
(363,639,o),
(353,577,cs),
(278,127,ls),
(255,-7,o),
(174,-80,o),
(45,-80,c),
(32,3,l),
(116,7,o),
(163,48,o),
(175,127,cs),
(252,584,ls),
(271,700,o),
(345,760,o),
(465,760,cs)
);
}
);
width = 538;
},
{
layerId = "803E4031-45E0-466E-BF99-85A631E5C1E1";
shapes = (
{
closed = 1;
nodes = (
(447,500,l),
(439,447,l),
(148,447,l),
(157,500,l)
);
},
{
closed = 1;
nodes = (
(473,760,o),
(502,755,o),
(520,750,c),
(510,696,l),
(492,702,o),
(461,707,o),
(440,707,cs),
(375,707,o),
(337,673,o),
(325,605,cs),
(240,94,ls),
(222,-14,o),
(146,-80,o),
(36,-80,c),
(27,-25,l),
(113,-26,o),
(161,13,o),
(175,94,cs),
(259,603,ls),
(277,706,o),
(343,760,o),
(451,760,cs)
);
}
);
width = 519;
}
);
unicode = 402;
},
{
glyphname = "baht-thai";
layers = (
{
layerId = "147A3F7D-7F40-49EB-AD29-5B1295CBA645";
shapes = (
{
closed = 1;
nodes = (
(327,-80,l),
(197,-80,l),
(224,90,l),
(355,90,l)
);
},
{
closed = 1;
nodes = (
(446,633,l),
(316,633,l),
(341,780,l),
(471,780,l)
);
},
{
closed = 1;
nodes = (
(192,153,l),
(326,153,ls),
(388,153,o),
(424,177,o),
(431,219,cs),
(438,258,o),
(411,285,o),
(348,285,cs),
(214,285,l),
(238,427,l),
(352,427,ls),
(414,427,o),
(442,447,o),
(448,486,cs),
(455,526,o),
(432,547,o),
(372,547,cs),
(258,547,l),
(284,700,l),
(397,700,ls),
(562,700,o),
(648,628,o),
(628,516,cs),
(615,439,o),
(539,372,o),
(460,368,c),
(461,383,l),
(566,364,o),
(622,302,o),
(604,198,cs),
(585,82,o),
(478,0,o),
(300,0,cs),
(167,0,l)
);
},
{
closed = 1;
nodes = (
(128,700,l),
(304,700,l),
(187,0,l),
(11,0,l)
);
}
);
width = 677;
},
{
layerId = "829015CF-4750-49AF-8B75-DA4E2F394C23";
shapes = (
{
closed = 1;
nodes = (
(274,-80,l),
(189,-80,l),
(208,43,l),
(294,43,l)
);
},
{
closed = 1;
nodes = (
(399,664,l),
(314,664,l),
(333,780,l),
(418,780,l)
);
},
{
closed = 1;
nodes = (
(114,91,l),
(300,91,ls),
(396,91,o),
(455,134,o),
(467,205,cs),
(479,272,o),
(435,316,o),
(338,316,cs),
(152,316,l),
(166,404,l),
(333,404,ls),
(416,404,o),
(472,445,o),
(483,508,cs),
(493,569,o),
(454,609,o),
(368,609,cs),
(201,609,l),
(216,700,l),
(382,700,ls),
(542,700,o),
(608,620,o),
(591,518,cs),
(577,437,o),
(499,374,o),
(419,369,c),
(417,379,l),
(525,372,o),
(591,304,o),
(573,198,cs),
(553,79,o),
(447,0,o),
(284,0,cs),
(99,0,l)
);
},
{
closed = 1;
nodes = (
(128,700,l),
(235,700,l),
(118,0,l),
(11,0,l)
);
}
);
width = 646;
},
{
layerId = "803E4031-45E0-466E-BF99-85A631E5C1E1";
shapes = (
{
closed = 1;
nodes = (
(242,-80,l),
(184,-80,l),
(199,15,l),
(258,15,l)
);
},
{
closed = 1;
nodes = (
(370,683,l),
(312,683,l),
(328,780,l),
(386,780,l)
);
},
{
closed = 1;
nodes = (
(67,53,l),
(284,53,ls),
(401,53,o),
(474,108,o),
(489,197,cs),
(503,281,o),
(449,335,o),
(332,335,cs),
(114,335,l),
(123,390,l),
(322,390,ls),
(417,390,o),
(490,443,o),
(504,521,cs),
(516,595,o),
(467,646,o),
(365,646,cs),
(166,646,l),
(175,700,l),
(373,700,ls),
(530,700,o),
(584,615,o),
(568,519,cs),
(554,435,o),
(475,375,o),
(395,369,c),
(391,376,l),
(501,377,o),
(572,305,o),
(554,198,cs),
(534,77,o),
(429,0,o),
(275,0,cs),
(58,0,l)
);
},
{
closed = 1;
nodes = (
(128,700,l),
(193,700,l),
(76,0,l),
(11,0,l)
);
}
);
width = 627;
}
);
unicode = 3647;
},
{
glyphname = at;
layers = (
{
layerId = "147A3F7D-7F40-49EB-AD29-5B1295CBA645";
shapes = (
{
closed = 1;
nodes = (
(816,200,ls),
(807,145,o),
(812,120,o),
(836,120,cs),
(883,120,o),
(948,184,o),
(969,310,cs),
(1003,513,o),
(868,665,o),
(633,665,cs),
(393,665,o),
(217,480,o),
(179,249,cs),
(139,14,o),
(268,-144,o),
(498,-144,cs),
(574,-144,o),
(643,-128,o),
(685,-107,c),
(703,-189,l),
(658,-217,o),
(580,-240,o),
(482,-240,cs),
(189,-240,o),
(23,-43,o),
(72,249,cs),
(122,550,o),
(359,760,o),
(649,760,cs),
(918,760,o),
(1113,594,o),
(1066,310,cs),
(1032,110,o),
(905,-10,o),
(780,-10,cs),
(698,-10,o),
(653,40,o),
(664,139,c),
(631,45,o),
(558,-10,o),
(479,-10,cs),
(356,-10,o),
(290,88,o),
(313,232,cs),
(341,398,o),
(455,510,o),
(583,510,cs),
(658,510,o),
(708,463,o),
(717,411,c),
(741,500,l),
(866,500,l)
);
},
{
closed = 1;
nodes = (
(599,143,o),
(639,190,o),
(650,259,cs),
(660,317,o),
(636,357,o),
(591,357,cs),
(542,357,o),
(504,313,o),
(492,247,cs),
(481,185,o),
(505,143,o),
(549,143,cs)
);
}
);
width = 1140;
},
{
layerId = "829015CF-4750-49AF-8B75-DA4E2F394C23";
shapes = (
{
closed = 1;
nodes = (
(794,153,ls),
(785,99,o),
(795,73,o),
(828,73,cs),
(890,73,o),
(967,160,o),
(993,310,cs),
(1029,527,o),
(886,689,o),
(637,689,cs),
(384,689,o),
(197,494,o),
(157,249,cs),
(114,1,o),
(251,-168,o),
(494,-168,cs),
(568,-168,o),
(637,-151,o),
(682,-129,c),
(695,-190,l),
(652,-218,o),
(571,-240,o),
(482,-240,cs),
(189,-240,o),
(23,-43,o),
(72,249,cs),
(122,550,o),
(359,760,o),
(649,760,cs),
(918,760,o),
(1113,594,o),
(1066,310,cs),
(1033,111,o),
(912,-10,o),
(803,-10,cs),
(721,-10,o),
(682,38,o),
(693,129,c),
(655,49,o),
(581,-10,o),
(487,-10,cs),
(360,-10,o),
(289,84,o),
(312,224,cs),
(341,396,o),
(461,510,o),
(606,510,cs),
(682,510,o),
(736,469,o),
(747,411,c),
(771,500,l),
(851,500,l)
);
},
{
closed = 1;
nodes = (
(615,81,o),
(687,156,o),
(706,270,cs),
(721,360,o),
(680,420,o),
(604,420,cs),
(513,420,o),
(440,346,o),
(422,238,cs),
(405,143,o),
(448,81,o),
(528,81,cs)
);
}
);
width = 1140;
},
{
layerId = "803E4031-45E0-466E-BF99-85A631E5C1E1";
shapes = (
{
closed = 1;
nodes = (
(780,125,ls),
(771,72,o),
(785,45,o),
(823,45,cs),
(894,45,o),
(979,145,o),
(1007,310,cs),
(1044,536,o),
(897,703,o),
(639,703,cs),
(379,703,o),
(185,503,o),
(143,249,cs),
(99,-7,o),
(240,-182,o),
(492,-182,cs),
(564,-182,o),
(634,-164,o),
(680,-142,c),
(690,-190,l),
(648,-218,o),
(566,-240,o),
(482,-240,cs),
(189,-240,o),
(23,-43,o),
(72,249,cs),
(122,550,o),
(359,760,o),
(649,760,cs),
(918,760,o),
(1113,594,o),
(1066,310,cs),
(1033,111,o),
(916,-10,o),
(816,-10,cs),
(734,-10,o),
(700,36,o),
(710,123,c),
(669,51,o),
(594,-10,o),
(492,-10,cs),
(362,-10,o),
(289,82,o),
(312,219,cs),
(341,394,o),
(465,510,o),
(619,510,cs),
(696,510,o),
(752,472,o),
(765,411,c),
(789,500,l),
(842,500,l)
);
},
{
closed = 1;
nodes = (
(625,43,o),
(715,136,o),
(739,276,cs),
(758,385,o),
(706,457,o),
(612,457,cs),
(496,457,o),
(402,366,o),
(380,232,cs),
(360,118,o),
(414,43,o),
(515,43,cs)
);
}
);
width = 1140;
}
);
unicode = 64;
},
